%TF.GenerationSoftware,KiCad,Pcbnew,(5.1.6)-1*%
%TF.CreationDate,2022-04-27T14:58:12+09:00*%
%TF.ProjectId,FP-2500 ICHIMASA,46502d32-3530-4302-9049-4348494d4153,rev?*%
%TF.SameCoordinates,Original*%
%TF.FileFunction,Paste,Top*%
%TF.FilePolarity,Positive*%
%FSLAX46Y46*%
G04 Gerber Fmt 4.6, Leading zero omitted, Abs format (unit mm)*
G04 Created by KiCad (PCBNEW (5.1.6)-1) date 2022-04-27 14:58:12*
%MOMM*%
%LPD*%
G01*
G04 APERTURE LIST*
%ADD10R,1.600000X0.550000*%
%ADD11R,0.550000X1.600000*%
%ADD12R,1.400000X1.200000*%
%ADD13R,3.800000X2.200000*%
%ADD14R,1.500000X2.200000*%
%ADD15R,1.700000X1.000000*%
%ADD16R,0.800000X0.900000*%
%ADD17R,2.800000X2.400000*%
%ADD18R,2.400000X2.800000*%
G04 APERTURE END LIST*
%TO.C,C6*%
G36*
G01*
X60140000Y-169172500D02*
X60140000Y-168827500D01*
G75*
G02*
X60287500Y-168680000I147500J0D01*
G01*
X60582500Y-168680000D01*
G75*
G02*
X60730000Y-168827500I0J-147500D01*
G01*
X60730000Y-169172500D01*
G75*
G02*
X60582500Y-169320000I-147500J0D01*
G01*
X60287500Y-169320000D01*
G75*
G02*
X60140000Y-169172500I0J147500D01*
G01*
G37*
G36*
G01*
X59170000Y-169172500D02*
X59170000Y-168827500D01*
G75*
G02*
X59317500Y-168680000I147500J0D01*
G01*
X59612500Y-168680000D01*
G75*
G02*
X59760000Y-168827500I0J-147500D01*
G01*
X59760000Y-169172500D01*
G75*
G02*
X59612500Y-169320000I-147500J0D01*
G01*
X59317500Y-169320000D01*
G75*
G02*
X59170000Y-169172500I0J147500D01*
G01*
G37*
%TD*%
%TO.C,C8*%
G36*
G01*
X59710000Y-152477500D02*
X59710000Y-152822500D01*
G75*
G02*
X59562500Y-152970000I-147500J0D01*
G01*
X59267500Y-152970000D01*
G75*
G02*
X59120000Y-152822500I0J147500D01*
G01*
X59120000Y-152477500D01*
G75*
G02*
X59267500Y-152330000I147500J0D01*
G01*
X59562500Y-152330000D01*
G75*
G02*
X59710000Y-152477500I0J-147500D01*
G01*
G37*
G36*
G01*
X60680000Y-152477500D02*
X60680000Y-152822500D01*
G75*
G02*
X60532500Y-152970000I-147500J0D01*
G01*
X60237500Y-152970000D01*
G75*
G02*
X60090000Y-152822500I0J147500D01*
G01*
X60090000Y-152477500D01*
G75*
G02*
X60237500Y-152330000I147500J0D01*
G01*
X60532500Y-152330000D01*
G75*
G02*
X60680000Y-152477500I0J-147500D01*
G01*
G37*
%TD*%
%TO.C,C7*%
G36*
G01*
X59710000Y-153527500D02*
X59710000Y-153872500D01*
G75*
G02*
X59562500Y-154020000I-147500J0D01*
G01*
X59267500Y-154020000D01*
G75*
G02*
X59120000Y-153872500I0J147500D01*
G01*
X59120000Y-153527500D01*
G75*
G02*
X59267500Y-153380000I147500J0D01*
G01*
X59562500Y-153380000D01*
G75*
G02*
X59710000Y-153527500I0J-147500D01*
G01*
G37*
G36*
G01*
X60680000Y-153527500D02*
X60680000Y-153872500D01*
G75*
G02*
X60532500Y-154020000I-147500J0D01*
G01*
X60237500Y-154020000D01*
G75*
G02*
X60090000Y-153872500I0J147500D01*
G01*
X60090000Y-153527500D01*
G75*
G02*
X60237500Y-153380000I147500J0D01*
G01*
X60532500Y-153380000D01*
G75*
G02*
X60680000Y-153527500I0J-147500D01*
G01*
G37*
%TD*%
D10*
%TO.C,U2*%
X64250000Y-158200000D03*
X64250000Y-159000000D03*
X64250000Y-159800000D03*
X64250000Y-160600000D03*
X64250000Y-161400000D03*
X64250000Y-162200000D03*
X64250000Y-163000000D03*
X64250000Y-163800000D03*
D11*
X62800000Y-165250000D03*
X62000000Y-165250000D03*
X61200000Y-165250000D03*
X60400000Y-165250000D03*
X59600000Y-165250000D03*
X58800000Y-165250000D03*
X58000000Y-165250000D03*
X57200000Y-165250000D03*
D10*
X55750000Y-163800000D03*
X55750000Y-163000000D03*
X55750000Y-162200000D03*
X55750000Y-161400000D03*
X55750000Y-160600000D03*
X55750000Y-159800000D03*
X55750000Y-159000000D03*
X55750000Y-158200000D03*
D11*
X57200000Y-156750000D03*
X58000000Y-156750000D03*
X58800000Y-156750000D03*
X59600000Y-156750000D03*
X60400000Y-156750000D03*
X61200000Y-156750000D03*
X62000000Y-156750000D03*
X62800000Y-156750000D03*
%TD*%
D12*
%TO.C,Y1*%
X55300000Y-154050000D03*
X53100000Y-154050000D03*
X53100000Y-152350000D03*
X55300000Y-152350000D03*
%TD*%
D13*
%TO.C,U1*%
X28250000Y-134150000D03*
D14*
X30550000Y-127850000D03*
X28250000Y-127850000D03*
X25950000Y-127850000D03*
%TD*%
D15*
%TO.C,S1*%
X58050000Y-178350000D03*
X51750000Y-178350000D03*
X58050000Y-174550000D03*
X51750000Y-174550000D03*
%TD*%
%TO.C,R19*%
G36*
G01*
X47850000Y-166056250D02*
X47850000Y-165143750D01*
G75*
G02*
X48093750Y-164900000I243750J0D01*
G01*
X48581250Y-164900000D01*
G75*
G02*
X48825000Y-165143750I0J-243750D01*
G01*
X48825000Y-166056250D01*
G75*
G02*
X48581250Y-166300000I-243750J0D01*
G01*
X48093750Y-166300000D01*
G75*
G02*
X47850000Y-166056250I0J243750D01*
G01*
G37*
G36*
G01*
X45975000Y-166056250D02*
X45975000Y-165143750D01*
G75*
G02*
X46218750Y-164900000I243750J0D01*
G01*
X46706250Y-164900000D01*
G75*
G02*
X46950000Y-165143750I0J-243750D01*
G01*
X46950000Y-166056250D01*
G75*
G02*
X46706250Y-166300000I-243750J0D01*
G01*
X46218750Y-166300000D01*
G75*
G02*
X45975000Y-166056250I0J243750D01*
G01*
G37*
%TD*%
%TO.C,R18*%
G36*
G01*
X72000000Y-155756250D02*
X72000000Y-154843750D01*
G75*
G02*
X72243750Y-154600000I243750J0D01*
G01*
X72731250Y-154600000D01*
G75*
G02*
X72975000Y-154843750I0J-243750D01*
G01*
X72975000Y-155756250D01*
G75*
G02*
X72731250Y-156000000I-243750J0D01*
G01*
X72243750Y-156000000D01*
G75*
G02*
X72000000Y-155756250I0J243750D01*
G01*
G37*
G36*
G01*
X70125000Y-155756250D02*
X70125000Y-154843750D01*
G75*
G02*
X70368750Y-154600000I243750J0D01*
G01*
X70856250Y-154600000D01*
G75*
G02*
X71100000Y-154843750I0J-243750D01*
G01*
X71100000Y-155756250D01*
G75*
G02*
X70856250Y-156000000I-243750J0D01*
G01*
X70368750Y-156000000D01*
G75*
G02*
X70125000Y-155756250I0J243750D01*
G01*
G37*
%TD*%
%TO.C,R17*%
G36*
G01*
X72000000Y-157806250D02*
X72000000Y-156893750D01*
G75*
G02*
X72243750Y-156650000I243750J0D01*
G01*
X72731250Y-156650000D01*
G75*
G02*
X72975000Y-156893750I0J-243750D01*
G01*
X72975000Y-157806250D01*
G75*
G02*
X72731250Y-158050000I-243750J0D01*
G01*
X72243750Y-158050000D01*
G75*
G02*
X72000000Y-157806250I0J243750D01*
G01*
G37*
G36*
G01*
X70125000Y-157806250D02*
X70125000Y-156893750D01*
G75*
G02*
X70368750Y-156650000I243750J0D01*
G01*
X70856250Y-156650000D01*
G75*
G02*
X71100000Y-156893750I0J-243750D01*
G01*
X71100000Y-157806250D01*
G75*
G02*
X70856250Y-158050000I-243750J0D01*
G01*
X70368750Y-158050000D01*
G75*
G02*
X70125000Y-157806250I0J243750D01*
G01*
G37*
%TD*%
%TO.C,R16*%
G36*
G01*
X72000000Y-159856250D02*
X72000000Y-158943750D01*
G75*
G02*
X72243750Y-158700000I243750J0D01*
G01*
X72731250Y-158700000D01*
G75*
G02*
X72975000Y-158943750I0J-243750D01*
G01*
X72975000Y-159856250D01*
G75*
G02*
X72731250Y-160100000I-243750J0D01*
G01*
X72243750Y-160100000D01*
G75*
G02*
X72000000Y-159856250I0J243750D01*
G01*
G37*
G36*
G01*
X70125000Y-159856250D02*
X70125000Y-158943750D01*
G75*
G02*
X70368750Y-158700000I243750J0D01*
G01*
X70856250Y-158700000D01*
G75*
G02*
X71100000Y-158943750I0J-243750D01*
G01*
X71100000Y-159856250D01*
G75*
G02*
X70856250Y-160100000I-243750J0D01*
G01*
X70368750Y-160100000D01*
G75*
G02*
X70125000Y-159856250I0J243750D01*
G01*
G37*
%TD*%
%TO.C,R15*%
G36*
G01*
X72000000Y-161906250D02*
X72000000Y-160993750D01*
G75*
G02*
X72243750Y-160750000I243750J0D01*
G01*
X72731250Y-160750000D01*
G75*
G02*
X72975000Y-160993750I0J-243750D01*
G01*
X72975000Y-161906250D01*
G75*
G02*
X72731250Y-162150000I-243750J0D01*
G01*
X72243750Y-162150000D01*
G75*
G02*
X72000000Y-161906250I0J243750D01*
G01*
G37*
G36*
G01*
X70125000Y-161906250D02*
X70125000Y-160993750D01*
G75*
G02*
X70368750Y-160750000I243750J0D01*
G01*
X70856250Y-160750000D01*
G75*
G02*
X71100000Y-160993750I0J-243750D01*
G01*
X71100000Y-161906250D01*
G75*
G02*
X70856250Y-162150000I-243750J0D01*
G01*
X70368750Y-162150000D01*
G75*
G02*
X70125000Y-161906250I0J243750D01*
G01*
G37*
%TD*%
%TO.C,R14*%
G36*
G01*
X38050000Y-168956250D02*
X38050000Y-168043750D01*
G75*
G02*
X38293750Y-167800000I243750J0D01*
G01*
X38781250Y-167800000D01*
G75*
G02*
X39025000Y-168043750I0J-243750D01*
G01*
X39025000Y-168956250D01*
G75*
G02*
X38781250Y-169200000I-243750J0D01*
G01*
X38293750Y-169200000D01*
G75*
G02*
X38050000Y-168956250I0J243750D01*
G01*
G37*
G36*
G01*
X36175000Y-168956250D02*
X36175000Y-168043750D01*
G75*
G02*
X36418750Y-167800000I243750J0D01*
G01*
X36906250Y-167800000D01*
G75*
G02*
X37150000Y-168043750I0J-243750D01*
G01*
X37150000Y-168956250D01*
G75*
G02*
X36906250Y-169200000I-243750J0D01*
G01*
X36418750Y-169200000D01*
G75*
G02*
X36175000Y-168956250I0J243750D01*
G01*
G37*
%TD*%
%TO.C,R13*%
G36*
G01*
X37150000Y-165943750D02*
X37150000Y-166856250D01*
G75*
G02*
X36906250Y-167100000I-243750J0D01*
G01*
X36418750Y-167100000D01*
G75*
G02*
X36175000Y-166856250I0J243750D01*
G01*
X36175000Y-165943750D01*
G75*
G02*
X36418750Y-165700000I243750J0D01*
G01*
X36906250Y-165700000D01*
G75*
G02*
X37150000Y-165943750I0J-243750D01*
G01*
G37*
G36*
G01*
X39025000Y-165943750D02*
X39025000Y-166856250D01*
G75*
G02*
X38781250Y-167100000I-243750J0D01*
G01*
X38293750Y-167100000D01*
G75*
G02*
X38050000Y-166856250I0J243750D01*
G01*
X38050000Y-165943750D01*
G75*
G02*
X38293750Y-165700000I243750J0D01*
G01*
X38781250Y-165700000D01*
G75*
G02*
X39025000Y-165943750I0J-243750D01*
G01*
G37*
%TD*%
%TO.C,R12*%
G36*
G01*
X38050000Y-179556250D02*
X38050000Y-178643750D01*
G75*
G02*
X38293750Y-178400000I243750J0D01*
G01*
X38781250Y-178400000D01*
G75*
G02*
X39025000Y-178643750I0J-243750D01*
G01*
X39025000Y-179556250D01*
G75*
G02*
X38781250Y-179800000I-243750J0D01*
G01*
X38293750Y-179800000D01*
G75*
G02*
X38050000Y-179556250I0J243750D01*
G01*
G37*
G36*
G01*
X36175000Y-179556250D02*
X36175000Y-178643750D01*
G75*
G02*
X36418750Y-178400000I243750J0D01*
G01*
X36906250Y-178400000D01*
G75*
G02*
X37150000Y-178643750I0J-243750D01*
G01*
X37150000Y-179556250D01*
G75*
G02*
X36906250Y-179800000I-243750J0D01*
G01*
X36418750Y-179800000D01*
G75*
G02*
X36175000Y-179556250I0J243750D01*
G01*
G37*
%TD*%
%TO.C,R11*%
G36*
G01*
X37150000Y-176643750D02*
X37150000Y-177556250D01*
G75*
G02*
X36906250Y-177800000I-243750J0D01*
G01*
X36418750Y-177800000D01*
G75*
G02*
X36175000Y-177556250I0J243750D01*
G01*
X36175000Y-176643750D01*
G75*
G02*
X36418750Y-176400000I243750J0D01*
G01*
X36906250Y-176400000D01*
G75*
G02*
X37150000Y-176643750I0J-243750D01*
G01*
G37*
G36*
G01*
X39025000Y-176643750D02*
X39025000Y-177556250D01*
G75*
G02*
X38781250Y-177800000I-243750J0D01*
G01*
X38293750Y-177800000D01*
G75*
G02*
X38050000Y-177556250I0J243750D01*
G01*
X38050000Y-176643750D01*
G75*
G02*
X38293750Y-176400000I243750J0D01*
G01*
X38781250Y-176400000D01*
G75*
G02*
X39025000Y-176643750I0J-243750D01*
G01*
G37*
%TD*%
%TO.C,R10*%
G36*
G01*
X47850000Y-176356250D02*
X47850000Y-175443750D01*
G75*
G02*
X48093750Y-175200000I243750J0D01*
G01*
X48581250Y-175200000D01*
G75*
G02*
X48825000Y-175443750I0J-243750D01*
G01*
X48825000Y-176356250D01*
G75*
G02*
X48581250Y-176600000I-243750J0D01*
G01*
X48093750Y-176600000D01*
G75*
G02*
X47850000Y-176356250I0J243750D01*
G01*
G37*
G36*
G01*
X45975000Y-176356250D02*
X45975000Y-175443750D01*
G75*
G02*
X46218750Y-175200000I243750J0D01*
G01*
X46706250Y-175200000D01*
G75*
G02*
X46950000Y-175443750I0J-243750D01*
G01*
X46950000Y-176356250D01*
G75*
G02*
X46706250Y-176600000I-243750J0D01*
G01*
X46218750Y-176600000D01*
G75*
G02*
X45975000Y-176356250I0J243750D01*
G01*
G37*
%TD*%
%TO.C,R9*%
G36*
G01*
X47850000Y-174332250D02*
X47850000Y-173419750D01*
G75*
G02*
X48093750Y-173176000I243750J0D01*
G01*
X48581250Y-173176000D01*
G75*
G02*
X48825000Y-173419750I0J-243750D01*
G01*
X48825000Y-174332250D01*
G75*
G02*
X48581250Y-174576000I-243750J0D01*
G01*
X48093750Y-174576000D01*
G75*
G02*
X47850000Y-174332250I0J243750D01*
G01*
G37*
G36*
G01*
X45975000Y-174332250D02*
X45975000Y-173419750D01*
G75*
G02*
X46218750Y-173176000I243750J0D01*
G01*
X46706250Y-173176000D01*
G75*
G02*
X46950000Y-173419750I0J-243750D01*
G01*
X46950000Y-174332250D01*
G75*
G02*
X46706250Y-174576000I-243750J0D01*
G01*
X46218750Y-174576000D01*
G75*
G02*
X45975000Y-174332250I0J243750D01*
G01*
G37*
%TD*%
%TO.C,R8*%
G36*
G01*
X71200000Y-140793750D02*
X71200000Y-141706250D01*
G75*
G02*
X70956250Y-141950000I-243750J0D01*
G01*
X70468750Y-141950000D01*
G75*
G02*
X70225000Y-141706250I0J243750D01*
G01*
X70225000Y-140793750D01*
G75*
G02*
X70468750Y-140550000I243750J0D01*
G01*
X70956250Y-140550000D01*
G75*
G02*
X71200000Y-140793750I0J-243750D01*
G01*
G37*
G36*
G01*
X73075000Y-140793750D02*
X73075000Y-141706250D01*
G75*
G02*
X72831250Y-141950000I-243750J0D01*
G01*
X72343750Y-141950000D01*
G75*
G02*
X72100000Y-141706250I0J243750D01*
G01*
X72100000Y-140793750D01*
G75*
G02*
X72343750Y-140550000I243750J0D01*
G01*
X72831250Y-140550000D01*
G75*
G02*
X73075000Y-140793750I0J-243750D01*
G01*
G37*
%TD*%
%TO.C,R7*%
G36*
G01*
X72100000Y-145706250D02*
X72100000Y-144793750D01*
G75*
G02*
X72343750Y-144550000I243750J0D01*
G01*
X72831250Y-144550000D01*
G75*
G02*
X73075000Y-144793750I0J-243750D01*
G01*
X73075000Y-145706250D01*
G75*
G02*
X72831250Y-145950000I-243750J0D01*
G01*
X72343750Y-145950000D01*
G75*
G02*
X72100000Y-145706250I0J243750D01*
G01*
G37*
G36*
G01*
X70225000Y-145706250D02*
X70225000Y-144793750D01*
G75*
G02*
X70468750Y-144550000I243750J0D01*
G01*
X70956250Y-144550000D01*
G75*
G02*
X71200000Y-144793750I0J-243750D01*
G01*
X71200000Y-145706250D01*
G75*
G02*
X70956250Y-145950000I-243750J0D01*
G01*
X70468750Y-145950000D01*
G75*
G02*
X70225000Y-145706250I0J243750D01*
G01*
G37*
%TD*%
%TO.C,R6*%
G36*
G01*
X71200000Y-142793750D02*
X71200000Y-143706250D01*
G75*
G02*
X70956250Y-143950000I-243750J0D01*
G01*
X70468750Y-143950000D01*
G75*
G02*
X70225000Y-143706250I0J243750D01*
G01*
X70225000Y-142793750D01*
G75*
G02*
X70468750Y-142550000I243750J0D01*
G01*
X70956250Y-142550000D01*
G75*
G02*
X71200000Y-142793750I0J-243750D01*
G01*
G37*
G36*
G01*
X73075000Y-142793750D02*
X73075000Y-143706250D01*
G75*
G02*
X72831250Y-143950000I-243750J0D01*
G01*
X72343750Y-143950000D01*
G75*
G02*
X72100000Y-143706250I0J243750D01*
G01*
X72100000Y-142793750D01*
G75*
G02*
X72343750Y-142550000I243750J0D01*
G01*
X72831250Y-142550000D01*
G75*
G02*
X73075000Y-142793750I0J-243750D01*
G01*
G37*
%TD*%
%TO.C,R5*%
G36*
G01*
X54720000Y-141706250D02*
X54720000Y-140793750D01*
G75*
G02*
X54963750Y-140550000I243750J0D01*
G01*
X55451250Y-140550000D01*
G75*
G02*
X55695000Y-140793750I0J-243750D01*
G01*
X55695000Y-141706250D01*
G75*
G02*
X55451250Y-141950000I-243750J0D01*
G01*
X54963750Y-141950000D01*
G75*
G02*
X54720000Y-141706250I0J243750D01*
G01*
G37*
G36*
G01*
X52845000Y-141706250D02*
X52845000Y-140793750D01*
G75*
G02*
X53088750Y-140550000I243750J0D01*
G01*
X53576250Y-140550000D01*
G75*
G02*
X53820000Y-140793750I0J-243750D01*
G01*
X53820000Y-141706250D01*
G75*
G02*
X53576250Y-141950000I-243750J0D01*
G01*
X53088750Y-141950000D01*
G75*
G02*
X52845000Y-141706250I0J243750D01*
G01*
G37*
%TD*%
%TO.C,R4*%
G36*
G01*
X53820000Y-144793750D02*
X53820000Y-145706250D01*
G75*
G02*
X53576250Y-145950000I-243750J0D01*
G01*
X53088750Y-145950000D01*
G75*
G02*
X52845000Y-145706250I0J243750D01*
G01*
X52845000Y-144793750D01*
G75*
G02*
X53088750Y-144550000I243750J0D01*
G01*
X53576250Y-144550000D01*
G75*
G02*
X53820000Y-144793750I0J-243750D01*
G01*
G37*
G36*
G01*
X55695000Y-144793750D02*
X55695000Y-145706250D01*
G75*
G02*
X55451250Y-145950000I-243750J0D01*
G01*
X54963750Y-145950000D01*
G75*
G02*
X54720000Y-145706250I0J243750D01*
G01*
X54720000Y-144793750D01*
G75*
G02*
X54963750Y-144550000I243750J0D01*
G01*
X55451250Y-144550000D01*
G75*
G02*
X55695000Y-144793750I0J-243750D01*
G01*
G37*
%TD*%
%TO.C,R3*%
G36*
G01*
X54720000Y-143706250D02*
X54720000Y-142793750D01*
G75*
G02*
X54963750Y-142550000I243750J0D01*
G01*
X55451250Y-142550000D01*
G75*
G02*
X55695000Y-142793750I0J-243750D01*
G01*
X55695000Y-143706250D01*
G75*
G02*
X55451250Y-143950000I-243750J0D01*
G01*
X54963750Y-143950000D01*
G75*
G02*
X54720000Y-143706250I0J243750D01*
G01*
G37*
G36*
G01*
X52845000Y-143706250D02*
X52845000Y-142793750D01*
G75*
G02*
X53088750Y-142550000I243750J0D01*
G01*
X53576250Y-142550000D01*
G75*
G02*
X53820000Y-142793750I0J-243750D01*
G01*
X53820000Y-143706250D01*
G75*
G02*
X53576250Y-143950000I-243750J0D01*
G01*
X53088750Y-143950000D01*
G75*
G02*
X52845000Y-143706250I0J243750D01*
G01*
G37*
%TD*%
%TO.C,R2*%
G36*
G01*
X47850000Y-168080250D02*
X47850000Y-167167750D01*
G75*
G02*
X48093750Y-166924000I243750J0D01*
G01*
X48581250Y-166924000D01*
G75*
G02*
X48825000Y-167167750I0J-243750D01*
G01*
X48825000Y-168080250D01*
G75*
G02*
X48581250Y-168324000I-243750J0D01*
G01*
X48093750Y-168324000D01*
G75*
G02*
X47850000Y-168080250I0J243750D01*
G01*
G37*
G36*
G01*
X45975000Y-168080250D02*
X45975000Y-167167750D01*
G75*
G02*
X46218750Y-166924000I243750J0D01*
G01*
X46706250Y-166924000D01*
G75*
G02*
X46950000Y-167167750I0J-243750D01*
G01*
X46950000Y-168080250D01*
G75*
G02*
X46706250Y-168324000I-243750J0D01*
G01*
X46218750Y-168324000D01*
G75*
G02*
X45975000Y-168080250I0J243750D01*
G01*
G37*
%TD*%
%TO.C,R1*%
G36*
G01*
X29750000Y-103143750D02*
X29750000Y-104056250D01*
G75*
G02*
X29506250Y-104300000I-243750J0D01*
G01*
X29018750Y-104300000D01*
G75*
G02*
X28775000Y-104056250I0J243750D01*
G01*
X28775000Y-103143750D01*
G75*
G02*
X29018750Y-102900000I243750J0D01*
G01*
X29506250Y-102900000D01*
G75*
G02*
X29750000Y-103143750I0J-243750D01*
G01*
G37*
G36*
G01*
X31625000Y-103143750D02*
X31625000Y-104056250D01*
G75*
G02*
X31381250Y-104300000I-243750J0D01*
G01*
X30893750Y-104300000D01*
G75*
G02*
X30650000Y-104056250I0J243750D01*
G01*
X30650000Y-103143750D01*
G75*
G02*
X30893750Y-102900000I243750J0D01*
G01*
X31381250Y-102900000D01*
G75*
G02*
X31625000Y-103143750I0J-243750D01*
G01*
G37*
%TD*%
D16*
%TO.C,Q2*%
X71650000Y-136750000D03*
X72600000Y-138750000D03*
X70700000Y-138750000D03*
%TD*%
%TO.C,Q1*%
X54270000Y-136750000D03*
X55220000Y-138750000D03*
X53320000Y-138750000D03*
%TD*%
%TO.C,F1*%
G36*
G01*
X28025000Y-106875000D02*
X28025000Y-105625000D01*
G75*
G02*
X28275000Y-105375000I250000J0D01*
G01*
X29025000Y-105375000D01*
G75*
G02*
X29275000Y-105625000I0J-250000D01*
G01*
X29275000Y-106875000D01*
G75*
G02*
X29025000Y-107125000I-250000J0D01*
G01*
X28275000Y-107125000D01*
G75*
G02*
X28025000Y-106875000I0J250000D01*
G01*
G37*
G36*
G01*
X25225000Y-106875000D02*
X25225000Y-105625000D01*
G75*
G02*
X25475000Y-105375000I250000J0D01*
G01*
X26225000Y-105375000D01*
G75*
G02*
X26475000Y-105625000I0J-250000D01*
G01*
X26475000Y-106875000D01*
G75*
G02*
X26225000Y-107125000I-250000J0D01*
G01*
X25475000Y-107125000D01*
G75*
G02*
X25225000Y-106875000I0J250000D01*
G01*
G37*
%TD*%
D17*
%TO.C,D16*%
X96600000Y-171200000D03*
G36*
G01*
X97400000Y-177000000D02*
X95800000Y-177000000D01*
G75*
G02*
X95200000Y-176400000I0J600000D01*
G01*
X95200000Y-175200000D01*
G75*
G02*
X95800000Y-174600000I600000J0D01*
G01*
X97400000Y-174600000D01*
G75*
G02*
X98000000Y-175200000I0J-600000D01*
G01*
X98000000Y-176400000D01*
G75*
G02*
X97400000Y-177000000I-600000J0D01*
G01*
G37*
%TD*%
%TO.C,D15*%
X82500000Y-171200000D03*
G36*
G01*
X83300000Y-177000000D02*
X81700000Y-177000000D01*
G75*
G02*
X81100000Y-176400000I0J600000D01*
G01*
X81100000Y-175200000D01*
G75*
G02*
X81700000Y-174600000I600000J0D01*
G01*
X83300000Y-174600000D01*
G75*
G02*
X83900000Y-175200000I0J-600000D01*
G01*
X83900000Y-176400000D01*
G75*
G02*
X83300000Y-177000000I-600000J0D01*
G01*
G37*
%TD*%
%TO.C,D14*%
X82500000Y-140600000D03*
G36*
G01*
X81700000Y-134800000D02*
X83300000Y-134800000D01*
G75*
G02*
X83900000Y-135400000I0J-600000D01*
G01*
X83900000Y-136600000D01*
G75*
G02*
X83300000Y-137200000I-600000J0D01*
G01*
X81700000Y-137200000D01*
G75*
G02*
X81100000Y-136600000I0J600000D01*
G01*
X81100000Y-135400000D01*
G75*
G02*
X81700000Y-134800000I600000J0D01*
G01*
G37*
%TD*%
%TO.C,D13*%
X96600000Y-140610000D03*
G36*
G01*
X95800000Y-134810000D02*
X97400000Y-134810000D01*
G75*
G02*
X98000000Y-135410000I0J-600000D01*
G01*
X98000000Y-136610000D01*
G75*
G02*
X97400000Y-137210000I-600000J0D01*
G01*
X95800000Y-137210000D01*
G75*
G02*
X95200000Y-136610000I0J600000D01*
G01*
X95200000Y-135410000D01*
G75*
G02*
X95800000Y-134810000I600000J0D01*
G01*
G37*
%TD*%
%TO.C,D12*%
X91900000Y-175930000D03*
G36*
G01*
X91100000Y-170130000D02*
X92700000Y-170130000D01*
G75*
G02*
X93300000Y-170730000I0J-600000D01*
G01*
X93300000Y-171930000D01*
G75*
G02*
X92700000Y-172530000I-600000J0D01*
G01*
X91100000Y-172530000D01*
G75*
G02*
X90500000Y-171930000I0J600000D01*
G01*
X90500000Y-170730000D01*
G75*
G02*
X91100000Y-170130000I600000J0D01*
G01*
G37*
%TD*%
%TO.C,D11*%
X87200000Y-175930000D03*
G36*
G01*
X86400000Y-170130000D02*
X88000000Y-170130000D01*
G75*
G02*
X88600000Y-170730000I0J-600000D01*
G01*
X88600000Y-171930000D01*
G75*
G02*
X88000000Y-172530000I-600000J0D01*
G01*
X86400000Y-172530000D01*
G75*
G02*
X85800000Y-171930000I0J600000D01*
G01*
X85800000Y-170730000D01*
G75*
G02*
X86400000Y-170130000I600000J0D01*
G01*
G37*
%TD*%
%TO.C,D10*%
X87200000Y-135870000D03*
G36*
G01*
X88000000Y-141670000D02*
X86400000Y-141670000D01*
G75*
G02*
X85800000Y-141070000I0J600000D01*
G01*
X85800000Y-139870000D01*
G75*
G02*
X86400000Y-139270000I600000J0D01*
G01*
X88000000Y-139270000D01*
G75*
G02*
X88600000Y-139870000I0J-600000D01*
G01*
X88600000Y-141070000D01*
G75*
G02*
X88000000Y-141670000I-600000J0D01*
G01*
G37*
%TD*%
%TO.C,D9*%
X91900000Y-135870000D03*
G36*
G01*
X92700000Y-141670000D02*
X91100000Y-141670000D01*
G75*
G02*
X90500000Y-141070000I0J600000D01*
G01*
X90500000Y-139870000D01*
G75*
G02*
X91100000Y-139270000I600000J0D01*
G01*
X92700000Y-139270000D01*
G75*
G02*
X93300000Y-139870000I0J-600000D01*
G01*
X93300000Y-141070000D01*
G75*
G02*
X92700000Y-141670000I-600000J0D01*
G01*
G37*
%TD*%
%TO.C,D8*%
G36*
G01*
X47870000Y-172263250D02*
X47870000Y-171350750D01*
G75*
G02*
X48113750Y-171107000I243750J0D01*
G01*
X48601250Y-171107000D01*
G75*
G02*
X48845000Y-171350750I0J-243750D01*
G01*
X48845000Y-172263250D01*
G75*
G02*
X48601250Y-172507000I-243750J0D01*
G01*
X48113750Y-172507000D01*
G75*
G02*
X47870000Y-172263250I0J243750D01*
G01*
G37*
G36*
G01*
X45995000Y-172263250D02*
X45995000Y-171350750D01*
G75*
G02*
X46238750Y-171107000I243750J0D01*
G01*
X46726250Y-171107000D01*
G75*
G02*
X46970000Y-171350750I0J-243750D01*
G01*
X46970000Y-172263250D01*
G75*
G02*
X46726250Y-172507000I-243750J0D01*
G01*
X46238750Y-172507000D01*
G75*
G02*
X45995000Y-172263250I0J243750D01*
G01*
G37*
%TD*%
%TO.C,D7*%
G36*
G01*
X72120000Y-147706250D02*
X72120000Y-146793750D01*
G75*
G02*
X72363750Y-146550000I243750J0D01*
G01*
X72851250Y-146550000D01*
G75*
G02*
X73095000Y-146793750I0J-243750D01*
G01*
X73095000Y-147706250D01*
G75*
G02*
X72851250Y-147950000I-243750J0D01*
G01*
X72363750Y-147950000D01*
G75*
G02*
X72120000Y-147706250I0J243750D01*
G01*
G37*
G36*
G01*
X70245000Y-147706250D02*
X70245000Y-146793750D01*
G75*
G02*
X70488750Y-146550000I243750J0D01*
G01*
X70976250Y-146550000D01*
G75*
G02*
X71220000Y-146793750I0J-243750D01*
G01*
X71220000Y-147706250D01*
G75*
G02*
X70976250Y-147950000I-243750J0D01*
G01*
X70488750Y-147950000D01*
G75*
G02*
X70245000Y-147706250I0J243750D01*
G01*
G37*
%TD*%
%TO.C,D6*%
G36*
G01*
X53800000Y-146793750D02*
X53800000Y-147706250D01*
G75*
G02*
X53556250Y-147950000I-243750J0D01*
G01*
X53068750Y-147950000D01*
G75*
G02*
X52825000Y-147706250I0J243750D01*
G01*
X52825000Y-146793750D01*
G75*
G02*
X53068750Y-146550000I243750J0D01*
G01*
X53556250Y-146550000D01*
G75*
G02*
X53800000Y-146793750I0J-243750D01*
G01*
G37*
G36*
G01*
X55675000Y-146793750D02*
X55675000Y-147706250D01*
G75*
G02*
X55431250Y-147950000I-243750J0D01*
G01*
X54943750Y-147950000D01*
G75*
G02*
X54700000Y-147706250I0J243750D01*
G01*
X54700000Y-146793750D01*
G75*
G02*
X54943750Y-146550000I243750J0D01*
G01*
X55431250Y-146550000D01*
G75*
G02*
X55675000Y-146793750I0J-243750D01*
G01*
G37*
%TD*%
%TO.C,D5*%
X65500000Y-135880000D03*
G36*
G01*
X66300000Y-141680000D02*
X64700000Y-141680000D01*
G75*
G02*
X64100000Y-141080000I0J600000D01*
G01*
X64100000Y-139880000D01*
G75*
G02*
X64700000Y-139280000I600000J0D01*
G01*
X66300000Y-139280000D01*
G75*
G02*
X66900000Y-139880000I0J-600000D01*
G01*
X66900000Y-141080000D01*
G75*
G02*
X66300000Y-141680000I-600000J0D01*
G01*
G37*
%TD*%
%TO.C,D4*%
X60500000Y-135880000D03*
G36*
G01*
X61300000Y-141680000D02*
X59700000Y-141680000D01*
G75*
G02*
X59100000Y-141080000I0J600000D01*
G01*
X59100000Y-139880000D01*
G75*
G02*
X59700000Y-139280000I600000J0D01*
G01*
X61300000Y-139280000D01*
G75*
G02*
X61900000Y-139880000I0J-600000D01*
G01*
X61900000Y-141080000D01*
G75*
G02*
X61300000Y-141680000I-600000J0D01*
G01*
G37*
%TD*%
%TO.C,D3*%
G36*
G01*
X47870000Y-170149250D02*
X47870000Y-169236750D01*
G75*
G02*
X48113750Y-168993000I243750J0D01*
G01*
X48601250Y-168993000D01*
G75*
G02*
X48845000Y-169236750I0J-243750D01*
G01*
X48845000Y-170149250D01*
G75*
G02*
X48601250Y-170393000I-243750J0D01*
G01*
X48113750Y-170393000D01*
G75*
G02*
X47870000Y-170149250I0J243750D01*
G01*
G37*
G36*
G01*
X45995000Y-170149250D02*
X45995000Y-169236750D01*
G75*
G02*
X46238750Y-168993000I243750J0D01*
G01*
X46726250Y-168993000D01*
G75*
G02*
X46970000Y-169236750I0J-243750D01*
G01*
X46970000Y-170149250D01*
G75*
G02*
X46726250Y-170393000I-243750J0D01*
G01*
X46238750Y-170393000D01*
G75*
G02*
X45995000Y-170149250I0J243750D01*
G01*
G37*
%TD*%
%TO.C,D2*%
G36*
G01*
X27150000Y-104056250D02*
X27150000Y-103143750D01*
G75*
G02*
X27393750Y-102900000I243750J0D01*
G01*
X27881250Y-102900000D01*
G75*
G02*
X28125000Y-103143750I0J-243750D01*
G01*
X28125000Y-104056250D01*
G75*
G02*
X27881250Y-104300000I-243750J0D01*
G01*
X27393750Y-104300000D01*
G75*
G02*
X27150000Y-104056250I0J243750D01*
G01*
G37*
G36*
G01*
X25275000Y-104056250D02*
X25275000Y-103143750D01*
G75*
G02*
X25518750Y-102900000I243750J0D01*
G01*
X26006250Y-102900000D01*
G75*
G02*
X26250000Y-103143750I0J-243750D01*
G01*
X26250000Y-104056250D01*
G75*
G02*
X26006250Y-104300000I-243750J0D01*
G01*
X25518750Y-104300000D01*
G75*
G02*
X25275000Y-104056250I0J243750D01*
G01*
G37*
%TD*%
D18*
%TO.C,D1*%
X31220000Y-110000000D03*
G36*
G01*
X25420000Y-110800000D02*
X25420000Y-109200000D01*
G75*
G02*
X26020000Y-108600000I600000J0D01*
G01*
X27220000Y-108600000D01*
G75*
G02*
X27820000Y-109200000I0J-600000D01*
G01*
X27820000Y-110800000D01*
G75*
G02*
X27220000Y-111400000I-600000J0D01*
G01*
X26020000Y-111400000D01*
G75*
G02*
X25420000Y-110800000I0J600000D01*
G01*
G37*
%TD*%
%TO.C,C12*%
G36*
G01*
X38100000Y-163350000D02*
X38100000Y-162250000D01*
G75*
G02*
X38350000Y-162000000I250000J0D01*
G01*
X40450000Y-162000000D01*
G75*
G02*
X40700000Y-162250000I0J-250000D01*
G01*
X40700000Y-163350000D01*
G75*
G02*
X40450000Y-163600000I-250000J0D01*
G01*
X38350000Y-163600000D01*
G75*
G02*
X38100000Y-163350000I0J250000D01*
G01*
G37*
G36*
G01*
X34500000Y-163350000D02*
X34500000Y-162250000D01*
G75*
G02*
X34750000Y-162000000I250000J0D01*
G01*
X36850000Y-162000000D01*
G75*
G02*
X37100000Y-162250000I0J-250000D01*
G01*
X37100000Y-163350000D01*
G75*
G02*
X36850000Y-163600000I-250000J0D01*
G01*
X34750000Y-163600000D01*
G75*
G02*
X34500000Y-163350000I0J250000D01*
G01*
G37*
%TD*%
%TO.C,C11*%
G36*
G01*
X38100000Y-174050000D02*
X38100000Y-172950000D01*
G75*
G02*
X38350000Y-172700000I250000J0D01*
G01*
X40450000Y-172700000D01*
G75*
G02*
X40700000Y-172950000I0J-250000D01*
G01*
X40700000Y-174050000D01*
G75*
G02*
X40450000Y-174300000I-250000J0D01*
G01*
X38350000Y-174300000D01*
G75*
G02*
X38100000Y-174050000I0J250000D01*
G01*
G37*
G36*
G01*
X34500000Y-174050000D02*
X34500000Y-172950000D01*
G75*
G02*
X34750000Y-172700000I250000J0D01*
G01*
X36850000Y-172700000D01*
G75*
G02*
X37100000Y-172950000I0J-250000D01*
G01*
X37100000Y-174050000D01*
G75*
G02*
X36850000Y-174300000I-250000J0D01*
G01*
X34750000Y-174300000D01*
G75*
G02*
X34500000Y-174050000I0J250000D01*
G01*
G37*
%TD*%
%TO.C,C10*%
G36*
G01*
X51456250Y-152850000D02*
X50943750Y-152850000D01*
G75*
G02*
X50725000Y-152631250I0J218750D01*
G01*
X50725000Y-152193750D01*
G75*
G02*
X50943750Y-151975000I218750J0D01*
G01*
X51456250Y-151975000D01*
G75*
G02*
X51675000Y-152193750I0J-218750D01*
G01*
X51675000Y-152631250D01*
G75*
G02*
X51456250Y-152850000I-218750J0D01*
G01*
G37*
G36*
G01*
X51456250Y-154425000D02*
X50943750Y-154425000D01*
G75*
G02*
X50725000Y-154206250I0J218750D01*
G01*
X50725000Y-153768750D01*
G75*
G02*
X50943750Y-153550000I218750J0D01*
G01*
X51456250Y-153550000D01*
G75*
G02*
X51675000Y-153768750I0J-218750D01*
G01*
X51675000Y-154206250D01*
G75*
G02*
X51456250Y-154425000I-218750J0D01*
G01*
G37*
%TD*%
%TO.C,C9*%
G36*
G01*
X56943750Y-153550000D02*
X57456250Y-153550000D01*
G75*
G02*
X57675000Y-153768750I0J-218750D01*
G01*
X57675000Y-154206250D01*
G75*
G02*
X57456250Y-154425000I-218750J0D01*
G01*
X56943750Y-154425000D01*
G75*
G02*
X56725000Y-154206250I0J218750D01*
G01*
X56725000Y-153768750D01*
G75*
G02*
X56943750Y-153550000I218750J0D01*
G01*
G37*
G36*
G01*
X56943750Y-151975000D02*
X57456250Y-151975000D01*
G75*
G02*
X57675000Y-152193750I0J-218750D01*
G01*
X57675000Y-152631250D01*
G75*
G02*
X57456250Y-152850000I-218750J0D01*
G01*
X56943750Y-152850000D01*
G75*
G02*
X56725000Y-152631250I0J218750D01*
G01*
X56725000Y-152193750D01*
G75*
G02*
X56943750Y-151975000I218750J0D01*
G01*
G37*
%TD*%
%TO.C,C5*%
G36*
G01*
X60140000Y-168122500D02*
X60140000Y-167777500D01*
G75*
G02*
X60287500Y-167630000I147500J0D01*
G01*
X60582500Y-167630000D01*
G75*
G02*
X60730000Y-167777500I0J-147500D01*
G01*
X60730000Y-168122500D01*
G75*
G02*
X60582500Y-168270000I-147500J0D01*
G01*
X60287500Y-168270000D01*
G75*
G02*
X60140000Y-168122500I0J147500D01*
G01*
G37*
G36*
G01*
X59170000Y-168122500D02*
X59170000Y-167777500D01*
G75*
G02*
X59317500Y-167630000I147500J0D01*
G01*
X59612500Y-167630000D01*
G75*
G02*
X59760000Y-167777500I0J-147500D01*
G01*
X59760000Y-168122500D01*
G75*
G02*
X59612500Y-168270000I-147500J0D01*
G01*
X59317500Y-168270000D01*
G75*
G02*
X59170000Y-168122500I0J147500D01*
G01*
G37*
%TD*%
%TO.C,C4*%
G36*
G01*
X29450000Y-147456250D02*
X29450000Y-146543750D01*
G75*
G02*
X29693750Y-146300000I243750J0D01*
G01*
X30181250Y-146300000D01*
G75*
G02*
X30425000Y-146543750I0J-243750D01*
G01*
X30425000Y-147456250D01*
G75*
G02*
X30181250Y-147700000I-243750J0D01*
G01*
X29693750Y-147700000D01*
G75*
G02*
X29450000Y-147456250I0J243750D01*
G01*
G37*
G36*
G01*
X27575000Y-147456250D02*
X27575000Y-146543750D01*
G75*
G02*
X27818750Y-146300000I243750J0D01*
G01*
X28306250Y-146300000D01*
G75*
G02*
X28550000Y-146543750I0J-243750D01*
G01*
X28550000Y-147456250D01*
G75*
G02*
X28306250Y-147700000I-243750J0D01*
G01*
X27818750Y-147700000D01*
G75*
G02*
X27575000Y-147456250I0J243750D01*
G01*
G37*
%TD*%
%TO.C,C3*%
G36*
G01*
X29250000Y-142550000D02*
X29250000Y-141450000D01*
G75*
G02*
X29500000Y-141200000I250000J0D01*
G01*
X32500000Y-141200000D01*
G75*
G02*
X32750000Y-141450000I0J-250000D01*
G01*
X32750000Y-142550000D01*
G75*
G02*
X32500000Y-142800000I-250000J0D01*
G01*
X29500000Y-142800000D01*
G75*
G02*
X29250000Y-142550000I0J250000D01*
G01*
G37*
G36*
G01*
X23850000Y-142550000D02*
X23850000Y-141450000D01*
G75*
G02*
X24100000Y-141200000I250000J0D01*
G01*
X27100000Y-141200000D01*
G75*
G02*
X27350000Y-141450000I0J-250000D01*
G01*
X27350000Y-142550000D01*
G75*
G02*
X27100000Y-142800000I-250000J0D01*
G01*
X24100000Y-142800000D01*
G75*
G02*
X23850000Y-142550000I0J250000D01*
G01*
G37*
%TD*%
%TO.C,C2*%
G36*
G01*
X29200000Y-122456250D02*
X29200000Y-121543750D01*
G75*
G02*
X29443750Y-121300000I243750J0D01*
G01*
X29931250Y-121300000D01*
G75*
G02*
X30175000Y-121543750I0J-243750D01*
G01*
X30175000Y-122456250D01*
G75*
G02*
X29931250Y-122700000I-243750J0D01*
G01*
X29443750Y-122700000D01*
G75*
G02*
X29200000Y-122456250I0J243750D01*
G01*
G37*
G36*
G01*
X27325000Y-122456250D02*
X27325000Y-121543750D01*
G75*
G02*
X27568750Y-121300000I243750J0D01*
G01*
X28056250Y-121300000D01*
G75*
G02*
X28300000Y-121543750I0J-243750D01*
G01*
X28300000Y-122456250D01*
G75*
G02*
X28056250Y-122700000I-243750J0D01*
G01*
X27568750Y-122700000D01*
G75*
G02*
X27325000Y-122456250I0J243750D01*
G01*
G37*
%TD*%
%TO.C,C1*%
G36*
G01*
X29250000Y-117550000D02*
X29250000Y-116450000D01*
G75*
G02*
X29500000Y-116200000I250000J0D01*
G01*
X32500000Y-116200000D01*
G75*
G02*
X32750000Y-116450000I0J-250000D01*
G01*
X32750000Y-117550000D01*
G75*
G02*
X32500000Y-117800000I-250000J0D01*
G01*
X29500000Y-117800000D01*
G75*
G02*
X29250000Y-117550000I0J250000D01*
G01*
G37*
G36*
G01*
X23850000Y-117550000D02*
X23850000Y-116450000D01*
G75*
G02*
X24100000Y-116200000I250000J0D01*
G01*
X27100000Y-116200000D01*
G75*
G02*
X27350000Y-116450000I0J-250000D01*
G01*
X27350000Y-117550000D01*
G75*
G02*
X27100000Y-117800000I-250000J0D01*
G01*
X24100000Y-117800000D01*
G75*
G02*
X23850000Y-117550000I0J250000D01*
G01*
G37*
%TD*%
M02*
