%TF.GenerationSoftware,KiCad,Pcbnew,(5.1.6)-1*%
%TF.CreationDate,2022-04-27T14:58:12+09:00*%
%TF.ProjectId,FP-2500 ICHIMASA,46502d32-3530-4302-9049-4348494d4153,rev?*%
%TF.SameCoordinates,Original*%
%TF.FileFunction,Legend,Top*%
%TF.FilePolarity,Positive*%
%FSLAX46Y46*%
G04 Gerber Fmt 4.6, Leading zero omitted, Abs format (unit mm)*
G04 Created by KiCad (PCBNEW (5.1.6)-1) date 2022-04-27 14:58:12*
%MOMM*%
%LPD*%
G01*
G04 APERTURE LIST*
%ADD10C,0.150000*%
%ADD11C,0.200000*%
%ADD12C,0.250000*%
%ADD13C,0.300000*%
%ADD14C,0.120000*%
%ADD15C,0.100000*%
G04 APERTURE END LIST*
D10*
X28019047Y-102771428D02*
X28780952Y-102771428D01*
X28400000Y-103152380D02*
X28400000Y-102390476D01*
X73319047Y-147871428D02*
X74080952Y-147871428D01*
X73700000Y-148252380D02*
X73700000Y-147490476D01*
X51819047Y-147871428D02*
X52580952Y-147871428D01*
X52200000Y-148252380D02*
X52200000Y-147490476D01*
X49019047Y-169171428D02*
X49780952Y-169171428D01*
X49400000Y-169552380D02*
X49400000Y-168790476D01*
X49019047Y-172471428D02*
X49780952Y-172471428D01*
X49400000Y-172852380D02*
X49400000Y-172090476D01*
D11*
X66900000Y-147752380D02*
X66566666Y-147276190D01*
X66328571Y-147752380D02*
X66328571Y-146752380D01*
X66709523Y-146752380D01*
X66804761Y-146800000D01*
X66852380Y-146847619D01*
X66900000Y-146942857D01*
X66900000Y-147085714D01*
X66852380Y-147180952D01*
X66804761Y-147228571D01*
X66709523Y-147276190D01*
X66328571Y-147276190D01*
X67519047Y-147276190D02*
X67519047Y-147752380D01*
X67185714Y-146752380D02*
X67519047Y-147276190D01*
X67852380Y-146752380D01*
X68661904Y-147752380D02*
X68185714Y-147752380D01*
X68185714Y-146752380D01*
X68947619Y-146847619D02*
X68995238Y-146800000D01*
X69090476Y-146752380D01*
X69328571Y-146752380D01*
X69423809Y-146800000D01*
X69471428Y-146847619D01*
X69519047Y-146942857D01*
X69519047Y-147038095D01*
X69471428Y-147180952D01*
X68900000Y-147752380D01*
X69519047Y-147752380D01*
X57000000Y-147752380D02*
X56666666Y-147276190D01*
X56428571Y-147752380D02*
X56428571Y-146752380D01*
X56809523Y-146752380D01*
X56904761Y-146800000D01*
X56952380Y-146847619D01*
X57000000Y-146942857D01*
X57000000Y-147085714D01*
X56952380Y-147180952D01*
X56904761Y-147228571D01*
X56809523Y-147276190D01*
X56428571Y-147276190D01*
X57619047Y-147276190D02*
X57619047Y-147752380D01*
X57285714Y-146752380D02*
X57619047Y-147276190D01*
X57952380Y-146752380D01*
X58761904Y-147752380D02*
X58285714Y-147752380D01*
X58285714Y-146752380D01*
X59619047Y-147752380D02*
X59047619Y-147752380D01*
X59333333Y-147752380D02*
X59333333Y-146752380D01*
X59238095Y-146895238D01*
X59142857Y-146990476D01*
X59047619Y-147038095D01*
D10*
X46680952Y-115852380D02*
X46680952Y-116566666D01*
X46633333Y-116709523D01*
X46538095Y-116804761D01*
X46395238Y-116852380D01*
X46300000Y-116852380D01*
X47633333Y-116852380D02*
X47157142Y-116852380D01*
X47157142Y-115852380D01*
X48538095Y-116757142D02*
X48490476Y-116804761D01*
X48347619Y-116852380D01*
X48252380Y-116852380D01*
X48109523Y-116804761D01*
X48014285Y-116709523D01*
X47966666Y-116614285D01*
X47919047Y-116423809D01*
X47919047Y-116280952D01*
X47966666Y-116090476D01*
X48014285Y-115995238D01*
X48109523Y-115900000D01*
X48252380Y-115852380D01*
X48347619Y-115852380D01*
X48490476Y-115900000D01*
X48538095Y-115947619D01*
X49252380Y-115852380D02*
X49252380Y-116566666D01*
X49204761Y-116709523D01*
X49109523Y-116804761D01*
X48966666Y-116852380D01*
X48871428Y-116852380D01*
X50204761Y-116852380D02*
X49728571Y-116852380D01*
X49728571Y-115852380D01*
X51109523Y-116757142D02*
X51061904Y-116804761D01*
X50919047Y-116852380D01*
X50823809Y-116852380D01*
X50680952Y-116804761D01*
X50585714Y-116709523D01*
X50538095Y-116614285D01*
X50490476Y-116423809D01*
X50490476Y-116280952D01*
X50538095Y-116090476D01*
X50585714Y-115995238D01*
X50680952Y-115900000D01*
X50823809Y-115852380D01*
X50919047Y-115852380D01*
X51061904Y-115900000D01*
X51109523Y-115947619D01*
X51823809Y-115852380D02*
X51823809Y-116566666D01*
X51776190Y-116709523D01*
X51680952Y-116804761D01*
X51538095Y-116852380D01*
X51442857Y-116852380D01*
X52776190Y-116852380D02*
X52300000Y-116852380D01*
X52300000Y-115852380D01*
X53680952Y-116757142D02*
X53633333Y-116804761D01*
X53490476Y-116852380D01*
X53395238Y-116852380D01*
X53252380Y-116804761D01*
X53157142Y-116709523D01*
X53109523Y-116614285D01*
X53061904Y-116423809D01*
X53061904Y-116280952D01*
X53109523Y-116090476D01*
X53157142Y-115995238D01*
X53252380Y-115900000D01*
X53395238Y-115852380D01*
X53490476Y-115852380D01*
X53633333Y-115900000D01*
X53680952Y-115947619D01*
X54395238Y-115852380D02*
X54395238Y-116566666D01*
X54347619Y-116709523D01*
X54252380Y-116804761D01*
X54109523Y-116852380D01*
X54014285Y-116852380D01*
X55347619Y-116852380D02*
X54871428Y-116852380D01*
X54871428Y-115852380D01*
X56252380Y-116757142D02*
X56204761Y-116804761D01*
X56061904Y-116852380D01*
X55966666Y-116852380D01*
X55823809Y-116804761D01*
X55728571Y-116709523D01*
X55680952Y-116614285D01*
X55633333Y-116423809D01*
X55633333Y-116280952D01*
X55680952Y-116090476D01*
X55728571Y-115995238D01*
X55823809Y-115900000D01*
X55966666Y-115852380D01*
X56061904Y-115852380D01*
X56204761Y-115900000D01*
X56252380Y-115947619D01*
D11*
X38380952Y-133452380D02*
X37809523Y-133452380D01*
X38095238Y-133452380D02*
X38095238Y-132452380D01*
X38000000Y-132595238D01*
X37904761Y-132690476D01*
X37809523Y-132738095D01*
X38761904Y-132547619D02*
X38809523Y-132500000D01*
X38904761Y-132452380D01*
X39142857Y-132452380D01*
X39238095Y-132500000D01*
X39285714Y-132547619D01*
X39333333Y-132642857D01*
X39333333Y-132738095D01*
X39285714Y-132880952D01*
X38714285Y-133452380D01*
X39333333Y-133452380D01*
X39619047Y-132452380D02*
X39952380Y-133452380D01*
X40285714Y-132452380D01*
X42809523Y-132452380D02*
X42333333Y-132452380D01*
X42285714Y-132928571D01*
X42333333Y-132880952D01*
X42428571Y-132833333D01*
X42666666Y-132833333D01*
X42761904Y-132880952D01*
X42809523Y-132928571D01*
X42857142Y-133023809D01*
X42857142Y-133261904D01*
X42809523Y-133357142D01*
X42761904Y-133404761D01*
X42666666Y-133452380D01*
X42428571Y-133452380D01*
X42333333Y-133404761D01*
X42285714Y-133357142D01*
X43142857Y-132452380D02*
X43476190Y-133452380D01*
X43809523Y-132452380D01*
X46238095Y-132500000D02*
X46142857Y-132452380D01*
X46000000Y-132452380D01*
X45857142Y-132500000D01*
X45761904Y-132595238D01*
X45714285Y-132690476D01*
X45666666Y-132880952D01*
X45666666Y-133023809D01*
X45714285Y-133214285D01*
X45761904Y-133309523D01*
X45857142Y-133404761D01*
X46000000Y-133452380D01*
X46095238Y-133452380D01*
X46238095Y-133404761D01*
X46285714Y-133357142D01*
X46285714Y-133023809D01*
X46095238Y-133023809D01*
X46714285Y-133452380D02*
X46714285Y-132452380D01*
X47285714Y-133452380D01*
X47285714Y-132452380D01*
X47761904Y-133452380D02*
X47761904Y-132452380D01*
X48000000Y-132452380D01*
X48142857Y-132500000D01*
X48238095Y-132595238D01*
X48285714Y-132690476D01*
X48333333Y-132880952D01*
X48333333Y-133023809D01*
X48285714Y-133214285D01*
X48238095Y-133309523D01*
X48142857Y-133404761D01*
X48000000Y-133452380D01*
X47761904Y-133452380D01*
X25880952Y-101052380D02*
X26071428Y-101052380D01*
X26166666Y-101100000D01*
X26261904Y-101195238D01*
X26309523Y-101385714D01*
X26309523Y-101719047D01*
X26261904Y-101909523D01*
X26166666Y-102004761D01*
X26071428Y-102052380D01*
X25880952Y-102052380D01*
X25785714Y-102004761D01*
X25690476Y-101909523D01*
X25642857Y-101719047D01*
X25642857Y-101385714D01*
X25690476Y-101195238D01*
X25785714Y-101100000D01*
X25880952Y-101052380D01*
X26738095Y-102052380D02*
X26738095Y-101052380D01*
X27309523Y-102052380D01*
X27309523Y-101052380D01*
X42538095Y-172452380D02*
X42538095Y-171452380D01*
X42776190Y-171452380D01*
X42919047Y-171500000D01*
X43014285Y-171595238D01*
X43061904Y-171690476D01*
X43109523Y-171880952D01*
X43109523Y-172023809D01*
X43061904Y-172214285D01*
X43014285Y-172309523D01*
X42919047Y-172404761D01*
X42776190Y-172452380D01*
X42538095Y-172452380D01*
X43871428Y-171928571D02*
X44014285Y-171976190D01*
X44061904Y-172023809D01*
X44109523Y-172119047D01*
X44109523Y-172261904D01*
X44061904Y-172357142D01*
X44014285Y-172404761D01*
X43919047Y-172452380D01*
X43538095Y-172452380D01*
X43538095Y-171452380D01*
X43871428Y-171452380D01*
X43966666Y-171500000D01*
X44014285Y-171547619D01*
X44061904Y-171642857D01*
X44061904Y-171738095D01*
X44014285Y-171833333D01*
X43966666Y-171880952D01*
X43871428Y-171928571D01*
X43538095Y-171928571D01*
X45061904Y-171500000D02*
X44966666Y-171452380D01*
X44823809Y-171452380D01*
X44680952Y-171500000D01*
X44585714Y-171595238D01*
X44538095Y-171690476D01*
X44490476Y-171880952D01*
X44490476Y-172023809D01*
X44538095Y-172214285D01*
X44585714Y-172309523D01*
X44680952Y-172404761D01*
X44823809Y-172452380D01*
X44919047Y-172452380D01*
X45061904Y-172404761D01*
X45109523Y-172357142D01*
X45109523Y-172023809D01*
X44919047Y-172023809D01*
X42466666Y-170202380D02*
X42466666Y-169202380D01*
X42847619Y-169202380D01*
X42942857Y-169250000D01*
X42990476Y-169297619D01*
X43038095Y-169392857D01*
X43038095Y-169535714D01*
X42990476Y-169630952D01*
X42942857Y-169678571D01*
X42847619Y-169726190D01*
X42466666Y-169726190D01*
X43371428Y-169202380D02*
X43609523Y-170202380D01*
X43800000Y-169488095D01*
X43990476Y-170202380D01*
X44228571Y-169202380D01*
X45180952Y-170202380D02*
X44847619Y-169726190D01*
X44609523Y-170202380D02*
X44609523Y-169202380D01*
X44990476Y-169202380D01*
X45085714Y-169250000D01*
X45133333Y-169297619D01*
X45180952Y-169392857D01*
X45180952Y-169535714D01*
X45133333Y-169630952D01*
X45085714Y-169678571D01*
X44990476Y-169726190D01*
X44609523Y-169726190D01*
D12*
X49585714Y-187576190D02*
X49771428Y-187638095D01*
X50080952Y-187638095D01*
X50204761Y-187576190D01*
X50266666Y-187514285D01*
X50328571Y-187390476D01*
X50328571Y-187266666D01*
X50266666Y-187142857D01*
X50204761Y-187080952D01*
X50080952Y-187019047D01*
X49833333Y-186957142D01*
X49709523Y-186895238D01*
X49647619Y-186833333D01*
X49585714Y-186709523D01*
X49585714Y-186585714D01*
X49647619Y-186461904D01*
X49709523Y-186400000D01*
X49833333Y-186338095D01*
X50142857Y-186338095D01*
X50328571Y-186400000D01*
X50761904Y-186338095D02*
X51071428Y-187638095D01*
X51319047Y-186709523D01*
X51566666Y-187638095D01*
X51876190Y-186338095D01*
X58536904Y-186957142D02*
X58722619Y-187019047D01*
X58784523Y-187080952D01*
X58846428Y-187204761D01*
X58846428Y-187390476D01*
X58784523Y-187514285D01*
X58722619Y-187576190D01*
X58598809Y-187638095D01*
X58103571Y-187638095D01*
X58103571Y-186338095D01*
X58536904Y-186338095D01*
X58660714Y-186400000D01*
X58722619Y-186461904D01*
X58784523Y-186585714D01*
X58784523Y-186709523D01*
X58722619Y-186833333D01*
X58660714Y-186895238D01*
X58536904Y-186957142D01*
X58103571Y-186957142D01*
X59403571Y-186338095D02*
X59403571Y-187390476D01*
X59465476Y-187514285D01*
X59527380Y-187576190D01*
X59651190Y-187638095D01*
X59898809Y-187638095D01*
X60022619Y-187576190D01*
X60084523Y-187514285D01*
X60146428Y-187390476D01*
X60146428Y-186338095D01*
X104407142Y-178178571D02*
X104907142Y-179678571D01*
X105407142Y-178178571D01*
X105907142Y-179535714D02*
X105978571Y-179607142D01*
X105907142Y-179678571D01*
X105835714Y-179607142D01*
X105907142Y-179535714D01*
X105907142Y-179678571D01*
X105907142Y-178750000D02*
X105978571Y-178821428D01*
X105907142Y-178892857D01*
X105835714Y-178821428D01*
X105907142Y-178750000D01*
X105907142Y-178892857D01*
X107407142Y-179678571D02*
X106550000Y-179678571D01*
X106978571Y-179678571D02*
X106978571Y-178178571D01*
X106835714Y-178392857D01*
X106692857Y-178535714D01*
X106550000Y-178607142D01*
X108050000Y-179535714D02*
X108121428Y-179607142D01*
X108050000Y-179678571D01*
X107978571Y-179607142D01*
X108050000Y-179535714D01*
X108050000Y-179678571D01*
X109050000Y-178178571D02*
X109192857Y-178178571D01*
X109335714Y-178250000D01*
X109407142Y-178321428D01*
X109478571Y-178464285D01*
X109550000Y-178750000D01*
X109550000Y-179107142D01*
X109478571Y-179392857D01*
X109407142Y-179535714D01*
X109335714Y-179607142D01*
X109192857Y-179678571D01*
X109050000Y-179678571D01*
X108907142Y-179607142D01*
X108835714Y-179535714D01*
X108764285Y-179392857D01*
X108692857Y-179107142D01*
X108692857Y-178750000D01*
X108764285Y-178464285D01*
X108835714Y-178321428D01*
X108907142Y-178250000D01*
X109050000Y-178178571D01*
X87621428Y-98792857D02*
X87121428Y-98792857D01*
X87121428Y-99578571D02*
X87121428Y-98078571D01*
X87835714Y-98078571D01*
X88407142Y-99578571D02*
X88407142Y-98078571D01*
X88978571Y-98078571D01*
X89121428Y-98150000D01*
X89192857Y-98221428D01*
X89264285Y-98364285D01*
X89264285Y-98578571D01*
X89192857Y-98721428D01*
X89121428Y-98792857D01*
X88978571Y-98864285D01*
X88407142Y-98864285D01*
X89907142Y-99007142D02*
X91050000Y-99007142D01*
X91550000Y-98078571D02*
X92407142Y-98078571D01*
X91978571Y-99578571D02*
X91978571Y-98078571D01*
X93764285Y-99435714D02*
X93692857Y-99507142D01*
X93478571Y-99578571D01*
X93335714Y-99578571D01*
X93121428Y-99507142D01*
X92978571Y-99364285D01*
X92907142Y-99221428D01*
X92835714Y-98935714D01*
X92835714Y-98721428D01*
X92907142Y-98435714D01*
X92978571Y-98292857D01*
X93121428Y-98150000D01*
X93335714Y-98078571D01*
X93478571Y-98078571D01*
X93692857Y-98150000D01*
X93764285Y-98221428D01*
X94407142Y-98078571D02*
X94407142Y-99292857D01*
X94478571Y-99435714D01*
X94550000Y-99507142D01*
X94692857Y-99578571D01*
X94978571Y-99578571D01*
X95121428Y-99507142D01*
X95192857Y-99435714D01*
X95264285Y-99292857D01*
X95264285Y-98078571D01*
X95978571Y-99007142D02*
X97121428Y-99007142D01*
X98621428Y-99578571D02*
X97764285Y-99578571D01*
X98192857Y-99578571D02*
X98192857Y-98078571D01*
X98050000Y-98292857D01*
X97907142Y-98435714D01*
X97764285Y-98507142D01*
X99550000Y-98078571D02*
X99692857Y-98078571D01*
X99835714Y-98150000D01*
X99907142Y-98221428D01*
X99978571Y-98364285D01*
X100050000Y-98650000D01*
X100050000Y-99007142D01*
X99978571Y-99292857D01*
X99907142Y-99435714D01*
X99835714Y-99507142D01*
X99692857Y-99578571D01*
X99550000Y-99578571D01*
X99407142Y-99507142D01*
X99335714Y-99435714D01*
X99264285Y-99292857D01*
X99192857Y-99007142D01*
X99192857Y-98650000D01*
X99264285Y-98364285D01*
X99335714Y-98221428D01*
X99407142Y-98150000D01*
X99550000Y-98078571D01*
X100978571Y-98078571D02*
X101121428Y-98078571D01*
X101264285Y-98150000D01*
X101335714Y-98221428D01*
X101407142Y-98364285D01*
X101478571Y-98650000D01*
X101478571Y-99007142D01*
X101407142Y-99292857D01*
X101335714Y-99435714D01*
X101264285Y-99507142D01*
X101121428Y-99578571D01*
X100978571Y-99578571D01*
X100835714Y-99507142D01*
X100764285Y-99435714D01*
X100692857Y-99292857D01*
X100621428Y-99007142D01*
X100621428Y-98650000D01*
X100692857Y-98364285D01*
X100764285Y-98221428D01*
X100835714Y-98150000D01*
X100978571Y-98078571D01*
X102407142Y-98078571D02*
X102550000Y-98078571D01*
X102692857Y-98150000D01*
X102764285Y-98221428D01*
X102835714Y-98364285D01*
X102907142Y-98650000D01*
X102907142Y-99007142D01*
X102835714Y-99292857D01*
X102764285Y-99435714D01*
X102692857Y-99507142D01*
X102550000Y-99578571D01*
X102407142Y-99578571D01*
X102264285Y-99507142D01*
X102192857Y-99435714D01*
X102121428Y-99292857D01*
X102050000Y-99007142D01*
X102050000Y-98650000D01*
X102121428Y-98364285D01*
X102192857Y-98221428D01*
X102264285Y-98150000D01*
X102407142Y-98078571D01*
X57884523Y-181388095D02*
X58627380Y-181388095D01*
X58255952Y-182688095D02*
X58255952Y-181388095D01*
X58936904Y-181388095D02*
X59803571Y-182688095D01*
X59803571Y-181388095D02*
X58936904Y-182688095D01*
X50483333Y-182688095D02*
X50050000Y-182069047D01*
X49740476Y-182688095D02*
X49740476Y-181388095D01*
X50235714Y-181388095D01*
X50359523Y-181450000D01*
X50421428Y-181511904D01*
X50483333Y-181635714D01*
X50483333Y-181821428D01*
X50421428Y-181945238D01*
X50359523Y-182007142D01*
X50235714Y-182069047D01*
X49740476Y-182069047D01*
X50916666Y-181388095D02*
X51783333Y-182688095D01*
X51783333Y-181388095D02*
X50916666Y-182688095D01*
X64450000Y-144088095D02*
X64016666Y-143469047D01*
X63707142Y-144088095D02*
X63707142Y-142788095D01*
X64202380Y-142788095D01*
X64326190Y-142850000D01*
X64388095Y-142911904D01*
X64450000Y-143035714D01*
X64450000Y-143221428D01*
X64388095Y-143345238D01*
X64326190Y-143407142D01*
X64202380Y-143469047D01*
X63707142Y-143469047D01*
X65254761Y-143469047D02*
X65254761Y-144088095D01*
X64821428Y-142788095D02*
X65254761Y-143469047D01*
X65688095Y-142788095D01*
X66740476Y-144088095D02*
X66121428Y-144088095D01*
X66121428Y-142788095D01*
X67111904Y-142911904D02*
X67173809Y-142850000D01*
X67297619Y-142788095D01*
X67607142Y-142788095D01*
X67730952Y-142850000D01*
X67792857Y-142911904D01*
X67854761Y-143035714D01*
X67854761Y-143159523D01*
X67792857Y-143345238D01*
X67050000Y-144088095D01*
X67854761Y-144088095D01*
X58950000Y-144088095D02*
X58516666Y-143469047D01*
X58207142Y-144088095D02*
X58207142Y-142788095D01*
X58702380Y-142788095D01*
X58826190Y-142850000D01*
X58888095Y-142911904D01*
X58950000Y-143035714D01*
X58950000Y-143221428D01*
X58888095Y-143345238D01*
X58826190Y-143407142D01*
X58702380Y-143469047D01*
X58207142Y-143469047D01*
X59754761Y-143469047D02*
X59754761Y-144088095D01*
X59321428Y-142788095D02*
X59754761Y-143469047D01*
X60188095Y-142788095D01*
X61240476Y-144088095D02*
X60621428Y-144088095D01*
X60621428Y-142788095D01*
X62354761Y-144088095D02*
X61611904Y-144088095D01*
X61983333Y-144088095D02*
X61983333Y-142788095D01*
X61859523Y-142973809D01*
X61735714Y-143097619D01*
X61611904Y-143159523D01*
X24121428Y-174771428D02*
X24121428Y-175628571D01*
X22621428Y-175200000D02*
X24121428Y-175200000D01*
X22621428Y-176128571D02*
X24121428Y-176128571D01*
X23407142Y-176128571D02*
X23407142Y-176985714D01*
X22621428Y-176985714D02*
X24121428Y-176985714D01*
X22621428Y-178485714D02*
X22621428Y-177628571D01*
X22621428Y-178057142D02*
X24121428Y-178057142D01*
X23907142Y-177914285D01*
X23764285Y-177771428D01*
X23692857Y-177628571D01*
X24121428Y-164171428D02*
X24121428Y-165028571D01*
X22621428Y-164600000D02*
X24121428Y-164600000D01*
X22621428Y-165528571D02*
X24121428Y-165528571D01*
X23407142Y-165528571D02*
X23407142Y-166385714D01*
X22621428Y-166385714D02*
X24121428Y-166385714D01*
X23978571Y-167028571D02*
X24050000Y-167100000D01*
X24121428Y-167242857D01*
X24121428Y-167600000D01*
X24050000Y-167742857D01*
X23978571Y-167814285D01*
X23835714Y-167885714D01*
X23692857Y-167885714D01*
X23478571Y-167814285D01*
X22621428Y-166957142D01*
X22621428Y-167885714D01*
X22692857Y-153214285D02*
X22621428Y-153428571D01*
X22621428Y-153785714D01*
X22692857Y-153928571D01*
X22764285Y-154000000D01*
X22907142Y-154071428D01*
X23050000Y-154071428D01*
X23192857Y-154000000D01*
X23264285Y-153928571D01*
X23335714Y-153785714D01*
X23407142Y-153500000D01*
X23478571Y-153357142D01*
X23550000Y-153285714D01*
X23692857Y-153214285D01*
X23835714Y-153214285D01*
X23978571Y-153285714D01*
X24050000Y-153357142D01*
X24121428Y-153500000D01*
X24121428Y-153857142D01*
X24050000Y-154071428D01*
X24121428Y-154571428D02*
X22621428Y-154928571D01*
X23692857Y-155214285D01*
X22621428Y-155500000D01*
X24121428Y-155857142D01*
X45450000Y-144157142D02*
X45450000Y-144871428D01*
X45021428Y-144014285D02*
X46521428Y-144514285D01*
X45021428Y-145014285D01*
X46521428Y-145300000D02*
X45021428Y-145800000D01*
X46521428Y-146300000D01*
X45021428Y-147657142D02*
X45735714Y-147157142D01*
X45021428Y-146800000D02*
X46521428Y-146800000D01*
X46521428Y-147371428D01*
X46450000Y-147514285D01*
X46378571Y-147585714D01*
X46235714Y-147657142D01*
X46021428Y-147657142D01*
X45878571Y-147585714D01*
X45807142Y-147514285D01*
X45735714Y-147371428D01*
X45735714Y-146800000D01*
X45021428Y-149442857D02*
X46521428Y-149442857D01*
X45092857Y-150085714D02*
X45021428Y-150300000D01*
X45021428Y-150657142D01*
X45092857Y-150800000D01*
X45164285Y-150871428D01*
X45307142Y-150942857D01*
X45450000Y-150942857D01*
X45592857Y-150871428D01*
X45664285Y-150800000D01*
X45735714Y-150657142D01*
X45807142Y-150371428D01*
X45878571Y-150228571D01*
X45950000Y-150157142D01*
X46092857Y-150085714D01*
X46235714Y-150085714D01*
X46378571Y-150157142D01*
X46450000Y-150228571D01*
X46521428Y-150371428D01*
X46521428Y-150728571D01*
X46450000Y-150942857D01*
X45021428Y-151585714D02*
X46521428Y-151585714D01*
X46521428Y-152157142D01*
X46450000Y-152300000D01*
X46378571Y-152371428D01*
X46235714Y-152442857D01*
X46021428Y-152442857D01*
X45878571Y-152371428D01*
X45807142Y-152300000D01*
X45735714Y-152157142D01*
X45735714Y-151585714D01*
X52721428Y-172678571D02*
X52221428Y-171964285D01*
X51864285Y-172678571D02*
X51864285Y-171178571D01*
X52435714Y-171178571D01*
X52578571Y-171250000D01*
X52650000Y-171321428D01*
X52721428Y-171464285D01*
X52721428Y-171678571D01*
X52650000Y-171821428D01*
X52578571Y-171892857D01*
X52435714Y-171964285D01*
X51864285Y-171964285D01*
X53364285Y-171892857D02*
X53864285Y-171892857D01*
X54078571Y-172678571D02*
X53364285Y-172678571D01*
X53364285Y-171178571D01*
X54078571Y-171178571D01*
X54650000Y-172607142D02*
X54864285Y-172678571D01*
X55221428Y-172678571D01*
X55364285Y-172607142D01*
X55435714Y-172535714D01*
X55507142Y-172392857D01*
X55507142Y-172250000D01*
X55435714Y-172107142D01*
X55364285Y-172035714D01*
X55221428Y-171964285D01*
X54935714Y-171892857D01*
X54792857Y-171821428D01*
X54721428Y-171750000D01*
X54650000Y-171607142D01*
X54650000Y-171464285D01*
X54721428Y-171321428D01*
X54792857Y-171250000D01*
X54935714Y-171178571D01*
X55292857Y-171178571D01*
X55507142Y-171250000D01*
X56150000Y-171892857D02*
X56650000Y-171892857D01*
X56864285Y-172678571D02*
X56150000Y-172678571D01*
X56150000Y-171178571D01*
X56864285Y-171178571D01*
X57292857Y-171178571D02*
X58150000Y-171178571D01*
X57721428Y-172678571D02*
X57721428Y-171178571D01*
X39185714Y-188742857D02*
X38685714Y-188742857D01*
X38685714Y-189528571D02*
X38685714Y-188028571D01*
X39400000Y-188028571D01*
X39757142Y-188028571D02*
X40614285Y-188028571D01*
X40185714Y-189528571D02*
X40185714Y-188028571D01*
X41114285Y-189528571D02*
X41114285Y-188028571D01*
X41471428Y-188028571D01*
X41685714Y-188100000D01*
X41828571Y-188242857D01*
X41900000Y-188385714D01*
X41971428Y-188671428D01*
X41971428Y-188885714D01*
X41900000Y-189171428D01*
X41828571Y-189314285D01*
X41685714Y-189457142D01*
X41471428Y-189528571D01*
X41114285Y-189528571D01*
X42614285Y-189528571D02*
X42614285Y-188028571D01*
X89600000Y-178592857D02*
X90100000Y-178592857D01*
X90314285Y-179378571D02*
X89600000Y-179378571D01*
X89600000Y-177878571D01*
X90314285Y-177878571D01*
X90814285Y-177878571D02*
X91814285Y-179378571D01*
X91814285Y-177878571D02*
X90814285Y-179378571D01*
X92385714Y-179378571D02*
X92385714Y-177878571D01*
X92957142Y-177878571D01*
X93100000Y-177950000D01*
X93171428Y-178021428D01*
X93242857Y-178164285D01*
X93242857Y-178378571D01*
X93171428Y-178521428D01*
X93100000Y-178592857D01*
X92957142Y-178664285D01*
X92385714Y-178664285D01*
X93814285Y-178021428D02*
X93885714Y-177950000D01*
X94028571Y-177878571D01*
X94385714Y-177878571D01*
X94528571Y-177950000D01*
X94600000Y-178021428D01*
X94671428Y-178164285D01*
X94671428Y-178307142D01*
X94600000Y-178521428D01*
X93742857Y-179378571D01*
X94671428Y-179378571D01*
X68600000Y-178592857D02*
X69100000Y-178592857D01*
X69314285Y-179378571D02*
X68600000Y-179378571D01*
X68600000Y-177878571D01*
X69314285Y-177878571D01*
X69814285Y-177878571D02*
X70814285Y-179378571D01*
X70814285Y-177878571D02*
X69814285Y-179378571D01*
X71385714Y-179378571D02*
X71385714Y-177878571D01*
X71957142Y-177878571D01*
X72100000Y-177950000D01*
X72171428Y-178021428D01*
X72242857Y-178164285D01*
X72242857Y-178378571D01*
X72171428Y-178521428D01*
X72100000Y-178592857D01*
X71957142Y-178664285D01*
X71385714Y-178664285D01*
X73671428Y-179378571D02*
X72814285Y-179378571D01*
X73242857Y-179378571D02*
X73242857Y-177878571D01*
X73100000Y-178092857D01*
X72957142Y-178235714D01*
X72814285Y-178307142D01*
X111278571Y-165907142D02*
X109778571Y-165907142D01*
X110850000Y-165407142D01*
X109778571Y-164907142D01*
X111278571Y-164907142D01*
X109778571Y-163907142D02*
X109778571Y-163621428D01*
X109850000Y-163478571D01*
X109992857Y-163335714D01*
X110278571Y-163264285D01*
X110778571Y-163264285D01*
X111064285Y-163335714D01*
X111207142Y-163478571D01*
X111278571Y-163621428D01*
X111278571Y-163907142D01*
X111207142Y-164050000D01*
X111064285Y-164192857D01*
X110778571Y-164264285D01*
X110278571Y-164264285D01*
X109992857Y-164192857D01*
X109850000Y-164050000D01*
X109778571Y-163907142D01*
X109778571Y-162835714D02*
X109778571Y-161978571D01*
X111278571Y-162407142D02*
X109778571Y-162407142D01*
X109778571Y-161192857D02*
X109778571Y-160907142D01*
X109850000Y-160764285D01*
X109992857Y-160621428D01*
X110278571Y-160550000D01*
X110778571Y-160550000D01*
X111064285Y-160621428D01*
X111207142Y-160764285D01*
X111278571Y-160907142D01*
X111278571Y-161192857D01*
X111207142Y-161335714D01*
X111064285Y-161478571D01*
X110778571Y-161550000D01*
X110278571Y-161550000D01*
X109992857Y-161478571D01*
X109850000Y-161335714D01*
X109778571Y-161192857D01*
X111278571Y-159050000D02*
X110564285Y-159550000D01*
X111278571Y-159907142D02*
X109778571Y-159907142D01*
X109778571Y-159335714D01*
X109850000Y-159192857D01*
X109921428Y-159121428D01*
X110064285Y-159050000D01*
X110278571Y-159050000D01*
X110421428Y-159121428D01*
X110492857Y-159192857D01*
X110564285Y-159335714D01*
X110564285Y-159907142D01*
X109921428Y-158478571D02*
X109850000Y-158407142D01*
X109778571Y-158264285D01*
X109778571Y-157907142D01*
X109850000Y-157764285D01*
X109921428Y-157692857D01*
X110064285Y-157621428D01*
X110207142Y-157621428D01*
X110421428Y-157692857D01*
X111278571Y-158550000D01*
X111278571Y-157621428D01*
X111278571Y-153907142D02*
X109778571Y-153907142D01*
X110850000Y-153407142D01*
X109778571Y-152907142D01*
X111278571Y-152907142D01*
X109778571Y-151907142D02*
X109778571Y-151621428D01*
X109850000Y-151478571D01*
X109992857Y-151335714D01*
X110278571Y-151264285D01*
X110778571Y-151264285D01*
X111064285Y-151335714D01*
X111207142Y-151478571D01*
X111278571Y-151621428D01*
X111278571Y-151907142D01*
X111207142Y-152050000D01*
X111064285Y-152192857D01*
X110778571Y-152264285D01*
X110278571Y-152264285D01*
X109992857Y-152192857D01*
X109850000Y-152050000D01*
X109778571Y-151907142D01*
X109778571Y-150835714D02*
X109778571Y-149978571D01*
X111278571Y-150407142D02*
X109778571Y-150407142D01*
X109778571Y-149192857D02*
X109778571Y-148907142D01*
X109850000Y-148764285D01*
X109992857Y-148621428D01*
X110278571Y-148550000D01*
X110778571Y-148550000D01*
X111064285Y-148621428D01*
X111207142Y-148764285D01*
X111278571Y-148907142D01*
X111278571Y-149192857D01*
X111207142Y-149335714D01*
X111064285Y-149478571D01*
X110778571Y-149550000D01*
X110278571Y-149550000D01*
X109992857Y-149478571D01*
X109850000Y-149335714D01*
X109778571Y-149192857D01*
X111278571Y-147050000D02*
X110564285Y-147550000D01*
X111278571Y-147907142D02*
X109778571Y-147907142D01*
X109778571Y-147335714D01*
X109850000Y-147192857D01*
X109921428Y-147121428D01*
X110064285Y-147050000D01*
X110278571Y-147050000D01*
X110421428Y-147121428D01*
X110492857Y-147192857D01*
X110564285Y-147335714D01*
X110564285Y-147907142D01*
X111278571Y-145621428D02*
X111278571Y-146478571D01*
X111278571Y-146050000D02*
X109778571Y-146050000D01*
X109992857Y-146192857D01*
X110135714Y-146335714D01*
X110207142Y-146478571D01*
X75850000Y-102878571D02*
X75850000Y-101378571D01*
X76421428Y-101378571D01*
X76564285Y-101450000D01*
X76635714Y-101521428D01*
X76707142Y-101664285D01*
X76707142Y-101878571D01*
X76635714Y-102021428D01*
X76564285Y-102092857D01*
X76421428Y-102164285D01*
X75850000Y-102164285D01*
X77350000Y-102092857D02*
X77850000Y-102092857D01*
X78064285Y-102878571D02*
X77350000Y-102878571D01*
X77350000Y-101378571D01*
X78064285Y-101378571D01*
X79421428Y-102878571D02*
X78707142Y-102878571D01*
X78707142Y-101378571D01*
X79707142Y-101378571D02*
X80564285Y-101378571D01*
X80135714Y-102878571D02*
X80135714Y-101378571D01*
X81064285Y-102878571D02*
X81064285Y-101378571D01*
X81778571Y-102092857D02*
X82278571Y-102092857D01*
X82492857Y-102878571D02*
X81778571Y-102878571D01*
X81778571Y-101378571D01*
X82492857Y-101378571D01*
X83992857Y-102878571D02*
X83492857Y-102164285D01*
X83135714Y-102878571D02*
X83135714Y-101378571D01*
X83707142Y-101378571D01*
X83850000Y-101450000D01*
X83921428Y-101521428D01*
X83992857Y-101664285D01*
X83992857Y-101878571D01*
X83921428Y-102021428D01*
X83850000Y-102092857D01*
X83707142Y-102164285D01*
X83135714Y-102164285D01*
X84564285Y-101521428D02*
X84635714Y-101450000D01*
X84778571Y-101378571D01*
X85135714Y-101378571D01*
X85278571Y-101450000D01*
X85350000Y-101521428D01*
X85421428Y-101664285D01*
X85421428Y-101807142D01*
X85350000Y-102021428D01*
X84492857Y-102878571D01*
X85421428Y-102878571D01*
X59850000Y-102878571D02*
X59850000Y-101378571D01*
X60421428Y-101378571D01*
X60564285Y-101450000D01*
X60635714Y-101521428D01*
X60707142Y-101664285D01*
X60707142Y-101878571D01*
X60635714Y-102021428D01*
X60564285Y-102092857D01*
X60421428Y-102164285D01*
X59850000Y-102164285D01*
X61350000Y-102092857D02*
X61850000Y-102092857D01*
X62064285Y-102878571D02*
X61350000Y-102878571D01*
X61350000Y-101378571D01*
X62064285Y-101378571D01*
X63421428Y-102878571D02*
X62707142Y-102878571D01*
X62707142Y-101378571D01*
X63707142Y-101378571D02*
X64564285Y-101378571D01*
X64135714Y-102878571D02*
X64135714Y-101378571D01*
X65064285Y-102878571D02*
X65064285Y-101378571D01*
X65778571Y-102092857D02*
X66278571Y-102092857D01*
X66492857Y-102878571D02*
X65778571Y-102878571D01*
X65778571Y-101378571D01*
X66492857Y-101378571D01*
X67992857Y-102878571D02*
X67492857Y-102164285D01*
X67135714Y-102878571D02*
X67135714Y-101378571D01*
X67707142Y-101378571D01*
X67850000Y-101450000D01*
X67921428Y-101521428D01*
X67992857Y-101664285D01*
X67992857Y-101878571D01*
X67921428Y-102021428D01*
X67850000Y-102092857D01*
X67707142Y-102164285D01*
X67135714Y-102164285D01*
X69421428Y-102878571D02*
X68564285Y-102878571D01*
X68992857Y-102878571D02*
X68992857Y-101378571D01*
X68850000Y-101592857D01*
X68707142Y-101735714D01*
X68564285Y-101807142D01*
X38835714Y-101678571D02*
X38835714Y-100178571D01*
X39550000Y-100678571D02*
X39550000Y-101678571D01*
X39550000Y-100821428D02*
X39621428Y-100750000D01*
X39764285Y-100678571D01*
X39978571Y-100678571D01*
X40121428Y-100750000D01*
X40192857Y-100892857D01*
X40192857Y-101678571D01*
X40907142Y-100678571D02*
X40907142Y-102178571D01*
X40907142Y-100750000D02*
X41050000Y-100678571D01*
X41335714Y-100678571D01*
X41478571Y-100750000D01*
X41550000Y-100821428D01*
X41621428Y-100964285D01*
X41621428Y-101392857D01*
X41550000Y-101535714D01*
X41478571Y-101607142D01*
X41335714Y-101678571D01*
X41050000Y-101678571D01*
X40907142Y-101607142D01*
X42907142Y-100678571D02*
X42907142Y-101678571D01*
X42264285Y-100678571D02*
X42264285Y-101464285D01*
X42335714Y-101607142D01*
X42478571Y-101678571D01*
X42692857Y-101678571D01*
X42835714Y-101607142D01*
X42907142Y-101535714D01*
X43407142Y-100678571D02*
X43978571Y-100678571D01*
X43621428Y-100178571D02*
X43621428Y-101464285D01*
X43692857Y-101607142D01*
X43835714Y-101678571D01*
X43978571Y-101678571D01*
D13*
X37904761Y-90992857D02*
X38895238Y-90992857D01*
X43004761Y-90992857D02*
X43995238Y-90992857D01*
X43500000Y-91488095D02*
X43500000Y-90497619D01*
D12*
X87121428Y-95657142D02*
X87264285Y-95728571D01*
X87550000Y-95728571D01*
X87692857Y-95657142D01*
X87764285Y-95514285D01*
X87764285Y-95442857D01*
X87692857Y-95300000D01*
X87550000Y-95228571D01*
X87335714Y-95228571D01*
X87192857Y-95157142D01*
X87121428Y-95014285D01*
X87121428Y-94942857D01*
X87192857Y-94800000D01*
X87335714Y-94728571D01*
X87550000Y-94728571D01*
X87692857Y-94800000D01*
X88978571Y-95657142D02*
X88835714Y-95728571D01*
X88550000Y-95728571D01*
X88407142Y-95657142D01*
X88335714Y-95514285D01*
X88335714Y-94942857D01*
X88407142Y-94800000D01*
X88550000Y-94728571D01*
X88835714Y-94728571D01*
X88978571Y-94800000D01*
X89050000Y-94942857D01*
X89050000Y-95085714D01*
X88335714Y-95228571D01*
X89692857Y-95728571D02*
X89692857Y-94728571D01*
X89692857Y-94228571D02*
X89621428Y-94300000D01*
X89692857Y-94371428D01*
X89764285Y-94300000D01*
X89692857Y-94228571D01*
X89692857Y-94371428D01*
X90407142Y-95728571D02*
X90407142Y-94228571D01*
X90550000Y-95157142D02*
X90978571Y-95728571D01*
X90978571Y-94728571D02*
X90407142Y-95300000D01*
X91621428Y-95728571D02*
X91621428Y-94728571D01*
X91621428Y-94228571D02*
X91550000Y-94300000D01*
X91621428Y-94371428D01*
X91692857Y-94300000D01*
X91621428Y-94228571D01*
X91621428Y-94371428D01*
X92335714Y-95157142D02*
X93478571Y-95157142D01*
X94192857Y-95728571D02*
X94192857Y-94228571D01*
X94835714Y-95728571D02*
X94835714Y-94942857D01*
X94764285Y-94800000D01*
X94621428Y-94728571D01*
X94407142Y-94728571D01*
X94264285Y-94800000D01*
X94192857Y-94871428D01*
X95764285Y-95728571D02*
X95621428Y-95657142D01*
X95550000Y-95585714D01*
X95478571Y-95442857D01*
X95478571Y-95014285D01*
X95550000Y-94871428D01*
X95621428Y-94800000D01*
X95764285Y-94728571D01*
X95978571Y-94728571D01*
X96121428Y-94800000D01*
X96192857Y-94871428D01*
X96264285Y-95014285D01*
X96264285Y-95442857D01*
X96192857Y-95585714D01*
X96121428Y-95657142D01*
X95978571Y-95728571D01*
X95764285Y-95728571D01*
X96692857Y-94728571D02*
X97264285Y-94728571D01*
X96907142Y-94228571D02*
X96907142Y-95514285D01*
X96978571Y-95657142D01*
X97121428Y-95728571D01*
X97264285Y-95728571D01*
X97764285Y-95585714D02*
X97835714Y-95657142D01*
X97764285Y-95728571D01*
X97692857Y-95657142D01*
X97764285Y-95585714D01*
X97764285Y-95728571D01*
X99121428Y-95657142D02*
X98978571Y-95728571D01*
X98692857Y-95728571D01*
X98550000Y-95657142D01*
X98478571Y-95585714D01*
X98407142Y-95442857D01*
X98407142Y-95014285D01*
X98478571Y-94871428D01*
X98550000Y-94800000D01*
X98692857Y-94728571D01*
X98978571Y-94728571D01*
X99121428Y-94800000D01*
X99978571Y-95728571D02*
X99835714Y-95657142D01*
X99764285Y-95585714D01*
X99692857Y-95442857D01*
X99692857Y-95014285D01*
X99764285Y-94871428D01*
X99835714Y-94800000D01*
X99978571Y-94728571D01*
X100192857Y-94728571D01*
X100335714Y-94800000D01*
X100407142Y-94871428D01*
X100478571Y-95014285D01*
X100478571Y-95442857D01*
X100407142Y-95585714D01*
X100335714Y-95657142D01*
X100192857Y-95728571D01*
X99978571Y-95728571D01*
X101121428Y-95728571D02*
X101121428Y-94728571D01*
X101121428Y-94871428D02*
X101192857Y-94800000D01*
X101335714Y-94728571D01*
X101550000Y-94728571D01*
X101692857Y-94800000D01*
X101764285Y-94942857D01*
X101764285Y-95728571D01*
X101764285Y-94942857D02*
X101835714Y-94800000D01*
X101978571Y-94728571D01*
X102192857Y-94728571D01*
X102335714Y-94800000D01*
X102407142Y-94942857D01*
X102407142Y-95728571D01*
D13*
X87128571Y-93647619D02*
X87357142Y-93723809D01*
X87738095Y-93723809D01*
X87890476Y-93647619D01*
X87966666Y-93571428D01*
X88042857Y-93419047D01*
X88042857Y-93266666D01*
X87966666Y-93114285D01*
X87890476Y-93038095D01*
X87738095Y-92961904D01*
X87433333Y-92885714D01*
X87280952Y-92809523D01*
X87204761Y-92733333D01*
X87128571Y-92580952D01*
X87128571Y-92428571D01*
X87204761Y-92276190D01*
X87280952Y-92200000D01*
X87433333Y-92123809D01*
X87814285Y-92123809D01*
X88042857Y-92200000D01*
X88728571Y-92885714D02*
X89261904Y-92885714D01*
X89490476Y-93723809D02*
X88728571Y-93723809D01*
X88728571Y-92123809D01*
X89490476Y-92123809D01*
X90176190Y-93723809D02*
X90176190Y-92123809D01*
X90938095Y-93723809D02*
X90938095Y-92123809D01*
X91852380Y-93723809D02*
X91166666Y-92809523D01*
X91852380Y-92123809D02*
X90938095Y-93038095D01*
X92538095Y-93723809D02*
X92538095Y-92123809D01*
X95433333Y-93571428D02*
X95357142Y-93647619D01*
X95128571Y-93723809D01*
X94976190Y-93723809D01*
X94747619Y-93647619D01*
X94595238Y-93495238D01*
X94519047Y-93342857D01*
X94442857Y-93038095D01*
X94442857Y-92809523D01*
X94519047Y-92504761D01*
X94595238Y-92352380D01*
X94747619Y-92200000D01*
X94976190Y-92123809D01*
X95128571Y-92123809D01*
X95357142Y-92200000D01*
X95433333Y-92276190D01*
X96423809Y-92123809D02*
X96728571Y-92123809D01*
X96880952Y-92200000D01*
X97033333Y-92352380D01*
X97109523Y-92657142D01*
X97109523Y-93190476D01*
X97033333Y-93495238D01*
X96880952Y-93647619D01*
X96728571Y-93723809D01*
X96423809Y-93723809D01*
X96271428Y-93647619D01*
X96119047Y-93495238D01*
X96042857Y-93190476D01*
X96042857Y-92657142D01*
X96119047Y-92352380D01*
X96271428Y-92200000D01*
X96423809Y-92123809D01*
X98709523Y-93723809D02*
X98176190Y-92961904D01*
X97795238Y-93723809D02*
X97795238Y-92123809D01*
X98404761Y-92123809D01*
X98557142Y-92200000D01*
X98633333Y-92276190D01*
X98709523Y-92428571D01*
X98709523Y-92657142D01*
X98633333Y-92809523D01*
X98557142Y-92885714D01*
X98404761Y-92961904D01*
X97795238Y-92961904D01*
X99395238Y-93723809D02*
X99395238Y-92123809D01*
X100004761Y-92123809D01*
X100157142Y-92200000D01*
X100233333Y-92276190D01*
X100309523Y-92428571D01*
X100309523Y-92657142D01*
X100233333Y-92809523D01*
X100157142Y-92885714D01*
X100004761Y-92961904D01*
X99395238Y-92961904D01*
X100995238Y-93571428D02*
X101071428Y-93647619D01*
X100995238Y-93723809D01*
X100919047Y-93647619D01*
X100995238Y-93571428D01*
X100995238Y-93723809D01*
D11*
X64250000Y-156750000D02*
G75*
G03*
X64250000Y-156750000I-250000J0D01*
G01*
D13*
X64100000Y-156750000D02*
G75*
G03*
X64100000Y-156750000I-100000J0D01*
G01*
D10*
%TO.C,HS1*%
X90450000Y-157650000D02*
X90700000Y-157650000D01*
X90450000Y-154150000D02*
X90700000Y-154150000D01*
X87950000Y-154150000D02*
X87700000Y-154150000D01*
X87950000Y-157650000D02*
X87700000Y-157650000D01*
X88950000Y-157650000D02*
X88450000Y-157650000D01*
X89950000Y-157650000D02*
X89450000Y-157650000D01*
X88950000Y-154150000D02*
X88450000Y-154150000D01*
X89950000Y-154150000D02*
X89450000Y-154150000D01*
D14*
X92500000Y-144400000D02*
X92500000Y-166100000D01*
X92500000Y-167400000D02*
X98900000Y-167400000D01*
X98900000Y-167400000D02*
X98900000Y-165500000D01*
X98900000Y-165500000D02*
X93700000Y-165500000D01*
X93700000Y-165500000D02*
X93700000Y-163900000D01*
X93700000Y-163900000D02*
X98900000Y-163900000D01*
X98900000Y-163900000D02*
X98900000Y-163300000D01*
X98900000Y-163300000D02*
X93700000Y-163300000D01*
X93700000Y-163300000D02*
X93200000Y-163300000D01*
X98900000Y-163300000D02*
X93600000Y-163300000D01*
X93200000Y-163300000D02*
X93200000Y-161700000D01*
X93200000Y-161700000D02*
X98900000Y-161700000D01*
X98900000Y-161700000D02*
X98900000Y-161100000D01*
X98900000Y-161100000D02*
X93200000Y-161100000D01*
X93200000Y-161100000D02*
X93200000Y-159500000D01*
X93200000Y-159500000D02*
X98900000Y-159500000D01*
X98900000Y-159500000D02*
X98900000Y-158900000D01*
X98900000Y-158900000D02*
X93200000Y-158900000D01*
X93200000Y-158900000D02*
X93200000Y-157300000D01*
X93200000Y-157300000D02*
X98900000Y-157300000D01*
X98900000Y-157300000D02*
X98900000Y-156700000D01*
X98900000Y-156700000D02*
X93200000Y-156700000D01*
X93200000Y-156700000D02*
X93200000Y-155100000D01*
X93200000Y-155100000D02*
X98900000Y-155100000D01*
X98900000Y-154500000D02*
X93200000Y-154500000D01*
X98900000Y-155100000D02*
X98900000Y-154500000D01*
X93200000Y-154500000D02*
X93200000Y-152900000D01*
X93200000Y-152900000D02*
X98900000Y-152900000D01*
X98900000Y-152900000D02*
X98900000Y-152300000D01*
X98900000Y-152300000D02*
X93200000Y-152300000D01*
X93200000Y-152300000D02*
X93200000Y-150700000D01*
X93200000Y-150700000D02*
X98900000Y-150700000D01*
X98900000Y-150700000D02*
X98900000Y-150100000D01*
X98900000Y-150100000D02*
X93200000Y-150100000D01*
X93200000Y-148500000D02*
X98900000Y-148500000D01*
X98900000Y-148500000D02*
X98900000Y-147900000D01*
X93200000Y-150100000D02*
X93200000Y-148500000D01*
X98900000Y-147900000D02*
X93700000Y-147900000D01*
X98900000Y-144400000D02*
X92500000Y-144400000D01*
X98900000Y-146300000D02*
X98900000Y-144400000D01*
X93700000Y-147900000D02*
X93700000Y-146300000D01*
X93700000Y-146300000D02*
X98900000Y-146300000D01*
X92500000Y-144400000D02*
X87900000Y-144400000D01*
X87900000Y-167400000D02*
X92500000Y-167400000D01*
X92500000Y-167400000D02*
X92500000Y-166000000D01*
X91500000Y-145300000D02*
X91500000Y-166700000D01*
X91500000Y-166700000D02*
X82900000Y-166700000D01*
X82900000Y-166700000D02*
X82900000Y-167400000D01*
X82900000Y-167400000D02*
X88100000Y-167400000D01*
X91400000Y-145300000D02*
X82900000Y-145300000D01*
X82900000Y-145300000D02*
X82900000Y-144400000D01*
X82900000Y-144400000D02*
X87900000Y-144400000D01*
%TO.C,J1*%
X66900000Y-184650000D02*
X64700000Y-184650000D01*
X66900000Y-186750000D02*
X66900000Y-184650000D01*
X64700000Y-186800000D02*
X64700000Y-185550000D01*
X66000000Y-186800000D02*
X64700000Y-186800000D01*
X77450000Y-186800000D02*
X68600000Y-186800000D01*
X77450000Y-181700000D02*
X77450000Y-186800000D01*
X64700000Y-181700000D02*
X77450000Y-181700000D01*
X64700000Y-184650000D02*
X64700000Y-181700000D01*
X68600000Y-186800000D02*
X66900000Y-186800000D01*
X61100000Y-188200000D02*
X68600000Y-188200000D01*
X68600000Y-188200000D02*
X68600000Y-187100000D01*
X68600000Y-187100000D02*
X73600000Y-187100000D01*
X73600000Y-187100000D02*
X73600000Y-188200000D01*
X73600000Y-188200000D02*
X81100000Y-188200000D01*
X81100000Y-188200000D02*
X81100000Y-180200000D01*
X81100000Y-180200000D02*
X61100000Y-180200000D01*
X61100000Y-180200000D02*
X61100000Y-188200000D01*
%TO.C,J2*%
X87900000Y-184650000D02*
X85700000Y-184650000D01*
X87900000Y-186750000D02*
X87900000Y-184650000D01*
X85700000Y-186800000D02*
X85700000Y-185550000D01*
X87000000Y-186800000D02*
X85700000Y-186800000D01*
X98450000Y-186800000D02*
X89600000Y-186800000D01*
X98450000Y-181700000D02*
X98450000Y-186800000D01*
X85700000Y-181700000D02*
X98450000Y-181700000D01*
X85700000Y-184650000D02*
X85700000Y-181700000D01*
X89600000Y-186800000D02*
X87900000Y-186800000D01*
X82100000Y-188200000D02*
X89600000Y-188200000D01*
X89600000Y-188200000D02*
X89600000Y-187100000D01*
X89600000Y-187100000D02*
X94600000Y-187100000D01*
X94600000Y-187100000D02*
X94600000Y-188200000D01*
X94600000Y-188200000D02*
X102100000Y-188200000D01*
X102100000Y-188200000D02*
X102100000Y-180200000D01*
X102100000Y-180200000D02*
X82100000Y-180200000D01*
X82100000Y-180200000D02*
X82100000Y-188200000D01*
%TO.C,J6*%
X40150000Y-152350000D02*
X40150000Y-154550000D01*
X42250000Y-152350000D02*
X40150000Y-152350000D01*
X42300000Y-154550000D02*
X41050000Y-154550000D01*
X42300000Y-153250000D02*
X42300000Y-154550000D01*
X42300000Y-141800000D02*
X42300000Y-150650000D01*
X37200000Y-141800000D02*
X42300000Y-141800000D01*
X37200000Y-154550000D02*
X37200000Y-141800000D01*
X40150000Y-154550000D02*
X37200000Y-154550000D01*
X42300000Y-150650000D02*
X42300000Y-152350000D01*
X43700000Y-158150000D02*
X43700000Y-150650000D01*
X43700000Y-150650000D02*
X42600000Y-150650000D01*
X42600000Y-150650000D02*
X42600000Y-145650000D01*
X42600000Y-145650000D02*
X43700000Y-145650000D01*
X43700000Y-145650000D02*
X43700000Y-138150000D01*
X43700000Y-138150000D02*
X35700000Y-138150000D01*
X35700000Y-138150000D02*
X35700000Y-158150000D01*
X35700000Y-158150000D02*
X43700000Y-158150000D01*
%TO.C,JP4*%
X52380000Y-188360000D02*
X55040000Y-188360000D01*
X52380000Y-183220000D02*
X52380000Y-188360000D01*
X55040000Y-183220000D02*
X55040000Y-188360000D01*
X52380000Y-183220000D02*
X55040000Y-183220000D01*
X52380000Y-181950000D02*
X52380000Y-180620000D01*
X52380000Y-180620000D02*
X53710000Y-180620000D01*
%TO.C,RLY1*%
X35960000Y-130500000D02*
X35960000Y-103000000D01*
X35960000Y-103000000D02*
X48760000Y-103000000D01*
X48760000Y-103000000D02*
X48760000Y-107000000D01*
X48760000Y-107000000D02*
X69960000Y-107000000D01*
X53560000Y-130500000D02*
X53560000Y-127000000D01*
X53560000Y-127000000D02*
X69960000Y-127000000D01*
X35960000Y-130500000D02*
X53560000Y-130500000D01*
X69960000Y-127000000D02*
X69960000Y-107000000D01*
%TO.C,J10*%
X102650000Y-158380000D02*
X102650000Y-164160000D01*
X107750000Y-158380000D02*
X107750000Y-164160000D01*
X108870000Y-158380000D02*
X108870000Y-164160000D01*
X102130000Y-158380000D02*
X102130000Y-164160000D01*
X108870000Y-158380000D02*
X102130000Y-158380000D01*
X108870000Y-164160000D02*
X102130000Y-164160000D01*
X102530000Y-158140000D02*
X101890000Y-158140000D01*
X101890000Y-158140000D02*
X101890000Y-158540000D01*
%TO.C,J9*%
X102650000Y-147630000D02*
X102650000Y-153410000D01*
X107750000Y-147630000D02*
X107750000Y-153410000D01*
X108870000Y-147630000D02*
X108870000Y-153410000D01*
X102130000Y-147630000D02*
X102130000Y-153410000D01*
X108870000Y-147630000D02*
X102130000Y-147630000D01*
X108870000Y-153410000D02*
X102130000Y-153410000D01*
X102530000Y-147390000D02*
X101890000Y-147390000D01*
X101890000Y-147390000D02*
X101890000Y-147790000D01*
%TO.C,J5*%
X75380000Y-93460000D02*
X85540000Y-93460000D01*
X75380000Y-92190000D02*
X75380000Y-99810000D01*
X75380000Y-99810000D02*
X85540000Y-99810000D01*
X85540000Y-99810000D02*
X85540000Y-92190000D01*
X85540000Y-92190000D02*
X75380000Y-92190000D01*
%TO.C,J4*%
X59380000Y-93460000D02*
X69540000Y-93460000D01*
X59380000Y-92190000D02*
X59380000Y-99810000D01*
X59380000Y-99810000D02*
X69540000Y-99810000D01*
X69540000Y-99810000D02*
X69540000Y-92190000D01*
X69540000Y-92190000D02*
X59380000Y-92190000D01*
%TO.C,J8*%
X30850000Y-169020000D02*
X30850000Y-163240000D01*
X25750000Y-169020000D02*
X25750000Y-163240000D01*
X24630000Y-169020000D02*
X24630000Y-163240000D01*
X31370000Y-169020000D02*
X31370000Y-163240000D01*
X24630000Y-169020000D02*
X31370000Y-169020000D01*
X24630000Y-163240000D02*
X31370000Y-163240000D01*
X30970000Y-169260000D02*
X31610000Y-169260000D01*
X31610000Y-169260000D02*
X31610000Y-168860000D01*
%TO.C,J7*%
X30850000Y-179420000D02*
X30850000Y-173640000D01*
X25750000Y-179420000D02*
X25750000Y-173640000D01*
X24630000Y-179420000D02*
X24630000Y-173640000D01*
X31370000Y-179420000D02*
X31370000Y-173640000D01*
X24630000Y-179420000D02*
X31370000Y-179420000D01*
X24630000Y-173640000D02*
X31370000Y-173640000D01*
X30970000Y-179660000D02*
X31610000Y-179660000D01*
X31610000Y-179660000D02*
X31610000Y-179260000D01*
D10*
%TO.C,U2*%
X63625000Y-157375000D02*
X63400000Y-157375000D01*
X63625000Y-164625000D02*
X63300000Y-164625000D01*
X56375000Y-164625000D02*
X56700000Y-164625000D01*
X56375000Y-157375000D02*
X56700000Y-157375000D01*
X63625000Y-157375000D02*
X63625000Y-157700000D01*
X56375000Y-157375000D02*
X56375000Y-157700000D01*
X56375000Y-164625000D02*
X56375000Y-164300000D01*
X63625000Y-164625000D02*
X63625000Y-164300000D01*
X63400000Y-157375000D02*
X63400000Y-155950000D01*
D14*
%TO.C,Y1*%
X56200000Y-154850000D02*
X56200000Y-151550000D01*
X56200000Y-151550000D02*
X52200000Y-151550000D01*
D15*
%TO.C,U3*%
X87220000Y-145910000D02*
X87220000Y-146010000D01*
X87220000Y-145910000D02*
X86720000Y-145910000D01*
X87220000Y-146010000D02*
X87220000Y-146410000D01*
X81920000Y-145910000D02*
X82420000Y-145910000D01*
X81920000Y-145910000D02*
X81920000Y-146410000D01*
X81920000Y-165810000D02*
X81920000Y-165310000D01*
X81920000Y-165810000D02*
X82420000Y-165810000D01*
X87220000Y-165810000D02*
X86720000Y-165810000D01*
X87220000Y-165810000D02*
X87220000Y-165310000D01*
%TO.C,U1*%
X31525000Y-130025000D02*
X31525000Y-129550000D01*
X31525000Y-129550000D02*
X31225000Y-129225000D01*
X31225000Y-129225000D02*
X31225000Y-129030000D01*
X24975000Y-129700000D02*
X24975000Y-129225000D01*
X24975000Y-129225000D02*
X25425000Y-129225000D01*
X31025000Y-132775000D02*
X31525000Y-132775000D01*
X31525000Y-132775000D02*
X31525000Y-132375000D01*
X25350000Y-132775000D02*
X24975000Y-132775000D01*
X24975000Y-132775000D02*
X24975000Y-132475000D01*
D14*
%TO.C,TP3*%
X47950000Y-135000000D02*
G75*
G03*
X47950000Y-135000000I-950000J0D01*
G01*
%TO.C,TP2*%
X39950000Y-135000000D02*
G75*
G03*
X39950000Y-135000000I-950000J0D01*
G01*
%TO.C,TP1*%
X43950000Y-135000000D02*
G75*
G03*
X43950000Y-135000000I-950000J0D01*
G01*
%TO.C,S1*%
X53200000Y-178750000D02*
X53650000Y-179200000D01*
X56600000Y-178750000D02*
X56150000Y-179200000D01*
X56600000Y-174150000D02*
X56150000Y-173700000D01*
X53200000Y-174150000D02*
X53650000Y-173700000D01*
X57650000Y-175450000D02*
X57650000Y-177450000D01*
X53650000Y-179200000D02*
X56150000Y-179200000D01*
X52150000Y-175450000D02*
X52150000Y-177450000D01*
X53650000Y-173700000D02*
X56150000Y-173700000D01*
%TO.C,RLY2*%
X109040000Y-103500000D02*
X109040000Y-131000000D01*
X109040000Y-131000000D02*
X96240000Y-131000000D01*
X96240000Y-131000000D02*
X96240000Y-127000000D01*
X96240000Y-127000000D02*
X75040000Y-127000000D01*
X91440000Y-103500000D02*
X91440000Y-107000000D01*
X91440000Y-107000000D02*
X75040000Y-107000000D01*
X109040000Y-103500000D02*
X91440000Y-103500000D01*
X75040000Y-107000000D02*
X75040000Y-127000000D01*
%TO.C,R19*%
X47141422Y-164890000D02*
X47658578Y-164890000D01*
X47141422Y-166310000D02*
X47658578Y-166310000D01*
%TO.C,R18*%
X71291422Y-154590000D02*
X71808578Y-154590000D01*
X71291422Y-156010000D02*
X71808578Y-156010000D01*
%TO.C,R17*%
X71291422Y-156640000D02*
X71808578Y-156640000D01*
X71291422Y-158060000D02*
X71808578Y-158060000D01*
%TO.C,R16*%
X71291422Y-158690000D02*
X71808578Y-158690000D01*
X71291422Y-160110000D02*
X71808578Y-160110000D01*
%TO.C,R15*%
X71291422Y-160740000D02*
X71808578Y-160740000D01*
X71291422Y-162160000D02*
X71808578Y-162160000D01*
%TO.C,R14*%
X37341422Y-167790000D02*
X37858578Y-167790000D01*
X37341422Y-169210000D02*
X37858578Y-169210000D01*
%TO.C,R13*%
X37858578Y-167110000D02*
X37341422Y-167110000D01*
X37858578Y-165690000D02*
X37341422Y-165690000D01*
%TO.C,R12*%
X37341422Y-178390000D02*
X37858578Y-178390000D01*
X37341422Y-179810000D02*
X37858578Y-179810000D01*
%TO.C,R11*%
X37858578Y-177810000D02*
X37341422Y-177810000D01*
X37858578Y-176390000D02*
X37341422Y-176390000D01*
%TO.C,R10*%
X47141422Y-175190000D02*
X47658578Y-175190000D01*
X47141422Y-176610000D02*
X47658578Y-176610000D01*
%TO.C,R9*%
X47141422Y-173166000D02*
X47658578Y-173166000D01*
X47141422Y-174586000D02*
X47658578Y-174586000D01*
%TO.C,R8*%
X71908578Y-141960000D02*
X71391422Y-141960000D01*
X71908578Y-140540000D02*
X71391422Y-140540000D01*
%TO.C,R7*%
X71391422Y-144540000D02*
X71908578Y-144540000D01*
X71391422Y-145960000D02*
X71908578Y-145960000D01*
%TO.C,R6*%
X71908578Y-143960000D02*
X71391422Y-143960000D01*
X71908578Y-142540000D02*
X71391422Y-142540000D01*
%TO.C,R5*%
X54011422Y-140540000D02*
X54528578Y-140540000D01*
X54011422Y-141960000D02*
X54528578Y-141960000D01*
%TO.C,R4*%
X54528578Y-145960000D02*
X54011422Y-145960000D01*
X54528578Y-144540000D02*
X54011422Y-144540000D01*
%TO.C,R3*%
X54011422Y-142540000D02*
X54528578Y-142540000D01*
X54011422Y-143960000D02*
X54528578Y-143960000D01*
%TO.C,R2*%
X47141422Y-166914000D02*
X47658578Y-166914000D01*
X47141422Y-168334000D02*
X47658578Y-168334000D01*
%TO.C,R1*%
X30458578Y-104310000D02*
X29941422Y-104310000D01*
X30458578Y-102890000D02*
X29941422Y-102890000D01*
%TO.C,Q2*%
X73230000Y-136990000D02*
X72300000Y-136990000D01*
X70070000Y-136990000D02*
X71000000Y-136990000D01*
X70070000Y-136990000D02*
X70070000Y-139150000D01*
X73230000Y-136990000D02*
X73230000Y-138450000D01*
%TO.C,Q1*%
X55850000Y-136990000D02*
X54920000Y-136990000D01*
X52690000Y-136990000D02*
X53620000Y-136990000D01*
X52690000Y-136990000D02*
X52690000Y-139150000D01*
X55850000Y-136990000D02*
X55850000Y-138450000D01*
%TO.C,JP3*%
X54920000Y-188360000D02*
X57580000Y-188360000D01*
X54920000Y-183220000D02*
X54920000Y-188360000D01*
X57580000Y-183220000D02*
X57580000Y-188360000D01*
X54920000Y-183220000D02*
X57580000Y-183220000D01*
X54920000Y-181950000D02*
X54920000Y-180620000D01*
X54920000Y-180620000D02*
X56250000Y-180620000D01*
%TO.C,JP2*%
X65630000Y-144630000D02*
X62970000Y-144630000D01*
X65630000Y-147230000D02*
X65630000Y-144630000D01*
X62970000Y-147230000D02*
X62970000Y-144630000D01*
X65630000Y-147230000D02*
X62970000Y-147230000D01*
X65630000Y-148500000D02*
X65630000Y-149830000D01*
X65630000Y-149830000D02*
X64300000Y-149830000D01*
%TO.C,JP1*%
X62980000Y-144630000D02*
X60320000Y-144630000D01*
X62980000Y-147230000D02*
X62980000Y-144630000D01*
X60320000Y-147230000D02*
X60320000Y-144630000D01*
X62980000Y-147230000D02*
X60320000Y-147230000D01*
X62980000Y-148500000D02*
X62980000Y-149830000D01*
X62980000Y-149830000D02*
X61650000Y-149830000D01*
%TO.C,J12*%
X30850000Y-158660000D02*
X30850000Y-150340000D01*
X25750000Y-158660000D02*
X25750000Y-150340000D01*
X24630000Y-158660000D02*
X24630000Y-150340000D01*
X31370000Y-158660000D02*
X31370000Y-150340000D01*
X24630000Y-158660000D02*
X31370000Y-158660000D01*
X24630000Y-150340000D02*
X31370000Y-150340000D01*
X30970000Y-158900000D02*
X31610000Y-158900000D01*
X31610000Y-158900000D02*
X31610000Y-158500000D01*
%TO.C,J11*%
X48620000Y-181150000D02*
X32680000Y-181150000D01*
X48620000Y-186250000D02*
X32680000Y-186250000D01*
X48620000Y-187370000D02*
X32680000Y-187370000D01*
X48620000Y-180630000D02*
X32680000Y-180630000D01*
X48620000Y-187370000D02*
X48620000Y-180630000D01*
X32680000Y-187370000D02*
X32680000Y-180630000D01*
X48860000Y-181030000D02*
X48860000Y-180390000D01*
X48860000Y-180390000D02*
X48460000Y-180390000D01*
%TO.C,J3*%
X35880000Y-93460000D02*
X46040000Y-93460000D01*
X35880000Y-92190000D02*
X35880000Y-99810000D01*
X35880000Y-99810000D02*
X46040000Y-99810000D01*
X46040000Y-99810000D02*
X46040000Y-92190000D01*
X46040000Y-92190000D02*
X35880000Y-92190000D01*
%TO.C,F1*%
X26647936Y-105340000D02*
X27852064Y-105340000D01*
X26647936Y-107160000D02*
X27852064Y-107160000D01*
%TO.C,D16*%
X94410000Y-170340000D02*
X94410000Y-171200000D01*
X94020000Y-170780000D02*
X94820000Y-170780000D01*
X94690000Y-177330000D02*
X98490000Y-177330000D01*
X98490000Y-177330000D02*
X98490000Y-171090000D01*
X94690000Y-177330000D02*
X94690000Y-171160000D01*
%TO.C,D15*%
X80310000Y-170340000D02*
X80310000Y-171200000D01*
X79920000Y-170780000D02*
X80720000Y-170780000D01*
X80590000Y-177330000D02*
X84390000Y-177330000D01*
X84390000Y-177330000D02*
X84390000Y-171090000D01*
X80590000Y-177330000D02*
X80590000Y-171160000D01*
%TO.C,D14*%
X84690000Y-141460000D02*
X84690000Y-140600000D01*
X85080000Y-141020000D02*
X84280000Y-141020000D01*
X84410000Y-134470000D02*
X80610000Y-134470000D01*
X80610000Y-134470000D02*
X80610000Y-140710000D01*
X84410000Y-134470000D02*
X84410000Y-140640000D01*
%TO.C,D13*%
X98790000Y-141470000D02*
X98790000Y-140610000D01*
X99180000Y-141030000D02*
X98380000Y-141030000D01*
X98510000Y-134480000D02*
X94710000Y-134480000D01*
X94710000Y-134480000D02*
X94710000Y-140720000D01*
X98510000Y-134480000D02*
X98510000Y-140650000D01*
%TO.C,D12*%
X94090000Y-176790000D02*
X94090000Y-175930000D01*
X94480000Y-176350000D02*
X93680000Y-176350000D01*
X93810000Y-169800000D02*
X90010000Y-169800000D01*
X90010000Y-169800000D02*
X90010000Y-176040000D01*
X93810000Y-169800000D02*
X93810000Y-175970000D01*
%TO.C,D11*%
X89390000Y-176790000D02*
X89390000Y-175930000D01*
X89780000Y-176350000D02*
X88980000Y-176350000D01*
X89110000Y-169800000D02*
X85310000Y-169800000D01*
X85310000Y-169800000D02*
X85310000Y-176040000D01*
X89110000Y-169800000D02*
X89110000Y-175970000D01*
%TO.C,D10*%
X85010000Y-135010000D02*
X85010000Y-135870000D01*
X84620000Y-135450000D02*
X85420000Y-135450000D01*
X85290000Y-142000000D02*
X89090000Y-142000000D01*
X89090000Y-142000000D02*
X89090000Y-135760000D01*
X85290000Y-142000000D02*
X85290000Y-135830000D01*
%TO.C,D9*%
X89710000Y-135010000D02*
X89710000Y-135870000D01*
X89320000Y-135450000D02*
X90120000Y-135450000D01*
X89990000Y-142000000D02*
X93790000Y-142000000D01*
X93790000Y-142000000D02*
X93790000Y-135760000D01*
X89990000Y-142000000D02*
X89990000Y-135830000D01*
%TO.C,D8*%
X48420000Y-170847000D02*
X45735000Y-170847000D01*
X45735000Y-170847000D02*
X45735000Y-172767000D01*
X45735000Y-172767000D02*
X48420000Y-172767000D01*
%TO.C,D7*%
X72670000Y-146290000D02*
X69985000Y-146290000D01*
X69985000Y-146290000D02*
X69985000Y-148210000D01*
X69985000Y-148210000D02*
X72670000Y-148210000D01*
%TO.C,D6*%
X53250000Y-148210000D02*
X55935000Y-148210000D01*
X55935000Y-148210000D02*
X55935000Y-146290000D01*
X55935000Y-146290000D02*
X53250000Y-146290000D01*
%TO.C,D5*%
X63310000Y-135020000D02*
X63310000Y-135880000D01*
X62920000Y-135460000D02*
X63720000Y-135460000D01*
X63590000Y-142010000D02*
X67390000Y-142010000D01*
X67390000Y-142010000D02*
X67390000Y-135770000D01*
X63590000Y-142010000D02*
X63590000Y-135840000D01*
%TO.C,D4*%
X58310000Y-135020000D02*
X58310000Y-135880000D01*
X57920000Y-135460000D02*
X58720000Y-135460000D01*
X58590000Y-142010000D02*
X62390000Y-142010000D01*
X62390000Y-142010000D02*
X62390000Y-135770000D01*
X58590000Y-142010000D02*
X58590000Y-135840000D01*
%TO.C,D3*%
X48420000Y-168733000D02*
X45735000Y-168733000D01*
X45735000Y-168733000D02*
X45735000Y-170653000D01*
X45735000Y-170653000D02*
X48420000Y-170653000D01*
%TO.C,D2*%
X27700000Y-102640000D02*
X25015000Y-102640000D01*
X25015000Y-102640000D02*
X25015000Y-104560000D01*
X25015000Y-104560000D02*
X27700000Y-104560000D01*
%TO.C,D1*%
X32080000Y-107810000D02*
X31220000Y-107810000D01*
X31640000Y-107420000D02*
X31640000Y-108220000D01*
X25090000Y-108090000D02*
X25090000Y-111890000D01*
X25090000Y-111890000D02*
X31330000Y-111890000D01*
X25090000Y-108090000D02*
X31260000Y-108090000D01*
%TO.C,C12*%
X39860000Y-165060000D02*
X39860000Y-163860000D01*
X39860000Y-160540000D02*
X39860000Y-161740000D01*
X36404437Y-160540000D02*
X39860000Y-160540000D01*
X36404437Y-165060000D02*
X39860000Y-165060000D01*
X35340000Y-163995563D02*
X35340000Y-163860000D01*
X35340000Y-161604437D02*
X35340000Y-161740000D01*
X35340000Y-161604437D02*
X36404437Y-160540000D01*
X35340000Y-163995563D02*
X36404437Y-165060000D01*
X34600000Y-161240000D02*
X35100000Y-161240000D01*
X34850000Y-160990000D02*
X34850000Y-161490000D01*
%TO.C,C11*%
X39860000Y-175760000D02*
X39860000Y-174560000D01*
X39860000Y-171240000D02*
X39860000Y-172440000D01*
X36404437Y-171240000D02*
X39860000Y-171240000D01*
X36404437Y-175760000D02*
X39860000Y-175760000D01*
X35340000Y-174695563D02*
X35340000Y-174560000D01*
X35340000Y-172304437D02*
X35340000Y-172440000D01*
X35340000Y-172304437D02*
X36404437Y-171240000D01*
X35340000Y-174695563D02*
X36404437Y-175760000D01*
X34600000Y-171940000D02*
X35100000Y-171940000D01*
X34850000Y-171690000D02*
X34850000Y-172190000D01*
%TO.C,C10*%
X50690000Y-153362779D02*
X50690000Y-153037221D01*
X51710000Y-153362779D02*
X51710000Y-153037221D01*
%TO.C,C9*%
X57710000Y-153037221D02*
X57710000Y-153362779D01*
X56690000Y-153037221D02*
X56690000Y-153362779D01*
%TO.C,C4*%
X28741422Y-146290000D02*
X29258578Y-146290000D01*
X28741422Y-147710000D02*
X29258578Y-147710000D01*
%TO.C,C3*%
X31710000Y-145410000D02*
X31710000Y-143060000D01*
X31710000Y-138590000D02*
X31710000Y-140940000D01*
X25954437Y-138590000D02*
X31710000Y-138590000D01*
X25954437Y-145410000D02*
X31710000Y-145410000D01*
X24890000Y-144345563D02*
X24890000Y-143060000D01*
X24890000Y-139654437D02*
X24890000Y-140940000D01*
X24890000Y-139654437D02*
X25954437Y-138590000D01*
X24890000Y-144345563D02*
X25954437Y-145410000D01*
X23862500Y-140152500D02*
X24650000Y-140152500D01*
X24256250Y-139758750D02*
X24256250Y-140546250D01*
%TO.C,C2*%
X28491422Y-121290000D02*
X29008578Y-121290000D01*
X28491422Y-122710000D02*
X29008578Y-122710000D01*
%TO.C,C1*%
X31710000Y-120410000D02*
X31710000Y-118060000D01*
X31710000Y-113590000D02*
X31710000Y-115940000D01*
X25954437Y-113590000D02*
X31710000Y-113590000D01*
X25954437Y-120410000D02*
X31710000Y-120410000D01*
X24890000Y-119345563D02*
X24890000Y-118060000D01*
X24890000Y-114654437D02*
X24890000Y-115940000D01*
X24890000Y-114654437D02*
X25954437Y-113590000D01*
X24890000Y-119345563D02*
X25954437Y-120410000D01*
X23862500Y-115152500D02*
X24650000Y-115152500D01*
X24256250Y-114758750D02*
X24256250Y-115546250D01*
%TO.C,HS1*%
D10*
X90752380Y-157138095D02*
X89752380Y-157138095D01*
X90228571Y-157138095D02*
X90228571Y-156566666D01*
X90752380Y-156566666D02*
X89752380Y-156566666D01*
X90704761Y-156138095D02*
X90752380Y-155995238D01*
X90752380Y-155757142D01*
X90704761Y-155661904D01*
X90657142Y-155614285D01*
X90561904Y-155566666D01*
X90466666Y-155566666D01*
X90371428Y-155614285D01*
X90323809Y-155661904D01*
X90276190Y-155757142D01*
X90228571Y-155947619D01*
X90180952Y-156042857D01*
X90133333Y-156090476D01*
X90038095Y-156138095D01*
X89942857Y-156138095D01*
X89847619Y-156090476D01*
X89800000Y-156042857D01*
X89752380Y-155947619D01*
X89752380Y-155709523D01*
X89800000Y-155566666D01*
X90752380Y-154614285D02*
X90752380Y-155185714D01*
X90752380Y-154900000D02*
X89752380Y-154900000D01*
X89895238Y-154995238D01*
X89990476Y-155090476D01*
X90038095Y-155185714D01*
%TO.C,RLY1*%
X51000000Y-105152380D02*
X50666666Y-104676190D01*
X50428571Y-105152380D02*
X50428571Y-104152380D01*
X50809523Y-104152380D01*
X50904761Y-104200000D01*
X50952380Y-104247619D01*
X51000000Y-104342857D01*
X51000000Y-104485714D01*
X50952380Y-104580952D01*
X50904761Y-104628571D01*
X50809523Y-104676190D01*
X50428571Y-104676190D01*
X51904761Y-105152380D02*
X51428571Y-105152380D01*
X51428571Y-104152380D01*
X52428571Y-104676190D02*
X52428571Y-105152380D01*
X52095238Y-104152380D02*
X52428571Y-104676190D01*
X52761904Y-104152380D01*
X53619047Y-105152380D02*
X53047619Y-105152380D01*
X53333333Y-105152380D02*
X53333333Y-104152380D01*
X53238095Y-104295238D01*
X53142857Y-104390476D01*
X53047619Y-104438095D01*
%TO.C,C6*%
X61783333Y-169557142D02*
X61735714Y-169604761D01*
X61592857Y-169652380D01*
X61497619Y-169652380D01*
X61354761Y-169604761D01*
X61259523Y-169509523D01*
X61211904Y-169414285D01*
X61164285Y-169223809D01*
X61164285Y-169080952D01*
X61211904Y-168890476D01*
X61259523Y-168795238D01*
X61354761Y-168700000D01*
X61497619Y-168652380D01*
X61592857Y-168652380D01*
X61735714Y-168700000D01*
X61783333Y-168747619D01*
X62640476Y-168652380D02*
X62450000Y-168652380D01*
X62354761Y-168700000D01*
X62307142Y-168747619D01*
X62211904Y-168890476D01*
X62164285Y-169080952D01*
X62164285Y-169461904D01*
X62211904Y-169557142D01*
X62259523Y-169604761D01*
X62354761Y-169652380D01*
X62545238Y-169652380D01*
X62640476Y-169604761D01*
X62688095Y-169557142D01*
X62735714Y-169461904D01*
X62735714Y-169223809D01*
X62688095Y-169128571D01*
X62640476Y-169080952D01*
X62545238Y-169033333D01*
X62354761Y-169033333D01*
X62259523Y-169080952D01*
X62211904Y-169128571D01*
X62164285Y-169223809D01*
%TO.C,C8*%
X61733333Y-152707142D02*
X61685714Y-152754761D01*
X61542857Y-152802380D01*
X61447619Y-152802380D01*
X61304761Y-152754761D01*
X61209523Y-152659523D01*
X61161904Y-152564285D01*
X61114285Y-152373809D01*
X61114285Y-152230952D01*
X61161904Y-152040476D01*
X61209523Y-151945238D01*
X61304761Y-151850000D01*
X61447619Y-151802380D01*
X61542857Y-151802380D01*
X61685714Y-151850000D01*
X61733333Y-151897619D01*
X62304761Y-152230952D02*
X62209523Y-152183333D01*
X62161904Y-152135714D01*
X62114285Y-152040476D01*
X62114285Y-151992857D01*
X62161904Y-151897619D01*
X62209523Y-151850000D01*
X62304761Y-151802380D01*
X62495238Y-151802380D01*
X62590476Y-151850000D01*
X62638095Y-151897619D01*
X62685714Y-151992857D01*
X62685714Y-152040476D01*
X62638095Y-152135714D01*
X62590476Y-152183333D01*
X62495238Y-152230952D01*
X62304761Y-152230952D01*
X62209523Y-152278571D01*
X62161904Y-152326190D01*
X62114285Y-152421428D01*
X62114285Y-152611904D01*
X62161904Y-152707142D01*
X62209523Y-152754761D01*
X62304761Y-152802380D01*
X62495238Y-152802380D01*
X62590476Y-152754761D01*
X62638095Y-152707142D01*
X62685714Y-152611904D01*
X62685714Y-152421428D01*
X62638095Y-152326190D01*
X62590476Y-152278571D01*
X62495238Y-152230952D01*
%TO.C,C7*%
X61733333Y-154257142D02*
X61685714Y-154304761D01*
X61542857Y-154352380D01*
X61447619Y-154352380D01*
X61304761Y-154304761D01*
X61209523Y-154209523D01*
X61161904Y-154114285D01*
X61114285Y-153923809D01*
X61114285Y-153780952D01*
X61161904Y-153590476D01*
X61209523Y-153495238D01*
X61304761Y-153400000D01*
X61447619Y-153352380D01*
X61542857Y-153352380D01*
X61685714Y-153400000D01*
X61733333Y-153447619D01*
X62066666Y-153352380D02*
X62733333Y-153352380D01*
X62304761Y-154352380D01*
%TO.C,U2*%
X64488095Y-155452380D02*
X64488095Y-156261904D01*
X64535714Y-156357142D01*
X64583333Y-156404761D01*
X64678571Y-156452380D01*
X64869047Y-156452380D01*
X64964285Y-156404761D01*
X65011904Y-156357142D01*
X65059523Y-156261904D01*
X65059523Y-155452380D01*
X65488095Y-155547619D02*
X65535714Y-155500000D01*
X65630952Y-155452380D01*
X65869047Y-155452380D01*
X65964285Y-155500000D01*
X66011904Y-155547619D01*
X66059523Y-155642857D01*
X66059523Y-155738095D01*
X66011904Y-155880952D01*
X65440476Y-156452380D01*
X66059523Y-156452380D01*
%TO.C,Y1*%
X53723809Y-150576190D02*
X53723809Y-151052380D01*
X53390476Y-150052380D02*
X53723809Y-150576190D01*
X54057142Y-150052380D01*
X54914285Y-151052380D02*
X54342857Y-151052380D01*
X54628571Y-151052380D02*
X54628571Y-150052380D01*
X54533333Y-150195238D01*
X54438095Y-150290476D01*
X54342857Y-150338095D01*
%TO.C,U3*%
X87692380Y-156771904D02*
X88501904Y-156771904D01*
X88597142Y-156724285D01*
X88644761Y-156676666D01*
X88692380Y-156581428D01*
X88692380Y-156390952D01*
X88644761Y-156295714D01*
X88597142Y-156248095D01*
X88501904Y-156200476D01*
X87692380Y-156200476D01*
X87692380Y-155819523D02*
X87692380Y-155200476D01*
X88073333Y-155533809D01*
X88073333Y-155390952D01*
X88120952Y-155295714D01*
X88168571Y-155248095D01*
X88263809Y-155200476D01*
X88501904Y-155200476D01*
X88597142Y-155248095D01*
X88644761Y-155295714D01*
X88692380Y-155390952D01*
X88692380Y-155676666D01*
X88644761Y-155771904D01*
X88597142Y-155819523D01*
%TO.C,U1*%
X23488095Y-134452380D02*
X23488095Y-135261904D01*
X23535714Y-135357142D01*
X23583333Y-135404761D01*
X23678571Y-135452380D01*
X23869047Y-135452380D01*
X23964285Y-135404761D01*
X24011904Y-135357142D01*
X24059523Y-135261904D01*
X24059523Y-134452380D01*
X25059523Y-135452380D02*
X24488095Y-135452380D01*
X24773809Y-135452380D02*
X24773809Y-134452380D01*
X24678571Y-134595238D01*
X24583333Y-134690476D01*
X24488095Y-134738095D01*
%TO.C,RLY2*%
X86400000Y-105152380D02*
X86066666Y-104676190D01*
X85828571Y-105152380D02*
X85828571Y-104152380D01*
X86209523Y-104152380D01*
X86304761Y-104200000D01*
X86352380Y-104247619D01*
X86400000Y-104342857D01*
X86400000Y-104485714D01*
X86352380Y-104580952D01*
X86304761Y-104628571D01*
X86209523Y-104676190D01*
X85828571Y-104676190D01*
X87304761Y-105152380D02*
X86828571Y-105152380D01*
X86828571Y-104152380D01*
X87828571Y-104676190D02*
X87828571Y-105152380D01*
X87495238Y-104152380D02*
X87828571Y-104676190D01*
X88161904Y-104152380D01*
X88447619Y-104247619D02*
X88495238Y-104200000D01*
X88590476Y-104152380D01*
X88828571Y-104152380D01*
X88923809Y-104200000D01*
X88971428Y-104247619D01*
X89019047Y-104342857D01*
X89019047Y-104438095D01*
X88971428Y-104580952D01*
X88400000Y-105152380D01*
X89019047Y-105152380D01*
%TO.C,R19*%
X46607142Y-164452380D02*
X46273809Y-163976190D01*
X46035714Y-164452380D02*
X46035714Y-163452380D01*
X46416666Y-163452380D01*
X46511904Y-163500000D01*
X46559523Y-163547619D01*
X46607142Y-163642857D01*
X46607142Y-163785714D01*
X46559523Y-163880952D01*
X46511904Y-163928571D01*
X46416666Y-163976190D01*
X46035714Y-163976190D01*
X47559523Y-164452380D02*
X46988095Y-164452380D01*
X47273809Y-164452380D02*
X47273809Y-163452380D01*
X47178571Y-163595238D01*
X47083333Y-163690476D01*
X46988095Y-163738095D01*
X48035714Y-164452380D02*
X48226190Y-164452380D01*
X48321428Y-164404761D01*
X48369047Y-164357142D01*
X48464285Y-164214285D01*
X48511904Y-164023809D01*
X48511904Y-163642857D01*
X48464285Y-163547619D01*
X48416666Y-163500000D01*
X48321428Y-163452380D01*
X48130952Y-163452380D01*
X48035714Y-163500000D01*
X47988095Y-163547619D01*
X47940476Y-163642857D01*
X47940476Y-163880952D01*
X47988095Y-163976190D01*
X48035714Y-164023809D01*
X48130952Y-164071428D01*
X48321428Y-164071428D01*
X48416666Y-164023809D01*
X48464285Y-163976190D01*
X48511904Y-163880952D01*
%TO.C,R18*%
X67594642Y-155752380D02*
X67261309Y-155276190D01*
X67023214Y-155752380D02*
X67023214Y-154752380D01*
X67404166Y-154752380D01*
X67499404Y-154800000D01*
X67547023Y-154847619D01*
X67594642Y-154942857D01*
X67594642Y-155085714D01*
X67547023Y-155180952D01*
X67499404Y-155228571D01*
X67404166Y-155276190D01*
X67023214Y-155276190D01*
X68547023Y-155752380D02*
X67975595Y-155752380D01*
X68261309Y-155752380D02*
X68261309Y-154752380D01*
X68166071Y-154895238D01*
X68070833Y-154990476D01*
X67975595Y-155038095D01*
X69118452Y-155180952D02*
X69023214Y-155133333D01*
X68975595Y-155085714D01*
X68927976Y-154990476D01*
X68927976Y-154942857D01*
X68975595Y-154847619D01*
X69023214Y-154800000D01*
X69118452Y-154752380D01*
X69308928Y-154752380D01*
X69404166Y-154800000D01*
X69451785Y-154847619D01*
X69499404Y-154942857D01*
X69499404Y-154990476D01*
X69451785Y-155085714D01*
X69404166Y-155133333D01*
X69308928Y-155180952D01*
X69118452Y-155180952D01*
X69023214Y-155228571D01*
X68975595Y-155276190D01*
X68927976Y-155371428D01*
X68927976Y-155561904D01*
X68975595Y-155657142D01*
X69023214Y-155704761D01*
X69118452Y-155752380D01*
X69308928Y-155752380D01*
X69404166Y-155704761D01*
X69451785Y-155657142D01*
X69499404Y-155561904D01*
X69499404Y-155371428D01*
X69451785Y-155276190D01*
X69404166Y-155228571D01*
X69308928Y-155180952D01*
%TO.C,R17*%
X67594642Y-157802380D02*
X67261309Y-157326190D01*
X67023214Y-157802380D02*
X67023214Y-156802380D01*
X67404166Y-156802380D01*
X67499404Y-156850000D01*
X67547023Y-156897619D01*
X67594642Y-156992857D01*
X67594642Y-157135714D01*
X67547023Y-157230952D01*
X67499404Y-157278571D01*
X67404166Y-157326190D01*
X67023214Y-157326190D01*
X68547023Y-157802380D02*
X67975595Y-157802380D01*
X68261309Y-157802380D02*
X68261309Y-156802380D01*
X68166071Y-156945238D01*
X68070833Y-157040476D01*
X67975595Y-157088095D01*
X68880357Y-156802380D02*
X69547023Y-156802380D01*
X69118452Y-157802380D01*
%TO.C,R16*%
X67594642Y-159852380D02*
X67261309Y-159376190D01*
X67023214Y-159852380D02*
X67023214Y-158852380D01*
X67404166Y-158852380D01*
X67499404Y-158900000D01*
X67547023Y-158947619D01*
X67594642Y-159042857D01*
X67594642Y-159185714D01*
X67547023Y-159280952D01*
X67499404Y-159328571D01*
X67404166Y-159376190D01*
X67023214Y-159376190D01*
X68547023Y-159852380D02*
X67975595Y-159852380D01*
X68261309Y-159852380D02*
X68261309Y-158852380D01*
X68166071Y-158995238D01*
X68070833Y-159090476D01*
X67975595Y-159138095D01*
X69404166Y-158852380D02*
X69213690Y-158852380D01*
X69118452Y-158900000D01*
X69070833Y-158947619D01*
X68975595Y-159090476D01*
X68927976Y-159280952D01*
X68927976Y-159661904D01*
X68975595Y-159757142D01*
X69023214Y-159804761D01*
X69118452Y-159852380D01*
X69308928Y-159852380D01*
X69404166Y-159804761D01*
X69451785Y-159757142D01*
X69499404Y-159661904D01*
X69499404Y-159423809D01*
X69451785Y-159328571D01*
X69404166Y-159280952D01*
X69308928Y-159233333D01*
X69118452Y-159233333D01*
X69023214Y-159280952D01*
X68975595Y-159328571D01*
X68927976Y-159423809D01*
%TO.C,R15*%
X67594642Y-162152380D02*
X67261309Y-161676190D01*
X67023214Y-162152380D02*
X67023214Y-161152380D01*
X67404166Y-161152380D01*
X67499404Y-161200000D01*
X67547023Y-161247619D01*
X67594642Y-161342857D01*
X67594642Y-161485714D01*
X67547023Y-161580952D01*
X67499404Y-161628571D01*
X67404166Y-161676190D01*
X67023214Y-161676190D01*
X68547023Y-162152380D02*
X67975595Y-162152380D01*
X68261309Y-162152380D02*
X68261309Y-161152380D01*
X68166071Y-161295238D01*
X68070833Y-161390476D01*
X67975595Y-161438095D01*
X69451785Y-161152380D02*
X68975595Y-161152380D01*
X68927976Y-161628571D01*
X68975595Y-161580952D01*
X69070833Y-161533333D01*
X69308928Y-161533333D01*
X69404166Y-161580952D01*
X69451785Y-161628571D01*
X69499404Y-161723809D01*
X69499404Y-161961904D01*
X69451785Y-162057142D01*
X69404166Y-162104761D01*
X69308928Y-162152380D01*
X69070833Y-162152380D01*
X68975595Y-162104761D01*
X68927976Y-162057142D01*
%TO.C,R14*%
X33857142Y-168952380D02*
X33523809Y-168476190D01*
X33285714Y-168952380D02*
X33285714Y-167952380D01*
X33666666Y-167952380D01*
X33761904Y-168000000D01*
X33809523Y-168047619D01*
X33857142Y-168142857D01*
X33857142Y-168285714D01*
X33809523Y-168380952D01*
X33761904Y-168428571D01*
X33666666Y-168476190D01*
X33285714Y-168476190D01*
X34809523Y-168952380D02*
X34238095Y-168952380D01*
X34523809Y-168952380D02*
X34523809Y-167952380D01*
X34428571Y-168095238D01*
X34333333Y-168190476D01*
X34238095Y-168238095D01*
X35666666Y-168285714D02*
X35666666Y-168952380D01*
X35428571Y-167904761D02*
X35190476Y-168619047D01*
X35809523Y-168619047D01*
%TO.C,R13*%
X33857142Y-166952380D02*
X33523809Y-166476190D01*
X33285714Y-166952380D02*
X33285714Y-165952380D01*
X33666666Y-165952380D01*
X33761904Y-166000000D01*
X33809523Y-166047619D01*
X33857142Y-166142857D01*
X33857142Y-166285714D01*
X33809523Y-166380952D01*
X33761904Y-166428571D01*
X33666666Y-166476190D01*
X33285714Y-166476190D01*
X34809523Y-166952380D02*
X34238095Y-166952380D01*
X34523809Y-166952380D02*
X34523809Y-165952380D01*
X34428571Y-166095238D01*
X34333333Y-166190476D01*
X34238095Y-166238095D01*
X35142857Y-165952380D02*
X35761904Y-165952380D01*
X35428571Y-166333333D01*
X35571428Y-166333333D01*
X35666666Y-166380952D01*
X35714285Y-166428571D01*
X35761904Y-166523809D01*
X35761904Y-166761904D01*
X35714285Y-166857142D01*
X35666666Y-166904761D01*
X35571428Y-166952380D01*
X35285714Y-166952380D01*
X35190476Y-166904761D01*
X35142857Y-166857142D01*
%TO.C,R12*%
X33857142Y-179552380D02*
X33523809Y-179076190D01*
X33285714Y-179552380D02*
X33285714Y-178552380D01*
X33666666Y-178552380D01*
X33761904Y-178600000D01*
X33809523Y-178647619D01*
X33857142Y-178742857D01*
X33857142Y-178885714D01*
X33809523Y-178980952D01*
X33761904Y-179028571D01*
X33666666Y-179076190D01*
X33285714Y-179076190D01*
X34809523Y-179552380D02*
X34238095Y-179552380D01*
X34523809Y-179552380D02*
X34523809Y-178552380D01*
X34428571Y-178695238D01*
X34333333Y-178790476D01*
X34238095Y-178838095D01*
X35190476Y-178647619D02*
X35238095Y-178600000D01*
X35333333Y-178552380D01*
X35571428Y-178552380D01*
X35666666Y-178600000D01*
X35714285Y-178647619D01*
X35761904Y-178742857D01*
X35761904Y-178838095D01*
X35714285Y-178980952D01*
X35142857Y-179552380D01*
X35761904Y-179552380D01*
%TO.C,R11*%
X33857142Y-177452380D02*
X33523809Y-176976190D01*
X33285714Y-177452380D02*
X33285714Y-176452380D01*
X33666666Y-176452380D01*
X33761904Y-176500000D01*
X33809523Y-176547619D01*
X33857142Y-176642857D01*
X33857142Y-176785714D01*
X33809523Y-176880952D01*
X33761904Y-176928571D01*
X33666666Y-176976190D01*
X33285714Y-176976190D01*
X34809523Y-177452380D02*
X34238095Y-177452380D01*
X34523809Y-177452380D02*
X34523809Y-176452380D01*
X34428571Y-176595238D01*
X34333333Y-176690476D01*
X34238095Y-176738095D01*
X35761904Y-177452380D02*
X35190476Y-177452380D01*
X35476190Y-177452380D02*
X35476190Y-176452380D01*
X35380952Y-176595238D01*
X35285714Y-176690476D01*
X35190476Y-176738095D01*
%TO.C,R10*%
X46657142Y-178152380D02*
X46323809Y-177676190D01*
X46085714Y-178152380D02*
X46085714Y-177152380D01*
X46466666Y-177152380D01*
X46561904Y-177200000D01*
X46609523Y-177247619D01*
X46657142Y-177342857D01*
X46657142Y-177485714D01*
X46609523Y-177580952D01*
X46561904Y-177628571D01*
X46466666Y-177676190D01*
X46085714Y-177676190D01*
X47609523Y-178152380D02*
X47038095Y-178152380D01*
X47323809Y-178152380D02*
X47323809Y-177152380D01*
X47228571Y-177295238D01*
X47133333Y-177390476D01*
X47038095Y-177438095D01*
X48228571Y-177152380D02*
X48323809Y-177152380D01*
X48419047Y-177200000D01*
X48466666Y-177247619D01*
X48514285Y-177342857D01*
X48561904Y-177533333D01*
X48561904Y-177771428D01*
X48514285Y-177961904D01*
X48466666Y-178057142D01*
X48419047Y-178104761D01*
X48323809Y-178152380D01*
X48228571Y-178152380D01*
X48133333Y-178104761D01*
X48085714Y-178057142D01*
X48038095Y-177961904D01*
X47990476Y-177771428D01*
X47990476Y-177533333D01*
X48038095Y-177342857D01*
X48085714Y-177247619D01*
X48133333Y-177200000D01*
X48228571Y-177152380D01*
%TO.C,R9*%
X49833333Y-174352380D02*
X49500000Y-173876190D01*
X49261904Y-174352380D02*
X49261904Y-173352380D01*
X49642857Y-173352380D01*
X49738095Y-173400000D01*
X49785714Y-173447619D01*
X49833333Y-173542857D01*
X49833333Y-173685714D01*
X49785714Y-173780952D01*
X49738095Y-173828571D01*
X49642857Y-173876190D01*
X49261904Y-173876190D01*
X50309523Y-174352380D02*
X50500000Y-174352380D01*
X50595238Y-174304761D01*
X50642857Y-174257142D01*
X50738095Y-174114285D01*
X50785714Y-173923809D01*
X50785714Y-173542857D01*
X50738095Y-173447619D01*
X50690476Y-173400000D01*
X50595238Y-173352380D01*
X50404761Y-173352380D01*
X50309523Y-173400000D01*
X50261904Y-173447619D01*
X50214285Y-173542857D01*
X50214285Y-173780952D01*
X50261904Y-173876190D01*
X50309523Y-173923809D01*
X50404761Y-173971428D01*
X50595238Y-173971428D01*
X50690476Y-173923809D01*
X50738095Y-173876190D01*
X50785714Y-173780952D01*
%TO.C,R8*%
X74483333Y-141677380D02*
X74150000Y-141201190D01*
X73911904Y-141677380D02*
X73911904Y-140677380D01*
X74292857Y-140677380D01*
X74388095Y-140725000D01*
X74435714Y-140772619D01*
X74483333Y-140867857D01*
X74483333Y-141010714D01*
X74435714Y-141105952D01*
X74388095Y-141153571D01*
X74292857Y-141201190D01*
X73911904Y-141201190D01*
X75054761Y-141105952D02*
X74959523Y-141058333D01*
X74911904Y-141010714D01*
X74864285Y-140915476D01*
X74864285Y-140867857D01*
X74911904Y-140772619D01*
X74959523Y-140725000D01*
X75054761Y-140677380D01*
X75245238Y-140677380D01*
X75340476Y-140725000D01*
X75388095Y-140772619D01*
X75435714Y-140867857D01*
X75435714Y-140915476D01*
X75388095Y-141010714D01*
X75340476Y-141058333D01*
X75245238Y-141105952D01*
X75054761Y-141105952D01*
X74959523Y-141153571D01*
X74911904Y-141201190D01*
X74864285Y-141296428D01*
X74864285Y-141486904D01*
X74911904Y-141582142D01*
X74959523Y-141629761D01*
X75054761Y-141677380D01*
X75245238Y-141677380D01*
X75340476Y-141629761D01*
X75388095Y-141582142D01*
X75435714Y-141486904D01*
X75435714Y-141296428D01*
X75388095Y-141201190D01*
X75340476Y-141153571D01*
X75245238Y-141105952D01*
%TO.C,R7*%
X74483333Y-145702380D02*
X74150000Y-145226190D01*
X73911904Y-145702380D02*
X73911904Y-144702380D01*
X74292857Y-144702380D01*
X74388095Y-144750000D01*
X74435714Y-144797619D01*
X74483333Y-144892857D01*
X74483333Y-145035714D01*
X74435714Y-145130952D01*
X74388095Y-145178571D01*
X74292857Y-145226190D01*
X73911904Y-145226190D01*
X74816666Y-144702380D02*
X75483333Y-144702380D01*
X75054761Y-145702380D01*
%TO.C,R6*%
X74483333Y-143702380D02*
X74150000Y-143226190D01*
X73911904Y-143702380D02*
X73911904Y-142702380D01*
X74292857Y-142702380D01*
X74388095Y-142750000D01*
X74435714Y-142797619D01*
X74483333Y-142892857D01*
X74483333Y-143035714D01*
X74435714Y-143130952D01*
X74388095Y-143178571D01*
X74292857Y-143226190D01*
X73911904Y-143226190D01*
X75340476Y-142702380D02*
X75150000Y-142702380D01*
X75054761Y-142750000D01*
X75007142Y-142797619D01*
X74911904Y-142940476D01*
X74864285Y-143130952D01*
X74864285Y-143511904D01*
X74911904Y-143607142D01*
X74959523Y-143654761D01*
X75054761Y-143702380D01*
X75245238Y-143702380D01*
X75340476Y-143654761D01*
X75388095Y-143607142D01*
X75435714Y-143511904D01*
X75435714Y-143273809D01*
X75388095Y-143178571D01*
X75340476Y-143130952D01*
X75245238Y-143083333D01*
X75054761Y-143083333D01*
X74959523Y-143130952D01*
X74911904Y-143178571D01*
X74864285Y-143273809D01*
%TO.C,R5*%
X51165833Y-141702380D02*
X50832500Y-141226190D01*
X50594404Y-141702380D02*
X50594404Y-140702380D01*
X50975357Y-140702380D01*
X51070595Y-140750000D01*
X51118214Y-140797619D01*
X51165833Y-140892857D01*
X51165833Y-141035714D01*
X51118214Y-141130952D01*
X51070595Y-141178571D01*
X50975357Y-141226190D01*
X50594404Y-141226190D01*
X52070595Y-140702380D02*
X51594404Y-140702380D01*
X51546785Y-141178571D01*
X51594404Y-141130952D01*
X51689642Y-141083333D01*
X51927738Y-141083333D01*
X52022976Y-141130952D01*
X52070595Y-141178571D01*
X52118214Y-141273809D01*
X52118214Y-141511904D01*
X52070595Y-141607142D01*
X52022976Y-141654761D01*
X51927738Y-141702380D01*
X51689642Y-141702380D01*
X51594404Y-141654761D01*
X51546785Y-141607142D01*
%TO.C,R4*%
X51103333Y-145702380D02*
X50770000Y-145226190D01*
X50531904Y-145702380D02*
X50531904Y-144702380D01*
X50912857Y-144702380D01*
X51008095Y-144750000D01*
X51055714Y-144797619D01*
X51103333Y-144892857D01*
X51103333Y-145035714D01*
X51055714Y-145130952D01*
X51008095Y-145178571D01*
X50912857Y-145226190D01*
X50531904Y-145226190D01*
X51960476Y-145035714D02*
X51960476Y-145702380D01*
X51722380Y-144654761D02*
X51484285Y-145369047D01*
X52103333Y-145369047D01*
%TO.C,R3*%
X51103333Y-143702380D02*
X50770000Y-143226190D01*
X50531904Y-143702380D02*
X50531904Y-142702380D01*
X50912857Y-142702380D01*
X51008095Y-142750000D01*
X51055714Y-142797619D01*
X51103333Y-142892857D01*
X51103333Y-143035714D01*
X51055714Y-143130952D01*
X51008095Y-143178571D01*
X50912857Y-143226190D01*
X50531904Y-143226190D01*
X51436666Y-142702380D02*
X52055714Y-142702380D01*
X51722380Y-143083333D01*
X51865238Y-143083333D01*
X51960476Y-143130952D01*
X52008095Y-143178571D01*
X52055714Y-143273809D01*
X52055714Y-143511904D01*
X52008095Y-143607142D01*
X51960476Y-143654761D01*
X51865238Y-143702380D01*
X51579523Y-143702380D01*
X51484285Y-143654761D01*
X51436666Y-143607142D01*
%TO.C,R2*%
X49833333Y-168076380D02*
X49500000Y-167600190D01*
X49261904Y-168076380D02*
X49261904Y-167076380D01*
X49642857Y-167076380D01*
X49738095Y-167124000D01*
X49785714Y-167171619D01*
X49833333Y-167266857D01*
X49833333Y-167409714D01*
X49785714Y-167504952D01*
X49738095Y-167552571D01*
X49642857Y-167600190D01*
X49261904Y-167600190D01*
X50214285Y-167171619D02*
X50261904Y-167124000D01*
X50357142Y-167076380D01*
X50595238Y-167076380D01*
X50690476Y-167124000D01*
X50738095Y-167171619D01*
X50785714Y-167266857D01*
X50785714Y-167362095D01*
X50738095Y-167504952D01*
X50166666Y-168076380D01*
X50785714Y-168076380D01*
%TO.C,R1*%
X32833333Y-104052380D02*
X32500000Y-103576190D01*
X32261904Y-104052380D02*
X32261904Y-103052380D01*
X32642857Y-103052380D01*
X32738095Y-103100000D01*
X32785714Y-103147619D01*
X32833333Y-103242857D01*
X32833333Y-103385714D01*
X32785714Y-103480952D01*
X32738095Y-103528571D01*
X32642857Y-103576190D01*
X32261904Y-103576190D01*
X33785714Y-104052380D02*
X33214285Y-104052380D01*
X33500000Y-104052380D02*
X33500000Y-103052380D01*
X33404761Y-103195238D01*
X33309523Y-103290476D01*
X33214285Y-103338095D01*
%TO.C,Q2*%
X71554761Y-135297619D02*
X71459523Y-135250000D01*
X71364285Y-135154761D01*
X71221428Y-135011904D01*
X71126190Y-134964285D01*
X71030952Y-134964285D01*
X71078571Y-135202380D02*
X70983333Y-135154761D01*
X70888095Y-135059523D01*
X70840476Y-134869047D01*
X70840476Y-134535714D01*
X70888095Y-134345238D01*
X70983333Y-134250000D01*
X71078571Y-134202380D01*
X71269047Y-134202380D01*
X71364285Y-134250000D01*
X71459523Y-134345238D01*
X71507142Y-134535714D01*
X71507142Y-134869047D01*
X71459523Y-135059523D01*
X71364285Y-135154761D01*
X71269047Y-135202380D01*
X71078571Y-135202380D01*
X71888095Y-134297619D02*
X71935714Y-134250000D01*
X72030952Y-134202380D01*
X72269047Y-134202380D01*
X72364285Y-134250000D01*
X72411904Y-134297619D01*
X72459523Y-134392857D01*
X72459523Y-134488095D01*
X72411904Y-134630952D01*
X71840476Y-135202380D01*
X72459523Y-135202380D01*
%TO.C,Q1*%
X54174761Y-135297619D02*
X54079523Y-135250000D01*
X53984285Y-135154761D01*
X53841428Y-135011904D01*
X53746190Y-134964285D01*
X53650952Y-134964285D01*
X53698571Y-135202380D02*
X53603333Y-135154761D01*
X53508095Y-135059523D01*
X53460476Y-134869047D01*
X53460476Y-134535714D01*
X53508095Y-134345238D01*
X53603333Y-134250000D01*
X53698571Y-134202380D01*
X53889047Y-134202380D01*
X53984285Y-134250000D01*
X54079523Y-134345238D01*
X54127142Y-134535714D01*
X54127142Y-134869047D01*
X54079523Y-135059523D01*
X53984285Y-135154761D01*
X53889047Y-135202380D01*
X53698571Y-135202380D01*
X55079523Y-135202380D02*
X54508095Y-135202380D01*
X54793809Y-135202380D02*
X54793809Y-134202380D01*
X54698571Y-134345238D01*
X54603333Y-134440476D01*
X54508095Y-134488095D01*
%TO.C,F1*%
X23066666Y-106178571D02*
X22733333Y-106178571D01*
X22733333Y-106702380D02*
X22733333Y-105702380D01*
X23209523Y-105702380D01*
X24114285Y-106702380D02*
X23542857Y-106702380D01*
X23828571Y-106702380D02*
X23828571Y-105702380D01*
X23733333Y-105845238D01*
X23638095Y-105940476D01*
X23542857Y-105988095D01*
%TO.C,D16*%
X95385714Y-169552380D02*
X95385714Y-168552380D01*
X95623809Y-168552380D01*
X95766666Y-168600000D01*
X95861904Y-168695238D01*
X95909523Y-168790476D01*
X95957142Y-168980952D01*
X95957142Y-169123809D01*
X95909523Y-169314285D01*
X95861904Y-169409523D01*
X95766666Y-169504761D01*
X95623809Y-169552380D01*
X95385714Y-169552380D01*
X96909523Y-169552380D02*
X96338095Y-169552380D01*
X96623809Y-169552380D02*
X96623809Y-168552380D01*
X96528571Y-168695238D01*
X96433333Y-168790476D01*
X96338095Y-168838095D01*
X97766666Y-168552380D02*
X97576190Y-168552380D01*
X97480952Y-168600000D01*
X97433333Y-168647619D01*
X97338095Y-168790476D01*
X97290476Y-168980952D01*
X97290476Y-169361904D01*
X97338095Y-169457142D01*
X97385714Y-169504761D01*
X97480952Y-169552380D01*
X97671428Y-169552380D01*
X97766666Y-169504761D01*
X97814285Y-169457142D01*
X97861904Y-169361904D01*
X97861904Y-169123809D01*
X97814285Y-169028571D01*
X97766666Y-168980952D01*
X97671428Y-168933333D01*
X97480952Y-168933333D01*
X97385714Y-168980952D01*
X97338095Y-169028571D01*
X97290476Y-169123809D01*
%TO.C,D15*%
X81285714Y-169552380D02*
X81285714Y-168552380D01*
X81523809Y-168552380D01*
X81666666Y-168600000D01*
X81761904Y-168695238D01*
X81809523Y-168790476D01*
X81857142Y-168980952D01*
X81857142Y-169123809D01*
X81809523Y-169314285D01*
X81761904Y-169409523D01*
X81666666Y-169504761D01*
X81523809Y-169552380D01*
X81285714Y-169552380D01*
X82809523Y-169552380D02*
X82238095Y-169552380D01*
X82523809Y-169552380D02*
X82523809Y-168552380D01*
X82428571Y-168695238D01*
X82333333Y-168790476D01*
X82238095Y-168838095D01*
X83714285Y-168552380D02*
X83238095Y-168552380D01*
X83190476Y-169028571D01*
X83238095Y-168980952D01*
X83333333Y-168933333D01*
X83571428Y-168933333D01*
X83666666Y-168980952D01*
X83714285Y-169028571D01*
X83761904Y-169123809D01*
X83761904Y-169361904D01*
X83714285Y-169457142D01*
X83666666Y-169504761D01*
X83571428Y-169552380D01*
X83333333Y-169552380D01*
X83238095Y-169504761D01*
X83190476Y-169457142D01*
%TO.C,D14*%
X81285714Y-143452380D02*
X81285714Y-142452380D01*
X81523809Y-142452380D01*
X81666666Y-142500000D01*
X81761904Y-142595238D01*
X81809523Y-142690476D01*
X81857142Y-142880952D01*
X81857142Y-143023809D01*
X81809523Y-143214285D01*
X81761904Y-143309523D01*
X81666666Y-143404761D01*
X81523809Y-143452380D01*
X81285714Y-143452380D01*
X82809523Y-143452380D02*
X82238095Y-143452380D01*
X82523809Y-143452380D02*
X82523809Y-142452380D01*
X82428571Y-142595238D01*
X82333333Y-142690476D01*
X82238095Y-142738095D01*
X83666666Y-142785714D02*
X83666666Y-143452380D01*
X83428571Y-142404761D02*
X83190476Y-143119047D01*
X83809523Y-143119047D01*
%TO.C,D13*%
X95285714Y-143452380D02*
X95285714Y-142452380D01*
X95523809Y-142452380D01*
X95666666Y-142500000D01*
X95761904Y-142595238D01*
X95809523Y-142690476D01*
X95857142Y-142880952D01*
X95857142Y-143023809D01*
X95809523Y-143214285D01*
X95761904Y-143309523D01*
X95666666Y-143404761D01*
X95523809Y-143452380D01*
X95285714Y-143452380D01*
X96809523Y-143452380D02*
X96238095Y-143452380D01*
X96523809Y-143452380D02*
X96523809Y-142452380D01*
X96428571Y-142595238D01*
X96333333Y-142690476D01*
X96238095Y-142738095D01*
X97142857Y-142452380D02*
X97761904Y-142452380D01*
X97428571Y-142833333D01*
X97571428Y-142833333D01*
X97666666Y-142880952D01*
X97714285Y-142928571D01*
X97761904Y-143023809D01*
X97761904Y-143261904D01*
X97714285Y-143357142D01*
X97666666Y-143404761D01*
X97571428Y-143452380D01*
X97285714Y-143452380D01*
X97190476Y-143404761D01*
X97142857Y-143357142D01*
%TO.C,D12*%
X90785714Y-169552380D02*
X90785714Y-168552380D01*
X91023809Y-168552380D01*
X91166666Y-168600000D01*
X91261904Y-168695238D01*
X91309523Y-168790476D01*
X91357142Y-168980952D01*
X91357142Y-169123809D01*
X91309523Y-169314285D01*
X91261904Y-169409523D01*
X91166666Y-169504761D01*
X91023809Y-169552380D01*
X90785714Y-169552380D01*
X92309523Y-169552380D02*
X91738095Y-169552380D01*
X92023809Y-169552380D02*
X92023809Y-168552380D01*
X91928571Y-168695238D01*
X91833333Y-168790476D01*
X91738095Y-168838095D01*
X92690476Y-168647619D02*
X92738095Y-168600000D01*
X92833333Y-168552380D01*
X93071428Y-168552380D01*
X93166666Y-168600000D01*
X93214285Y-168647619D01*
X93261904Y-168742857D01*
X93261904Y-168838095D01*
X93214285Y-168980952D01*
X92642857Y-169552380D01*
X93261904Y-169552380D01*
%TO.C,D11*%
X85985714Y-169552380D02*
X85985714Y-168552380D01*
X86223809Y-168552380D01*
X86366666Y-168600000D01*
X86461904Y-168695238D01*
X86509523Y-168790476D01*
X86557142Y-168980952D01*
X86557142Y-169123809D01*
X86509523Y-169314285D01*
X86461904Y-169409523D01*
X86366666Y-169504761D01*
X86223809Y-169552380D01*
X85985714Y-169552380D01*
X87509523Y-169552380D02*
X86938095Y-169552380D01*
X87223809Y-169552380D02*
X87223809Y-168552380D01*
X87128571Y-168695238D01*
X87033333Y-168790476D01*
X86938095Y-168838095D01*
X88461904Y-169552380D02*
X87890476Y-169552380D01*
X88176190Y-169552380D02*
X88176190Y-168552380D01*
X88080952Y-168695238D01*
X87985714Y-168790476D01*
X87890476Y-168838095D01*
%TO.C,D10*%
X85885714Y-143452380D02*
X85885714Y-142452380D01*
X86123809Y-142452380D01*
X86266666Y-142500000D01*
X86361904Y-142595238D01*
X86409523Y-142690476D01*
X86457142Y-142880952D01*
X86457142Y-143023809D01*
X86409523Y-143214285D01*
X86361904Y-143309523D01*
X86266666Y-143404761D01*
X86123809Y-143452380D01*
X85885714Y-143452380D01*
X87409523Y-143452380D02*
X86838095Y-143452380D01*
X87123809Y-143452380D02*
X87123809Y-142452380D01*
X87028571Y-142595238D01*
X86933333Y-142690476D01*
X86838095Y-142738095D01*
X88028571Y-142452380D02*
X88123809Y-142452380D01*
X88219047Y-142500000D01*
X88266666Y-142547619D01*
X88314285Y-142642857D01*
X88361904Y-142833333D01*
X88361904Y-143071428D01*
X88314285Y-143261904D01*
X88266666Y-143357142D01*
X88219047Y-143404761D01*
X88123809Y-143452380D01*
X88028571Y-143452380D01*
X87933333Y-143404761D01*
X87885714Y-143357142D01*
X87838095Y-143261904D01*
X87790476Y-143071428D01*
X87790476Y-142833333D01*
X87838095Y-142642857D01*
X87885714Y-142547619D01*
X87933333Y-142500000D01*
X88028571Y-142452380D01*
%TO.C,D9*%
X91161904Y-143452380D02*
X91161904Y-142452380D01*
X91400000Y-142452380D01*
X91542857Y-142500000D01*
X91638095Y-142595238D01*
X91685714Y-142690476D01*
X91733333Y-142880952D01*
X91733333Y-143023809D01*
X91685714Y-143214285D01*
X91638095Y-143309523D01*
X91542857Y-143404761D01*
X91400000Y-143452380D01*
X91161904Y-143452380D01*
X92209523Y-143452380D02*
X92400000Y-143452380D01*
X92495238Y-143404761D01*
X92542857Y-143357142D01*
X92638095Y-143214285D01*
X92685714Y-143023809D01*
X92685714Y-142642857D01*
X92638095Y-142547619D01*
X92590476Y-142500000D01*
X92495238Y-142452380D01*
X92304761Y-142452380D01*
X92209523Y-142500000D01*
X92161904Y-142547619D01*
X92114285Y-142642857D01*
X92114285Y-142880952D01*
X92161904Y-142976190D01*
X92209523Y-143023809D01*
X92304761Y-143071428D01*
X92495238Y-143071428D01*
X92590476Y-143023809D01*
X92638095Y-142976190D01*
X92685714Y-142880952D01*
%TO.C,D5*%
X64661904Y-133802380D02*
X64661904Y-132802380D01*
X64900000Y-132802380D01*
X65042857Y-132850000D01*
X65138095Y-132945238D01*
X65185714Y-133040476D01*
X65233333Y-133230952D01*
X65233333Y-133373809D01*
X65185714Y-133564285D01*
X65138095Y-133659523D01*
X65042857Y-133754761D01*
X64900000Y-133802380D01*
X64661904Y-133802380D01*
X66138095Y-132802380D02*
X65661904Y-132802380D01*
X65614285Y-133278571D01*
X65661904Y-133230952D01*
X65757142Y-133183333D01*
X65995238Y-133183333D01*
X66090476Y-133230952D01*
X66138095Y-133278571D01*
X66185714Y-133373809D01*
X66185714Y-133611904D01*
X66138095Y-133707142D01*
X66090476Y-133754761D01*
X65995238Y-133802380D01*
X65757142Y-133802380D01*
X65661904Y-133754761D01*
X65614285Y-133707142D01*
%TO.C,D4*%
X59861904Y-133802380D02*
X59861904Y-132802380D01*
X60100000Y-132802380D01*
X60242857Y-132850000D01*
X60338095Y-132945238D01*
X60385714Y-133040476D01*
X60433333Y-133230952D01*
X60433333Y-133373809D01*
X60385714Y-133564285D01*
X60338095Y-133659523D01*
X60242857Y-133754761D01*
X60100000Y-133802380D01*
X59861904Y-133802380D01*
X61290476Y-133135714D02*
X61290476Y-133802380D01*
X61052380Y-132754761D02*
X60814285Y-133469047D01*
X61433333Y-133469047D01*
%TO.C,D1*%
X23011904Y-110452380D02*
X23011904Y-109452380D01*
X23250000Y-109452380D01*
X23392857Y-109500000D01*
X23488095Y-109595238D01*
X23535714Y-109690476D01*
X23583333Y-109880952D01*
X23583333Y-110023809D01*
X23535714Y-110214285D01*
X23488095Y-110309523D01*
X23392857Y-110404761D01*
X23250000Y-110452380D01*
X23011904Y-110452380D01*
X24535714Y-110452380D02*
X23964285Y-110452380D01*
X24250000Y-110452380D02*
X24250000Y-109452380D01*
X24154761Y-109595238D01*
X24059523Y-109690476D01*
X23964285Y-109738095D01*
%TO.C,C12*%
X37357142Y-160107142D02*
X37309523Y-160154761D01*
X37166666Y-160202380D01*
X37071428Y-160202380D01*
X36928571Y-160154761D01*
X36833333Y-160059523D01*
X36785714Y-159964285D01*
X36738095Y-159773809D01*
X36738095Y-159630952D01*
X36785714Y-159440476D01*
X36833333Y-159345238D01*
X36928571Y-159250000D01*
X37071428Y-159202380D01*
X37166666Y-159202380D01*
X37309523Y-159250000D01*
X37357142Y-159297619D01*
X38309523Y-160202380D02*
X37738095Y-160202380D01*
X38023809Y-160202380D02*
X38023809Y-159202380D01*
X37928571Y-159345238D01*
X37833333Y-159440476D01*
X37738095Y-159488095D01*
X38690476Y-159297619D02*
X38738095Y-159250000D01*
X38833333Y-159202380D01*
X39071428Y-159202380D01*
X39166666Y-159250000D01*
X39214285Y-159297619D01*
X39261904Y-159392857D01*
X39261904Y-159488095D01*
X39214285Y-159630952D01*
X38642857Y-160202380D01*
X39261904Y-160202380D01*
%TO.C,C11*%
X37607142Y-170857142D02*
X37559523Y-170904761D01*
X37416666Y-170952380D01*
X37321428Y-170952380D01*
X37178571Y-170904761D01*
X37083333Y-170809523D01*
X37035714Y-170714285D01*
X36988095Y-170523809D01*
X36988095Y-170380952D01*
X37035714Y-170190476D01*
X37083333Y-170095238D01*
X37178571Y-170000000D01*
X37321428Y-169952380D01*
X37416666Y-169952380D01*
X37559523Y-170000000D01*
X37607142Y-170047619D01*
X38559523Y-170952380D02*
X37988095Y-170952380D01*
X38273809Y-170952380D02*
X38273809Y-169952380D01*
X38178571Y-170095238D01*
X38083333Y-170190476D01*
X37988095Y-170238095D01*
X39511904Y-170952380D02*
X38940476Y-170952380D01*
X39226190Y-170952380D02*
X39226190Y-169952380D01*
X39130952Y-170095238D01*
X39035714Y-170190476D01*
X38940476Y-170238095D01*
%TO.C,C10*%
X50557142Y-156057142D02*
X50509523Y-156104761D01*
X50366666Y-156152380D01*
X50271428Y-156152380D01*
X50128571Y-156104761D01*
X50033333Y-156009523D01*
X49985714Y-155914285D01*
X49938095Y-155723809D01*
X49938095Y-155580952D01*
X49985714Y-155390476D01*
X50033333Y-155295238D01*
X50128571Y-155200000D01*
X50271428Y-155152380D01*
X50366666Y-155152380D01*
X50509523Y-155200000D01*
X50557142Y-155247619D01*
X51509523Y-156152380D02*
X50938095Y-156152380D01*
X51223809Y-156152380D02*
X51223809Y-155152380D01*
X51128571Y-155295238D01*
X51033333Y-155390476D01*
X50938095Y-155438095D01*
X52128571Y-155152380D02*
X52223809Y-155152380D01*
X52319047Y-155200000D01*
X52366666Y-155247619D01*
X52414285Y-155342857D01*
X52461904Y-155533333D01*
X52461904Y-155771428D01*
X52414285Y-155961904D01*
X52366666Y-156057142D01*
X52319047Y-156104761D01*
X52223809Y-156152380D01*
X52128571Y-156152380D01*
X52033333Y-156104761D01*
X51985714Y-156057142D01*
X51938095Y-155961904D01*
X51890476Y-155771428D01*
X51890476Y-155533333D01*
X51938095Y-155342857D01*
X51985714Y-155247619D01*
X52033333Y-155200000D01*
X52128571Y-155152380D01*
%TO.C,C9*%
X56958333Y-151432142D02*
X56910714Y-151479761D01*
X56767857Y-151527380D01*
X56672619Y-151527380D01*
X56529761Y-151479761D01*
X56434523Y-151384523D01*
X56386904Y-151289285D01*
X56339285Y-151098809D01*
X56339285Y-150955952D01*
X56386904Y-150765476D01*
X56434523Y-150670238D01*
X56529761Y-150575000D01*
X56672619Y-150527380D01*
X56767857Y-150527380D01*
X56910714Y-150575000D01*
X56958333Y-150622619D01*
X57434523Y-151527380D02*
X57625000Y-151527380D01*
X57720238Y-151479761D01*
X57767857Y-151432142D01*
X57863095Y-151289285D01*
X57910714Y-151098809D01*
X57910714Y-150717857D01*
X57863095Y-150622619D01*
X57815476Y-150575000D01*
X57720238Y-150527380D01*
X57529761Y-150527380D01*
X57434523Y-150575000D01*
X57386904Y-150622619D01*
X57339285Y-150717857D01*
X57339285Y-150955952D01*
X57386904Y-151051190D01*
X57434523Y-151098809D01*
X57529761Y-151146428D01*
X57720238Y-151146428D01*
X57815476Y-151098809D01*
X57863095Y-151051190D01*
X57910714Y-150955952D01*
%TO.C,C5*%
X61783333Y-168207142D02*
X61735714Y-168254761D01*
X61592857Y-168302380D01*
X61497619Y-168302380D01*
X61354761Y-168254761D01*
X61259523Y-168159523D01*
X61211904Y-168064285D01*
X61164285Y-167873809D01*
X61164285Y-167730952D01*
X61211904Y-167540476D01*
X61259523Y-167445238D01*
X61354761Y-167350000D01*
X61497619Y-167302380D01*
X61592857Y-167302380D01*
X61735714Y-167350000D01*
X61783333Y-167397619D01*
X62688095Y-167302380D02*
X62211904Y-167302380D01*
X62164285Y-167778571D01*
X62211904Y-167730952D01*
X62307142Y-167683333D01*
X62545238Y-167683333D01*
X62640476Y-167730952D01*
X62688095Y-167778571D01*
X62735714Y-167873809D01*
X62735714Y-168111904D01*
X62688095Y-168207142D01*
X62640476Y-168254761D01*
X62545238Y-168302380D01*
X62307142Y-168302380D01*
X62211904Y-168254761D01*
X62164285Y-168207142D01*
%TO.C,C4*%
X26083333Y-147357142D02*
X26035714Y-147404761D01*
X25892857Y-147452380D01*
X25797619Y-147452380D01*
X25654761Y-147404761D01*
X25559523Y-147309523D01*
X25511904Y-147214285D01*
X25464285Y-147023809D01*
X25464285Y-146880952D01*
X25511904Y-146690476D01*
X25559523Y-146595238D01*
X25654761Y-146500000D01*
X25797619Y-146452380D01*
X25892857Y-146452380D01*
X26035714Y-146500000D01*
X26083333Y-146547619D01*
X26940476Y-146785714D02*
X26940476Y-147452380D01*
X26702380Y-146404761D02*
X26464285Y-147119047D01*
X27083333Y-147119047D01*
%TO.C,C3*%
X23833333Y-146107142D02*
X23785714Y-146154761D01*
X23642857Y-146202380D01*
X23547619Y-146202380D01*
X23404761Y-146154761D01*
X23309523Y-146059523D01*
X23261904Y-145964285D01*
X23214285Y-145773809D01*
X23214285Y-145630952D01*
X23261904Y-145440476D01*
X23309523Y-145345238D01*
X23404761Y-145250000D01*
X23547619Y-145202380D01*
X23642857Y-145202380D01*
X23785714Y-145250000D01*
X23833333Y-145297619D01*
X24166666Y-145202380D02*
X24785714Y-145202380D01*
X24452380Y-145583333D01*
X24595238Y-145583333D01*
X24690476Y-145630952D01*
X24738095Y-145678571D01*
X24785714Y-145773809D01*
X24785714Y-146011904D01*
X24738095Y-146107142D01*
X24690476Y-146154761D01*
X24595238Y-146202380D01*
X24309523Y-146202380D01*
X24214285Y-146154761D01*
X24166666Y-146107142D01*
%TO.C,C2*%
X25583333Y-122357142D02*
X25535714Y-122404761D01*
X25392857Y-122452380D01*
X25297619Y-122452380D01*
X25154761Y-122404761D01*
X25059523Y-122309523D01*
X25011904Y-122214285D01*
X24964285Y-122023809D01*
X24964285Y-121880952D01*
X25011904Y-121690476D01*
X25059523Y-121595238D01*
X25154761Y-121500000D01*
X25297619Y-121452380D01*
X25392857Y-121452380D01*
X25535714Y-121500000D01*
X25583333Y-121547619D01*
X25964285Y-121547619D02*
X26011904Y-121500000D01*
X26107142Y-121452380D01*
X26345238Y-121452380D01*
X26440476Y-121500000D01*
X26488095Y-121547619D01*
X26535714Y-121642857D01*
X26535714Y-121738095D01*
X26488095Y-121880952D01*
X25916666Y-122452380D01*
X26535714Y-122452380D01*
%TO.C,C1*%
X23833333Y-121107142D02*
X23785714Y-121154761D01*
X23642857Y-121202380D01*
X23547619Y-121202380D01*
X23404761Y-121154761D01*
X23309523Y-121059523D01*
X23261904Y-120964285D01*
X23214285Y-120773809D01*
X23214285Y-120630952D01*
X23261904Y-120440476D01*
X23309523Y-120345238D01*
X23404761Y-120250000D01*
X23547619Y-120202380D01*
X23642857Y-120202380D01*
X23785714Y-120250000D01*
X23833333Y-120297619D01*
X24785714Y-121202380D02*
X24214285Y-121202380D01*
X24500000Y-121202380D02*
X24500000Y-120202380D01*
X24404761Y-120345238D01*
X24309523Y-120440476D01*
X24214285Y-120488095D01*
%TD*%
M02*
