M48
; DRILL file {KiCad (5.1.6)-1} date 04/27/22 14:58:22
; FORMAT={3:3/ absolute / metric / suppress leading zeros}
; #@! TF.CreationDate,2022-04-27T14:58:22+09:00
; #@! TF.GenerationSoftware,Kicad,Pcbnew,(5.1.6)-1
FMAT,2
METRIC,TZ
T1C0.400
T2C0.500
T3C0.950
T4C1.000
T5C1.100
T6C1.300
T7C1.500
T8C1.520
T9C2.100
T10C2.300
T11C3.500
%
G90
G05
T1
X24250Y-134000
X24250Y-135250
X24250Y-137500
X24250Y-138750
X24250Y-146250
X24250Y-147500
X24300Y-103100
X24300Y-104100
X25500Y-134000
X25500Y-135250
X25500Y-137500
X25500Y-138750
X25500Y-146250
X25500Y-147500
X26750Y-137500
X26750Y-138750
X26750Y-146250
X26750Y-147500
X30100Y-115500
X30100Y-118500
X31200Y-115500
X31200Y-118500
X32500Y-115500
X32500Y-118500
X32500Y-121500
X32500Y-122600
X32500Y-127000
X32500Y-128100
X32500Y-144000
X32500Y-145200
X32500Y-146400
X32500Y-147500
X33700Y-115500
X33700Y-118500
X33700Y-121500
X33700Y-122600
X33700Y-127000
X33700Y-128100
X33700Y-144000
X33700Y-145200
X33700Y-146300
X33700Y-147500
X39000Y-129000
X39400Y-161200
X39400Y-164400
X39400Y-171900
X39400Y-175100
X39900Y-166400
X39900Y-168500
X39900Y-177100
X39900Y-179100
X41600Y-162800
X41600Y-173500
X43000Y-137500
X43200Y-166400
X44250Y-160000
X45100Y-165600
X45100Y-167600
X45100Y-170700
X45100Y-173900
X45100Y-175900
X46700Y-153250
X47000Y-137500
X47550Y-160000
X50300Y-168250
X53100Y-151025
X54400Y-178400
X54900Y-174600
X55200Y-148750
X55300Y-155375
X55450Y-166100
X55600Y-178400
X56750Y-140750
X56750Y-141750
X58500Y-160700
X58800Y-158300
X58800Y-163600
X59300Y-151650
X59350Y-170100
X59750Y-158800
X59800Y-163650
X60450Y-130450
X60450Y-131450
X60450Y-151650
X60600Y-162700
X60600Y-170100
X60650Y-159750
X61450Y-130450
X61450Y-131450
X61600Y-159200
X61950Y-170650
X61950Y-171700
X61950Y-172750
X61950Y-173750
X61950Y-174800
X62450Y-130450
X62450Y-131450
X62550Y-158650
X63450Y-130450
X63450Y-131450
X64450Y-130450
X64450Y-131450
X65300Y-173500
X65450Y-130450
X65450Y-131450
X69150Y-140750
X69150Y-141750
X69200Y-155300
X69200Y-157400
X70750Y-148750
X71150Y-151150
X74000Y-159400
X74000Y-161450
X74100Y-138250
X74100Y-139250
X74700Y-167900
X75550Y-166850
X79400Y-140600
X79500Y-136000
X79500Y-171200
X79500Y-175800
X82500Y-133500
X82500Y-178400
X87000Y-130500
X87000Y-131500
X87000Y-180100
X87000Y-181100
X88000Y-130500
X88000Y-131500
X88000Y-180100
X88000Y-181100
X89000Y-130500
X89000Y-131500
X89000Y-180100
X89000Y-181100
X90000Y-130500
X90000Y-131500
X90000Y-180100
X90000Y-181100
X91000Y-130500
X91000Y-131500
X91000Y-180100
X91000Y-181100
X92000Y-130500
X92000Y-131500
X92000Y-180100
X92000Y-181100
X96500Y-133500
X96600Y-178400
X99500Y-136000
X99700Y-175800
T2
X104375Y-95000
X105144Y-93144
X105144Y-96856
X107000Y-92375
X107000Y-97625
X108856Y-93144
X108856Y-96856
X109625Y-95000
X24375Y-95000
X25144Y-93144
X25144Y-96856
X27000Y-92375
X27000Y-97625
X28856Y-93144
X28856Y-96856
X29625Y-95000
X104375Y-185000
X105144Y-183144
X105144Y-186856
X107000Y-182375
X107000Y-187625
X108856Y-183144
X108856Y-186856
X109625Y-185000
X24375Y-185000
X25144Y-183144
X25144Y-186856
X27000Y-182375
X27000Y-187625
X28856Y-183144
X28856Y-186856
X29625Y-185000
T3
X77420Y-147010
X77420Y-149550
X77420Y-152090
X77420Y-154630
X77420Y-157170
X77420Y-159710
X77420Y-162250
X77420Y-164790
X82500Y-148280
X82500Y-150820
X82500Y-153360
X82500Y-155900
X82500Y-158440
X82500Y-160980
X82500Y-163520
T4
X38460Y-143090
X38460Y-145630
X38460Y-148170
X38460Y-150710
X38460Y-153250
X41000Y-143090
X41000Y-145630
X41000Y-148170
X41000Y-150710
X41000Y-153250
X56250Y-181950
X56250Y-184490
X56250Y-187030
X53710Y-181950
X53710Y-184490
X53710Y-187030
X87000Y-182960
X87000Y-185500
X89540Y-182960
X89540Y-185500
X92080Y-182960
X92080Y-185500
X94620Y-182960
X94620Y-185500
X97160Y-182960
X97160Y-185500
X61650Y-145960
X61650Y-148500
X64300Y-145960
X64300Y-148500
X66000Y-182960
X66000Y-185500
X68540Y-182960
X68540Y-185500
X71080Y-182960
X71080Y-185500
X73620Y-182960
X73620Y-185500
X76160Y-182960
X76160Y-185500
T5
X105500Y-149250
X105500Y-151790
X28000Y-151960
X28000Y-154500
X28000Y-157040
X34300Y-184000
X36840Y-184000
X39380Y-184000
X41920Y-184000
X44460Y-184000
X47000Y-184000
X28000Y-175260
X28000Y-177800
X28000Y-164860
X28000Y-167400
X105500Y-160000
X105500Y-162540
T6
X61460Y-111900
X61460Y-122100
X83540Y-111900
X83540Y-122100
T7
X89500Y-146900
X89500Y-164900
T8
X61920Y-96000
X67000Y-96000
X77920Y-96000
X83000Y-96000
X38420Y-96000
X43500Y-96000
T9
X48800Y-125900
X64000Y-117000
X81000Y-117000
X96200Y-108100
T10
X38660Y-108100
X46260Y-108100
X98740Y-125900
X106340Y-125900
T11
X107000Y-95000
X27000Y-95000
X107000Y-185000
X27000Y-185000
T0
M30
