%TF.GenerationSoftware,KiCad,Pcbnew,(5.1.6)-1*%
%TF.CreationDate,2022-04-27T14:58:12+09:00*%
%TF.ProjectId,FP-2500 ICHIMASA,46502d32-3530-4302-9049-4348494d4153,rev?*%
%TF.SameCoordinates,Original*%
%TF.FileFunction,Soldermask,Top*%
%TF.FilePolarity,Negative*%
%FSLAX46Y46*%
G04 Gerber Fmt 4.6, Leading zero omitted, Abs format (unit mm)*
G04 Created by KiCad (PCBNEW (5.1.6)-1) date 2022-04-27 14:58:12*
%MOMM*%
%LPD*%
G01*
G04 APERTURE LIST*
%ADD10C,3.100000*%
%ADD11O,1.800000X1.800000*%
%ADD12R,1.800000X1.800000*%
%ADD13C,4.100000*%
%ADD14C,2.400000*%
%ADD15C,2.200000*%
%ADD16R,2.200000X2.200000*%
%ADD17R,3.100000X3.100000*%
%ADD18R,1.700000X0.650000*%
%ADD19R,0.650000X1.700000*%
%ADD20R,1.500000X1.300000*%
%ADD21C,2.050000*%
%ADD22R,3.900000X2.300000*%
%ADD23R,1.600000X2.300000*%
%ADD24C,1.600000*%
%ADD25R,1.800000X1.100000*%
%ADD26R,0.900000X1.000000*%
%ADD27C,0.900000*%
%ADD28C,7.100000*%
%ADD29R,2.900000X2.500000*%
%ADD30R,2.500000X2.900000*%
G04 APERTURE END LIST*
D10*
%TO.C,HS1*%
X89500000Y-164900000D03*
X89500000Y-146900000D03*
%TD*%
D11*
%TO.C,J1*%
X76160000Y-182960000D03*
X76160000Y-185500000D03*
X73620000Y-182960000D03*
X73620000Y-185500000D03*
X71080000Y-182960000D03*
X71080000Y-185500000D03*
X68540000Y-182960000D03*
X68540000Y-185500000D03*
X66000000Y-182960000D03*
D12*
X66000000Y-185500000D03*
%TD*%
D11*
%TO.C,J2*%
X97160000Y-182960000D03*
X97160000Y-185500000D03*
X94620000Y-182960000D03*
X94620000Y-185500000D03*
X92080000Y-182960000D03*
X92080000Y-185500000D03*
X89540000Y-182960000D03*
X89540000Y-185500000D03*
X87000000Y-182960000D03*
D12*
X87000000Y-185500000D03*
%TD*%
D11*
%TO.C,J6*%
X38460000Y-143090000D03*
X41000000Y-143090000D03*
X38460000Y-145630000D03*
X41000000Y-145630000D03*
X38460000Y-148170000D03*
X41000000Y-148170000D03*
X38460000Y-150710000D03*
X41000000Y-150710000D03*
X38460000Y-153250000D03*
D12*
X41000000Y-153250000D03*
%TD*%
D11*
%TO.C,JP4*%
X53710000Y-187030000D03*
X53710000Y-184490000D03*
D12*
X53710000Y-181950000D03*
%TD*%
D13*
%TO.C,RLY1*%
X38660000Y-108100000D03*
X48800000Y-125900000D03*
D14*
X61460000Y-122100000D03*
D13*
X64000000Y-117000000D03*
D14*
X61460000Y-111900000D03*
D13*
X46260000Y-108100000D03*
%TD*%
%TO.C,C6*%
G36*
G01*
X60090000Y-169197500D02*
X60090000Y-168802500D01*
G75*
G02*
X60262500Y-168630000I172500J0D01*
G01*
X60607500Y-168630000D01*
G75*
G02*
X60780000Y-168802500I0J-172500D01*
G01*
X60780000Y-169197500D01*
G75*
G02*
X60607500Y-169370000I-172500J0D01*
G01*
X60262500Y-169370000D01*
G75*
G02*
X60090000Y-169197500I0J172500D01*
G01*
G37*
G36*
G01*
X59120000Y-169197500D02*
X59120000Y-168802500D01*
G75*
G02*
X59292500Y-168630000I172500J0D01*
G01*
X59637500Y-168630000D01*
G75*
G02*
X59810000Y-168802500I0J-172500D01*
G01*
X59810000Y-169197500D01*
G75*
G02*
X59637500Y-169370000I-172500J0D01*
G01*
X59292500Y-169370000D01*
G75*
G02*
X59120000Y-169197500I0J172500D01*
G01*
G37*
%TD*%
%TO.C,C8*%
G36*
G01*
X59760000Y-152452500D02*
X59760000Y-152847500D01*
G75*
G02*
X59587500Y-153020000I-172500J0D01*
G01*
X59242500Y-153020000D01*
G75*
G02*
X59070000Y-152847500I0J172500D01*
G01*
X59070000Y-152452500D01*
G75*
G02*
X59242500Y-152280000I172500J0D01*
G01*
X59587500Y-152280000D01*
G75*
G02*
X59760000Y-152452500I0J-172500D01*
G01*
G37*
G36*
G01*
X60730000Y-152452500D02*
X60730000Y-152847500D01*
G75*
G02*
X60557500Y-153020000I-172500J0D01*
G01*
X60212500Y-153020000D01*
G75*
G02*
X60040000Y-152847500I0J172500D01*
G01*
X60040000Y-152452500D01*
G75*
G02*
X60212500Y-152280000I172500J0D01*
G01*
X60557500Y-152280000D01*
G75*
G02*
X60730000Y-152452500I0J-172500D01*
G01*
G37*
%TD*%
%TO.C,C7*%
G36*
G01*
X59760000Y-153502500D02*
X59760000Y-153897500D01*
G75*
G02*
X59587500Y-154070000I-172500J0D01*
G01*
X59242500Y-154070000D01*
G75*
G02*
X59070000Y-153897500I0J172500D01*
G01*
X59070000Y-153502500D01*
G75*
G02*
X59242500Y-153330000I172500J0D01*
G01*
X59587500Y-153330000D01*
G75*
G02*
X59760000Y-153502500I0J-172500D01*
G01*
G37*
G36*
G01*
X60730000Y-153502500D02*
X60730000Y-153897500D01*
G75*
G02*
X60557500Y-154070000I-172500J0D01*
G01*
X60212500Y-154070000D01*
G75*
G02*
X60040000Y-153897500I0J172500D01*
G01*
X60040000Y-153502500D01*
G75*
G02*
X60212500Y-153330000I172500J0D01*
G01*
X60557500Y-153330000D01*
G75*
G02*
X60730000Y-153502500I0J-172500D01*
G01*
G37*
%TD*%
D15*
%TO.C,J10*%
X105500000Y-162540000D03*
D16*
X105500000Y-160000000D03*
%TD*%
D15*
%TO.C,J9*%
X105500000Y-151790000D03*
D16*
X105500000Y-149250000D03*
%TD*%
D10*
%TO.C,J5*%
X77920000Y-96000000D03*
D17*
X83000000Y-96000000D03*
%TD*%
D10*
%TO.C,J4*%
X61920000Y-96000000D03*
D17*
X67000000Y-96000000D03*
%TD*%
D15*
%TO.C,J8*%
X28000000Y-164860000D03*
D16*
X28000000Y-167400000D03*
%TD*%
D15*
%TO.C,J7*%
X28000000Y-175260000D03*
D16*
X28000000Y-177800000D03*
%TD*%
D18*
%TO.C,U2*%
X64250000Y-158200000D03*
X64250000Y-159000000D03*
X64250000Y-159800000D03*
X64250000Y-160600000D03*
X64250000Y-161400000D03*
X64250000Y-162200000D03*
X64250000Y-163000000D03*
X64250000Y-163800000D03*
D19*
X62800000Y-165250000D03*
X62000000Y-165250000D03*
X61200000Y-165250000D03*
X60400000Y-165250000D03*
X59600000Y-165250000D03*
X58800000Y-165250000D03*
X58000000Y-165250000D03*
X57200000Y-165250000D03*
D18*
X55750000Y-163800000D03*
X55750000Y-163000000D03*
X55750000Y-162200000D03*
X55750000Y-161400000D03*
X55750000Y-160600000D03*
X55750000Y-159800000D03*
X55750000Y-159000000D03*
X55750000Y-158200000D03*
D19*
X57200000Y-156750000D03*
X58000000Y-156750000D03*
X58800000Y-156750000D03*
X59600000Y-156750000D03*
X60400000Y-156750000D03*
X61200000Y-156750000D03*
X62000000Y-156750000D03*
X62800000Y-156750000D03*
%TD*%
D20*
%TO.C,Y1*%
X55300000Y-154050000D03*
X53100000Y-154050000D03*
X53100000Y-152350000D03*
X55300000Y-152350000D03*
%TD*%
D21*
%TO.C,U3*%
X77420000Y-164790000D03*
X82500000Y-163520000D03*
X77420000Y-162250000D03*
X82500000Y-160980000D03*
X77420000Y-159710000D03*
X82500000Y-158440000D03*
X77420000Y-157170000D03*
X82500000Y-155900000D03*
X77420000Y-154630000D03*
X82500000Y-153360000D03*
X77420000Y-152090000D03*
X82500000Y-150820000D03*
X77420000Y-149550000D03*
X82500000Y-148280000D03*
X77420000Y-147010000D03*
%TD*%
D22*
%TO.C,U1*%
X28250000Y-134150000D03*
D23*
X30550000Y-127850000D03*
X28250000Y-127850000D03*
X25950000Y-127850000D03*
%TD*%
D24*
%TO.C,TP3*%
X47000000Y-135000000D03*
%TD*%
%TO.C,TP2*%
X39000000Y-135000000D03*
%TD*%
%TO.C,TP1*%
X43000000Y-135000000D03*
%TD*%
D25*
%TO.C,S1*%
X58050000Y-178350000D03*
X51750000Y-178350000D03*
X58050000Y-174550000D03*
X51750000Y-174550000D03*
%TD*%
D13*
%TO.C,RLY2*%
X106340000Y-125900000D03*
X96200000Y-108100000D03*
D14*
X83540000Y-111900000D03*
D13*
X81000000Y-117000000D03*
D14*
X83540000Y-122100000D03*
D13*
X98740000Y-125900000D03*
%TD*%
%TO.C,R19*%
G36*
G01*
X47800000Y-166081250D02*
X47800000Y-165118750D01*
G75*
G02*
X48068750Y-164850000I268750J0D01*
G01*
X48606250Y-164850000D01*
G75*
G02*
X48875000Y-165118750I0J-268750D01*
G01*
X48875000Y-166081250D01*
G75*
G02*
X48606250Y-166350000I-268750J0D01*
G01*
X48068750Y-166350000D01*
G75*
G02*
X47800000Y-166081250I0J268750D01*
G01*
G37*
G36*
G01*
X45925000Y-166081250D02*
X45925000Y-165118750D01*
G75*
G02*
X46193750Y-164850000I268750J0D01*
G01*
X46731250Y-164850000D01*
G75*
G02*
X47000000Y-165118750I0J-268750D01*
G01*
X47000000Y-166081250D01*
G75*
G02*
X46731250Y-166350000I-268750J0D01*
G01*
X46193750Y-166350000D01*
G75*
G02*
X45925000Y-166081250I0J268750D01*
G01*
G37*
%TD*%
%TO.C,R18*%
G36*
G01*
X71950000Y-155781250D02*
X71950000Y-154818750D01*
G75*
G02*
X72218750Y-154550000I268750J0D01*
G01*
X72756250Y-154550000D01*
G75*
G02*
X73025000Y-154818750I0J-268750D01*
G01*
X73025000Y-155781250D01*
G75*
G02*
X72756250Y-156050000I-268750J0D01*
G01*
X72218750Y-156050000D01*
G75*
G02*
X71950000Y-155781250I0J268750D01*
G01*
G37*
G36*
G01*
X70075000Y-155781250D02*
X70075000Y-154818750D01*
G75*
G02*
X70343750Y-154550000I268750J0D01*
G01*
X70881250Y-154550000D01*
G75*
G02*
X71150000Y-154818750I0J-268750D01*
G01*
X71150000Y-155781250D01*
G75*
G02*
X70881250Y-156050000I-268750J0D01*
G01*
X70343750Y-156050000D01*
G75*
G02*
X70075000Y-155781250I0J268750D01*
G01*
G37*
%TD*%
%TO.C,R17*%
G36*
G01*
X71950000Y-157831250D02*
X71950000Y-156868750D01*
G75*
G02*
X72218750Y-156600000I268750J0D01*
G01*
X72756250Y-156600000D01*
G75*
G02*
X73025000Y-156868750I0J-268750D01*
G01*
X73025000Y-157831250D01*
G75*
G02*
X72756250Y-158100000I-268750J0D01*
G01*
X72218750Y-158100000D01*
G75*
G02*
X71950000Y-157831250I0J268750D01*
G01*
G37*
G36*
G01*
X70075000Y-157831250D02*
X70075000Y-156868750D01*
G75*
G02*
X70343750Y-156600000I268750J0D01*
G01*
X70881250Y-156600000D01*
G75*
G02*
X71150000Y-156868750I0J-268750D01*
G01*
X71150000Y-157831250D01*
G75*
G02*
X70881250Y-158100000I-268750J0D01*
G01*
X70343750Y-158100000D01*
G75*
G02*
X70075000Y-157831250I0J268750D01*
G01*
G37*
%TD*%
%TO.C,R16*%
G36*
G01*
X71950000Y-159881250D02*
X71950000Y-158918750D01*
G75*
G02*
X72218750Y-158650000I268750J0D01*
G01*
X72756250Y-158650000D01*
G75*
G02*
X73025000Y-158918750I0J-268750D01*
G01*
X73025000Y-159881250D01*
G75*
G02*
X72756250Y-160150000I-268750J0D01*
G01*
X72218750Y-160150000D01*
G75*
G02*
X71950000Y-159881250I0J268750D01*
G01*
G37*
G36*
G01*
X70075000Y-159881250D02*
X70075000Y-158918750D01*
G75*
G02*
X70343750Y-158650000I268750J0D01*
G01*
X70881250Y-158650000D01*
G75*
G02*
X71150000Y-158918750I0J-268750D01*
G01*
X71150000Y-159881250D01*
G75*
G02*
X70881250Y-160150000I-268750J0D01*
G01*
X70343750Y-160150000D01*
G75*
G02*
X70075000Y-159881250I0J268750D01*
G01*
G37*
%TD*%
%TO.C,R15*%
G36*
G01*
X71950000Y-161931250D02*
X71950000Y-160968750D01*
G75*
G02*
X72218750Y-160700000I268750J0D01*
G01*
X72756250Y-160700000D01*
G75*
G02*
X73025000Y-160968750I0J-268750D01*
G01*
X73025000Y-161931250D01*
G75*
G02*
X72756250Y-162200000I-268750J0D01*
G01*
X72218750Y-162200000D01*
G75*
G02*
X71950000Y-161931250I0J268750D01*
G01*
G37*
G36*
G01*
X70075000Y-161931250D02*
X70075000Y-160968750D01*
G75*
G02*
X70343750Y-160700000I268750J0D01*
G01*
X70881250Y-160700000D01*
G75*
G02*
X71150000Y-160968750I0J-268750D01*
G01*
X71150000Y-161931250D01*
G75*
G02*
X70881250Y-162200000I-268750J0D01*
G01*
X70343750Y-162200000D01*
G75*
G02*
X70075000Y-161931250I0J268750D01*
G01*
G37*
%TD*%
%TO.C,R14*%
G36*
G01*
X38000000Y-168981250D02*
X38000000Y-168018750D01*
G75*
G02*
X38268750Y-167750000I268750J0D01*
G01*
X38806250Y-167750000D01*
G75*
G02*
X39075000Y-168018750I0J-268750D01*
G01*
X39075000Y-168981250D01*
G75*
G02*
X38806250Y-169250000I-268750J0D01*
G01*
X38268750Y-169250000D01*
G75*
G02*
X38000000Y-168981250I0J268750D01*
G01*
G37*
G36*
G01*
X36125000Y-168981250D02*
X36125000Y-168018750D01*
G75*
G02*
X36393750Y-167750000I268750J0D01*
G01*
X36931250Y-167750000D01*
G75*
G02*
X37200000Y-168018750I0J-268750D01*
G01*
X37200000Y-168981250D01*
G75*
G02*
X36931250Y-169250000I-268750J0D01*
G01*
X36393750Y-169250000D01*
G75*
G02*
X36125000Y-168981250I0J268750D01*
G01*
G37*
%TD*%
%TO.C,R13*%
G36*
G01*
X37200000Y-165918750D02*
X37200000Y-166881250D01*
G75*
G02*
X36931250Y-167150000I-268750J0D01*
G01*
X36393750Y-167150000D01*
G75*
G02*
X36125000Y-166881250I0J268750D01*
G01*
X36125000Y-165918750D01*
G75*
G02*
X36393750Y-165650000I268750J0D01*
G01*
X36931250Y-165650000D01*
G75*
G02*
X37200000Y-165918750I0J-268750D01*
G01*
G37*
G36*
G01*
X39075000Y-165918750D02*
X39075000Y-166881250D01*
G75*
G02*
X38806250Y-167150000I-268750J0D01*
G01*
X38268750Y-167150000D01*
G75*
G02*
X38000000Y-166881250I0J268750D01*
G01*
X38000000Y-165918750D01*
G75*
G02*
X38268750Y-165650000I268750J0D01*
G01*
X38806250Y-165650000D01*
G75*
G02*
X39075000Y-165918750I0J-268750D01*
G01*
G37*
%TD*%
%TO.C,R12*%
G36*
G01*
X38000000Y-179581250D02*
X38000000Y-178618750D01*
G75*
G02*
X38268750Y-178350000I268750J0D01*
G01*
X38806250Y-178350000D01*
G75*
G02*
X39075000Y-178618750I0J-268750D01*
G01*
X39075000Y-179581250D01*
G75*
G02*
X38806250Y-179850000I-268750J0D01*
G01*
X38268750Y-179850000D01*
G75*
G02*
X38000000Y-179581250I0J268750D01*
G01*
G37*
G36*
G01*
X36125000Y-179581250D02*
X36125000Y-178618750D01*
G75*
G02*
X36393750Y-178350000I268750J0D01*
G01*
X36931250Y-178350000D01*
G75*
G02*
X37200000Y-178618750I0J-268750D01*
G01*
X37200000Y-179581250D01*
G75*
G02*
X36931250Y-179850000I-268750J0D01*
G01*
X36393750Y-179850000D01*
G75*
G02*
X36125000Y-179581250I0J268750D01*
G01*
G37*
%TD*%
%TO.C,R11*%
G36*
G01*
X37200000Y-176618750D02*
X37200000Y-177581250D01*
G75*
G02*
X36931250Y-177850000I-268750J0D01*
G01*
X36393750Y-177850000D01*
G75*
G02*
X36125000Y-177581250I0J268750D01*
G01*
X36125000Y-176618750D01*
G75*
G02*
X36393750Y-176350000I268750J0D01*
G01*
X36931250Y-176350000D01*
G75*
G02*
X37200000Y-176618750I0J-268750D01*
G01*
G37*
G36*
G01*
X39075000Y-176618750D02*
X39075000Y-177581250D01*
G75*
G02*
X38806250Y-177850000I-268750J0D01*
G01*
X38268750Y-177850000D01*
G75*
G02*
X38000000Y-177581250I0J268750D01*
G01*
X38000000Y-176618750D01*
G75*
G02*
X38268750Y-176350000I268750J0D01*
G01*
X38806250Y-176350000D01*
G75*
G02*
X39075000Y-176618750I0J-268750D01*
G01*
G37*
%TD*%
%TO.C,R10*%
G36*
G01*
X47800000Y-176381250D02*
X47800000Y-175418750D01*
G75*
G02*
X48068750Y-175150000I268750J0D01*
G01*
X48606250Y-175150000D01*
G75*
G02*
X48875000Y-175418750I0J-268750D01*
G01*
X48875000Y-176381250D01*
G75*
G02*
X48606250Y-176650000I-268750J0D01*
G01*
X48068750Y-176650000D01*
G75*
G02*
X47800000Y-176381250I0J268750D01*
G01*
G37*
G36*
G01*
X45925000Y-176381250D02*
X45925000Y-175418750D01*
G75*
G02*
X46193750Y-175150000I268750J0D01*
G01*
X46731250Y-175150000D01*
G75*
G02*
X47000000Y-175418750I0J-268750D01*
G01*
X47000000Y-176381250D01*
G75*
G02*
X46731250Y-176650000I-268750J0D01*
G01*
X46193750Y-176650000D01*
G75*
G02*
X45925000Y-176381250I0J268750D01*
G01*
G37*
%TD*%
%TO.C,R9*%
G36*
G01*
X47800000Y-174357250D02*
X47800000Y-173394750D01*
G75*
G02*
X48068750Y-173126000I268750J0D01*
G01*
X48606250Y-173126000D01*
G75*
G02*
X48875000Y-173394750I0J-268750D01*
G01*
X48875000Y-174357250D01*
G75*
G02*
X48606250Y-174626000I-268750J0D01*
G01*
X48068750Y-174626000D01*
G75*
G02*
X47800000Y-174357250I0J268750D01*
G01*
G37*
G36*
G01*
X45925000Y-174357250D02*
X45925000Y-173394750D01*
G75*
G02*
X46193750Y-173126000I268750J0D01*
G01*
X46731250Y-173126000D01*
G75*
G02*
X47000000Y-173394750I0J-268750D01*
G01*
X47000000Y-174357250D01*
G75*
G02*
X46731250Y-174626000I-268750J0D01*
G01*
X46193750Y-174626000D01*
G75*
G02*
X45925000Y-174357250I0J268750D01*
G01*
G37*
%TD*%
%TO.C,R8*%
G36*
G01*
X71250000Y-140768750D02*
X71250000Y-141731250D01*
G75*
G02*
X70981250Y-142000000I-268750J0D01*
G01*
X70443750Y-142000000D01*
G75*
G02*
X70175000Y-141731250I0J268750D01*
G01*
X70175000Y-140768750D01*
G75*
G02*
X70443750Y-140500000I268750J0D01*
G01*
X70981250Y-140500000D01*
G75*
G02*
X71250000Y-140768750I0J-268750D01*
G01*
G37*
G36*
G01*
X73125000Y-140768750D02*
X73125000Y-141731250D01*
G75*
G02*
X72856250Y-142000000I-268750J0D01*
G01*
X72318750Y-142000000D01*
G75*
G02*
X72050000Y-141731250I0J268750D01*
G01*
X72050000Y-140768750D01*
G75*
G02*
X72318750Y-140500000I268750J0D01*
G01*
X72856250Y-140500000D01*
G75*
G02*
X73125000Y-140768750I0J-268750D01*
G01*
G37*
%TD*%
%TO.C,R7*%
G36*
G01*
X72050000Y-145731250D02*
X72050000Y-144768750D01*
G75*
G02*
X72318750Y-144500000I268750J0D01*
G01*
X72856250Y-144500000D01*
G75*
G02*
X73125000Y-144768750I0J-268750D01*
G01*
X73125000Y-145731250D01*
G75*
G02*
X72856250Y-146000000I-268750J0D01*
G01*
X72318750Y-146000000D01*
G75*
G02*
X72050000Y-145731250I0J268750D01*
G01*
G37*
G36*
G01*
X70175000Y-145731250D02*
X70175000Y-144768750D01*
G75*
G02*
X70443750Y-144500000I268750J0D01*
G01*
X70981250Y-144500000D01*
G75*
G02*
X71250000Y-144768750I0J-268750D01*
G01*
X71250000Y-145731250D01*
G75*
G02*
X70981250Y-146000000I-268750J0D01*
G01*
X70443750Y-146000000D01*
G75*
G02*
X70175000Y-145731250I0J268750D01*
G01*
G37*
%TD*%
%TO.C,R6*%
G36*
G01*
X71250000Y-142768750D02*
X71250000Y-143731250D01*
G75*
G02*
X70981250Y-144000000I-268750J0D01*
G01*
X70443750Y-144000000D01*
G75*
G02*
X70175000Y-143731250I0J268750D01*
G01*
X70175000Y-142768750D01*
G75*
G02*
X70443750Y-142500000I268750J0D01*
G01*
X70981250Y-142500000D01*
G75*
G02*
X71250000Y-142768750I0J-268750D01*
G01*
G37*
G36*
G01*
X73125000Y-142768750D02*
X73125000Y-143731250D01*
G75*
G02*
X72856250Y-144000000I-268750J0D01*
G01*
X72318750Y-144000000D01*
G75*
G02*
X72050000Y-143731250I0J268750D01*
G01*
X72050000Y-142768750D01*
G75*
G02*
X72318750Y-142500000I268750J0D01*
G01*
X72856250Y-142500000D01*
G75*
G02*
X73125000Y-142768750I0J-268750D01*
G01*
G37*
%TD*%
%TO.C,R5*%
G36*
G01*
X54670000Y-141731250D02*
X54670000Y-140768750D01*
G75*
G02*
X54938750Y-140500000I268750J0D01*
G01*
X55476250Y-140500000D01*
G75*
G02*
X55745000Y-140768750I0J-268750D01*
G01*
X55745000Y-141731250D01*
G75*
G02*
X55476250Y-142000000I-268750J0D01*
G01*
X54938750Y-142000000D01*
G75*
G02*
X54670000Y-141731250I0J268750D01*
G01*
G37*
G36*
G01*
X52795000Y-141731250D02*
X52795000Y-140768750D01*
G75*
G02*
X53063750Y-140500000I268750J0D01*
G01*
X53601250Y-140500000D01*
G75*
G02*
X53870000Y-140768750I0J-268750D01*
G01*
X53870000Y-141731250D01*
G75*
G02*
X53601250Y-142000000I-268750J0D01*
G01*
X53063750Y-142000000D01*
G75*
G02*
X52795000Y-141731250I0J268750D01*
G01*
G37*
%TD*%
%TO.C,R4*%
G36*
G01*
X53870000Y-144768750D02*
X53870000Y-145731250D01*
G75*
G02*
X53601250Y-146000000I-268750J0D01*
G01*
X53063750Y-146000000D01*
G75*
G02*
X52795000Y-145731250I0J268750D01*
G01*
X52795000Y-144768750D01*
G75*
G02*
X53063750Y-144500000I268750J0D01*
G01*
X53601250Y-144500000D01*
G75*
G02*
X53870000Y-144768750I0J-268750D01*
G01*
G37*
G36*
G01*
X55745000Y-144768750D02*
X55745000Y-145731250D01*
G75*
G02*
X55476250Y-146000000I-268750J0D01*
G01*
X54938750Y-146000000D01*
G75*
G02*
X54670000Y-145731250I0J268750D01*
G01*
X54670000Y-144768750D01*
G75*
G02*
X54938750Y-144500000I268750J0D01*
G01*
X55476250Y-144500000D01*
G75*
G02*
X55745000Y-144768750I0J-268750D01*
G01*
G37*
%TD*%
%TO.C,R3*%
G36*
G01*
X54670000Y-143731250D02*
X54670000Y-142768750D01*
G75*
G02*
X54938750Y-142500000I268750J0D01*
G01*
X55476250Y-142500000D01*
G75*
G02*
X55745000Y-142768750I0J-268750D01*
G01*
X55745000Y-143731250D01*
G75*
G02*
X55476250Y-144000000I-268750J0D01*
G01*
X54938750Y-144000000D01*
G75*
G02*
X54670000Y-143731250I0J268750D01*
G01*
G37*
G36*
G01*
X52795000Y-143731250D02*
X52795000Y-142768750D01*
G75*
G02*
X53063750Y-142500000I268750J0D01*
G01*
X53601250Y-142500000D01*
G75*
G02*
X53870000Y-142768750I0J-268750D01*
G01*
X53870000Y-143731250D01*
G75*
G02*
X53601250Y-144000000I-268750J0D01*
G01*
X53063750Y-144000000D01*
G75*
G02*
X52795000Y-143731250I0J268750D01*
G01*
G37*
%TD*%
%TO.C,R2*%
G36*
G01*
X47800000Y-168105250D02*
X47800000Y-167142750D01*
G75*
G02*
X48068750Y-166874000I268750J0D01*
G01*
X48606250Y-166874000D01*
G75*
G02*
X48875000Y-167142750I0J-268750D01*
G01*
X48875000Y-168105250D01*
G75*
G02*
X48606250Y-168374000I-268750J0D01*
G01*
X48068750Y-168374000D01*
G75*
G02*
X47800000Y-168105250I0J268750D01*
G01*
G37*
G36*
G01*
X45925000Y-168105250D02*
X45925000Y-167142750D01*
G75*
G02*
X46193750Y-166874000I268750J0D01*
G01*
X46731250Y-166874000D01*
G75*
G02*
X47000000Y-167142750I0J-268750D01*
G01*
X47000000Y-168105250D01*
G75*
G02*
X46731250Y-168374000I-268750J0D01*
G01*
X46193750Y-168374000D01*
G75*
G02*
X45925000Y-168105250I0J268750D01*
G01*
G37*
%TD*%
%TO.C,R1*%
G36*
G01*
X29800000Y-103118750D02*
X29800000Y-104081250D01*
G75*
G02*
X29531250Y-104350000I-268750J0D01*
G01*
X28993750Y-104350000D01*
G75*
G02*
X28725000Y-104081250I0J268750D01*
G01*
X28725000Y-103118750D01*
G75*
G02*
X28993750Y-102850000I268750J0D01*
G01*
X29531250Y-102850000D01*
G75*
G02*
X29800000Y-103118750I0J-268750D01*
G01*
G37*
G36*
G01*
X31675000Y-103118750D02*
X31675000Y-104081250D01*
G75*
G02*
X31406250Y-104350000I-268750J0D01*
G01*
X30868750Y-104350000D01*
G75*
G02*
X30600000Y-104081250I0J268750D01*
G01*
X30600000Y-103118750D01*
G75*
G02*
X30868750Y-102850000I268750J0D01*
G01*
X31406250Y-102850000D01*
G75*
G02*
X31675000Y-103118750I0J-268750D01*
G01*
G37*
%TD*%
D26*
%TO.C,Q2*%
X71650000Y-136750000D03*
X72600000Y-138750000D03*
X70700000Y-138750000D03*
%TD*%
%TO.C,Q1*%
X54270000Y-136750000D03*
X55220000Y-138750000D03*
X53320000Y-138750000D03*
%TD*%
D11*
%TO.C,JP3*%
X56250000Y-187030000D03*
X56250000Y-184490000D03*
D12*
X56250000Y-181950000D03*
%TD*%
D11*
%TO.C,JP2*%
X64300000Y-145960000D03*
D12*
X64300000Y-148500000D03*
%TD*%
D11*
%TO.C,JP1*%
X61650000Y-145960000D03*
D12*
X61650000Y-148500000D03*
%TD*%
D15*
%TO.C,J12*%
X28000000Y-151960000D03*
X28000000Y-154500000D03*
D16*
X28000000Y-157040000D03*
%TD*%
D15*
%TO.C,J11*%
X34300000Y-184000000D03*
X36840000Y-184000000D03*
X39380000Y-184000000D03*
X41920000Y-184000000D03*
X44460000Y-184000000D03*
D16*
X47000000Y-184000000D03*
%TD*%
D10*
%TO.C,J3*%
X38420000Y-96000000D03*
D17*
X43500000Y-96000000D03*
%TD*%
D27*
%TO.C,H4*%
X108856155Y-93143845D03*
X107000000Y-92375000D03*
X105143845Y-93143845D03*
X104375000Y-95000000D03*
X105143845Y-96856155D03*
X107000000Y-97625000D03*
X108856155Y-96856155D03*
X109625000Y-95000000D03*
D28*
X107000000Y-95000000D03*
%TD*%
D27*
%TO.C,H3*%
X108856155Y-183143845D03*
X107000000Y-182375000D03*
X105143845Y-183143845D03*
X104375000Y-185000000D03*
X105143845Y-186856155D03*
X107000000Y-187625000D03*
X108856155Y-186856155D03*
X109625000Y-185000000D03*
D28*
X107000000Y-185000000D03*
%TD*%
D27*
%TO.C,H2*%
X28856155Y-183143845D03*
X27000000Y-182375000D03*
X25143845Y-183143845D03*
X24375000Y-185000000D03*
X25143845Y-186856155D03*
X27000000Y-187625000D03*
X28856155Y-186856155D03*
X29625000Y-185000000D03*
D28*
X27000000Y-185000000D03*
%TD*%
D27*
%TO.C,H1*%
X28856155Y-93143845D03*
X27000000Y-92375000D03*
X25143845Y-93143845D03*
X24375000Y-95000000D03*
X25143845Y-96856155D03*
X27000000Y-97625000D03*
X28856155Y-96856155D03*
X29625000Y-95000000D03*
D28*
X27000000Y-95000000D03*
%TD*%
%TO.C,F1*%
G36*
G01*
X27975000Y-106905000D02*
X27975000Y-105595000D01*
G75*
G02*
X28245000Y-105325000I270000J0D01*
G01*
X29055000Y-105325000D01*
G75*
G02*
X29325000Y-105595000I0J-270000D01*
G01*
X29325000Y-106905000D01*
G75*
G02*
X29055000Y-107175000I-270000J0D01*
G01*
X28245000Y-107175000D01*
G75*
G02*
X27975000Y-106905000I0J270000D01*
G01*
G37*
G36*
G01*
X25175000Y-106905000D02*
X25175000Y-105595000D01*
G75*
G02*
X25445000Y-105325000I270000J0D01*
G01*
X26255000Y-105325000D01*
G75*
G02*
X26525000Y-105595000I0J-270000D01*
G01*
X26525000Y-106905000D01*
G75*
G02*
X26255000Y-107175000I-270000J0D01*
G01*
X25445000Y-107175000D01*
G75*
G02*
X25175000Y-106905000I0J270000D01*
G01*
G37*
%TD*%
D29*
%TO.C,D16*%
X96600000Y-171200000D03*
G36*
G01*
X97425000Y-177050000D02*
X95775000Y-177050000D01*
G75*
G02*
X95150000Y-176425000I0J625000D01*
G01*
X95150000Y-175175000D01*
G75*
G02*
X95775000Y-174550000I625000J0D01*
G01*
X97425000Y-174550000D01*
G75*
G02*
X98050000Y-175175000I0J-625000D01*
G01*
X98050000Y-176425000D01*
G75*
G02*
X97425000Y-177050000I-625000J0D01*
G01*
G37*
%TD*%
%TO.C,D15*%
X82500000Y-171200000D03*
G36*
G01*
X83325000Y-177050000D02*
X81675000Y-177050000D01*
G75*
G02*
X81050000Y-176425000I0J625000D01*
G01*
X81050000Y-175175000D01*
G75*
G02*
X81675000Y-174550000I625000J0D01*
G01*
X83325000Y-174550000D01*
G75*
G02*
X83950000Y-175175000I0J-625000D01*
G01*
X83950000Y-176425000D01*
G75*
G02*
X83325000Y-177050000I-625000J0D01*
G01*
G37*
%TD*%
%TO.C,D14*%
X82500000Y-140600000D03*
G36*
G01*
X81675000Y-134750000D02*
X83325000Y-134750000D01*
G75*
G02*
X83950000Y-135375000I0J-625000D01*
G01*
X83950000Y-136625000D01*
G75*
G02*
X83325000Y-137250000I-625000J0D01*
G01*
X81675000Y-137250000D01*
G75*
G02*
X81050000Y-136625000I0J625000D01*
G01*
X81050000Y-135375000D01*
G75*
G02*
X81675000Y-134750000I625000J0D01*
G01*
G37*
%TD*%
%TO.C,D13*%
X96600000Y-140610000D03*
G36*
G01*
X95775000Y-134760000D02*
X97425000Y-134760000D01*
G75*
G02*
X98050000Y-135385000I0J-625000D01*
G01*
X98050000Y-136635000D01*
G75*
G02*
X97425000Y-137260000I-625000J0D01*
G01*
X95775000Y-137260000D01*
G75*
G02*
X95150000Y-136635000I0J625000D01*
G01*
X95150000Y-135385000D01*
G75*
G02*
X95775000Y-134760000I625000J0D01*
G01*
G37*
%TD*%
%TO.C,D12*%
X91900000Y-175930000D03*
G36*
G01*
X91075000Y-170080000D02*
X92725000Y-170080000D01*
G75*
G02*
X93350000Y-170705000I0J-625000D01*
G01*
X93350000Y-171955000D01*
G75*
G02*
X92725000Y-172580000I-625000J0D01*
G01*
X91075000Y-172580000D01*
G75*
G02*
X90450000Y-171955000I0J625000D01*
G01*
X90450000Y-170705000D01*
G75*
G02*
X91075000Y-170080000I625000J0D01*
G01*
G37*
%TD*%
%TO.C,D11*%
X87200000Y-175930000D03*
G36*
G01*
X86375000Y-170080000D02*
X88025000Y-170080000D01*
G75*
G02*
X88650000Y-170705000I0J-625000D01*
G01*
X88650000Y-171955000D01*
G75*
G02*
X88025000Y-172580000I-625000J0D01*
G01*
X86375000Y-172580000D01*
G75*
G02*
X85750000Y-171955000I0J625000D01*
G01*
X85750000Y-170705000D01*
G75*
G02*
X86375000Y-170080000I625000J0D01*
G01*
G37*
%TD*%
%TO.C,D10*%
X87200000Y-135870000D03*
G36*
G01*
X88025000Y-141720000D02*
X86375000Y-141720000D01*
G75*
G02*
X85750000Y-141095000I0J625000D01*
G01*
X85750000Y-139845000D01*
G75*
G02*
X86375000Y-139220000I625000J0D01*
G01*
X88025000Y-139220000D01*
G75*
G02*
X88650000Y-139845000I0J-625000D01*
G01*
X88650000Y-141095000D01*
G75*
G02*
X88025000Y-141720000I-625000J0D01*
G01*
G37*
%TD*%
%TO.C,D9*%
X91900000Y-135870000D03*
G36*
G01*
X92725000Y-141720000D02*
X91075000Y-141720000D01*
G75*
G02*
X90450000Y-141095000I0J625000D01*
G01*
X90450000Y-139845000D01*
G75*
G02*
X91075000Y-139220000I625000J0D01*
G01*
X92725000Y-139220000D01*
G75*
G02*
X93350000Y-139845000I0J-625000D01*
G01*
X93350000Y-141095000D01*
G75*
G02*
X92725000Y-141720000I-625000J0D01*
G01*
G37*
%TD*%
%TO.C,D8*%
G36*
G01*
X47820000Y-172288250D02*
X47820000Y-171325750D01*
G75*
G02*
X48088750Y-171057000I268750J0D01*
G01*
X48626250Y-171057000D01*
G75*
G02*
X48895000Y-171325750I0J-268750D01*
G01*
X48895000Y-172288250D01*
G75*
G02*
X48626250Y-172557000I-268750J0D01*
G01*
X48088750Y-172557000D01*
G75*
G02*
X47820000Y-172288250I0J268750D01*
G01*
G37*
G36*
G01*
X45945000Y-172288250D02*
X45945000Y-171325750D01*
G75*
G02*
X46213750Y-171057000I268750J0D01*
G01*
X46751250Y-171057000D01*
G75*
G02*
X47020000Y-171325750I0J-268750D01*
G01*
X47020000Y-172288250D01*
G75*
G02*
X46751250Y-172557000I-268750J0D01*
G01*
X46213750Y-172557000D01*
G75*
G02*
X45945000Y-172288250I0J268750D01*
G01*
G37*
%TD*%
%TO.C,D7*%
G36*
G01*
X72070000Y-147731250D02*
X72070000Y-146768750D01*
G75*
G02*
X72338750Y-146500000I268750J0D01*
G01*
X72876250Y-146500000D01*
G75*
G02*
X73145000Y-146768750I0J-268750D01*
G01*
X73145000Y-147731250D01*
G75*
G02*
X72876250Y-148000000I-268750J0D01*
G01*
X72338750Y-148000000D01*
G75*
G02*
X72070000Y-147731250I0J268750D01*
G01*
G37*
G36*
G01*
X70195000Y-147731250D02*
X70195000Y-146768750D01*
G75*
G02*
X70463750Y-146500000I268750J0D01*
G01*
X71001250Y-146500000D01*
G75*
G02*
X71270000Y-146768750I0J-268750D01*
G01*
X71270000Y-147731250D01*
G75*
G02*
X71001250Y-148000000I-268750J0D01*
G01*
X70463750Y-148000000D01*
G75*
G02*
X70195000Y-147731250I0J268750D01*
G01*
G37*
%TD*%
%TO.C,D6*%
G36*
G01*
X53850000Y-146768750D02*
X53850000Y-147731250D01*
G75*
G02*
X53581250Y-148000000I-268750J0D01*
G01*
X53043750Y-148000000D01*
G75*
G02*
X52775000Y-147731250I0J268750D01*
G01*
X52775000Y-146768750D01*
G75*
G02*
X53043750Y-146500000I268750J0D01*
G01*
X53581250Y-146500000D01*
G75*
G02*
X53850000Y-146768750I0J-268750D01*
G01*
G37*
G36*
G01*
X55725000Y-146768750D02*
X55725000Y-147731250D01*
G75*
G02*
X55456250Y-148000000I-268750J0D01*
G01*
X54918750Y-148000000D01*
G75*
G02*
X54650000Y-147731250I0J268750D01*
G01*
X54650000Y-146768750D01*
G75*
G02*
X54918750Y-146500000I268750J0D01*
G01*
X55456250Y-146500000D01*
G75*
G02*
X55725000Y-146768750I0J-268750D01*
G01*
G37*
%TD*%
%TO.C,D5*%
X65500000Y-135880000D03*
G36*
G01*
X66325000Y-141730000D02*
X64675000Y-141730000D01*
G75*
G02*
X64050000Y-141105000I0J625000D01*
G01*
X64050000Y-139855000D01*
G75*
G02*
X64675000Y-139230000I625000J0D01*
G01*
X66325000Y-139230000D01*
G75*
G02*
X66950000Y-139855000I0J-625000D01*
G01*
X66950000Y-141105000D01*
G75*
G02*
X66325000Y-141730000I-625000J0D01*
G01*
G37*
%TD*%
%TO.C,D4*%
X60500000Y-135880000D03*
G36*
G01*
X61325000Y-141730000D02*
X59675000Y-141730000D01*
G75*
G02*
X59050000Y-141105000I0J625000D01*
G01*
X59050000Y-139855000D01*
G75*
G02*
X59675000Y-139230000I625000J0D01*
G01*
X61325000Y-139230000D01*
G75*
G02*
X61950000Y-139855000I0J-625000D01*
G01*
X61950000Y-141105000D01*
G75*
G02*
X61325000Y-141730000I-625000J0D01*
G01*
G37*
%TD*%
%TO.C,D3*%
G36*
G01*
X47820000Y-170174250D02*
X47820000Y-169211750D01*
G75*
G02*
X48088750Y-168943000I268750J0D01*
G01*
X48626250Y-168943000D01*
G75*
G02*
X48895000Y-169211750I0J-268750D01*
G01*
X48895000Y-170174250D01*
G75*
G02*
X48626250Y-170443000I-268750J0D01*
G01*
X48088750Y-170443000D01*
G75*
G02*
X47820000Y-170174250I0J268750D01*
G01*
G37*
G36*
G01*
X45945000Y-170174250D02*
X45945000Y-169211750D01*
G75*
G02*
X46213750Y-168943000I268750J0D01*
G01*
X46751250Y-168943000D01*
G75*
G02*
X47020000Y-169211750I0J-268750D01*
G01*
X47020000Y-170174250D01*
G75*
G02*
X46751250Y-170443000I-268750J0D01*
G01*
X46213750Y-170443000D01*
G75*
G02*
X45945000Y-170174250I0J268750D01*
G01*
G37*
%TD*%
%TO.C,D2*%
G36*
G01*
X27100000Y-104081250D02*
X27100000Y-103118750D01*
G75*
G02*
X27368750Y-102850000I268750J0D01*
G01*
X27906250Y-102850000D01*
G75*
G02*
X28175000Y-103118750I0J-268750D01*
G01*
X28175000Y-104081250D01*
G75*
G02*
X27906250Y-104350000I-268750J0D01*
G01*
X27368750Y-104350000D01*
G75*
G02*
X27100000Y-104081250I0J268750D01*
G01*
G37*
G36*
G01*
X25225000Y-104081250D02*
X25225000Y-103118750D01*
G75*
G02*
X25493750Y-102850000I268750J0D01*
G01*
X26031250Y-102850000D01*
G75*
G02*
X26300000Y-103118750I0J-268750D01*
G01*
X26300000Y-104081250D01*
G75*
G02*
X26031250Y-104350000I-268750J0D01*
G01*
X25493750Y-104350000D01*
G75*
G02*
X25225000Y-104081250I0J268750D01*
G01*
G37*
%TD*%
D30*
%TO.C,D1*%
X31220000Y-110000000D03*
G36*
G01*
X25370000Y-110825000D02*
X25370000Y-109175000D01*
G75*
G02*
X25995000Y-108550000I625000J0D01*
G01*
X27245000Y-108550000D01*
G75*
G02*
X27870000Y-109175000I0J-625000D01*
G01*
X27870000Y-110825000D01*
G75*
G02*
X27245000Y-111450000I-625000J0D01*
G01*
X25995000Y-111450000D01*
G75*
G02*
X25370000Y-110825000I0J625000D01*
G01*
G37*
%TD*%
%TO.C,C12*%
G36*
G01*
X38050000Y-163384375D02*
X38050000Y-162215625D01*
G75*
G02*
X38315625Y-161950000I265625J0D01*
G01*
X40484375Y-161950000D01*
G75*
G02*
X40750000Y-162215625I0J-265625D01*
G01*
X40750000Y-163384375D01*
G75*
G02*
X40484375Y-163650000I-265625J0D01*
G01*
X38315625Y-163650000D01*
G75*
G02*
X38050000Y-163384375I0J265625D01*
G01*
G37*
G36*
G01*
X34450000Y-163384375D02*
X34450000Y-162215625D01*
G75*
G02*
X34715625Y-161950000I265625J0D01*
G01*
X36884375Y-161950000D01*
G75*
G02*
X37150000Y-162215625I0J-265625D01*
G01*
X37150000Y-163384375D01*
G75*
G02*
X36884375Y-163650000I-265625J0D01*
G01*
X34715625Y-163650000D01*
G75*
G02*
X34450000Y-163384375I0J265625D01*
G01*
G37*
%TD*%
%TO.C,C11*%
G36*
G01*
X38050000Y-174084375D02*
X38050000Y-172915625D01*
G75*
G02*
X38315625Y-172650000I265625J0D01*
G01*
X40484375Y-172650000D01*
G75*
G02*
X40750000Y-172915625I0J-265625D01*
G01*
X40750000Y-174084375D01*
G75*
G02*
X40484375Y-174350000I-265625J0D01*
G01*
X38315625Y-174350000D01*
G75*
G02*
X38050000Y-174084375I0J265625D01*
G01*
G37*
G36*
G01*
X34450000Y-174084375D02*
X34450000Y-172915625D01*
G75*
G02*
X34715625Y-172650000I265625J0D01*
G01*
X36884375Y-172650000D01*
G75*
G02*
X37150000Y-172915625I0J-265625D01*
G01*
X37150000Y-174084375D01*
G75*
G02*
X36884375Y-174350000I-265625J0D01*
G01*
X34715625Y-174350000D01*
G75*
G02*
X34450000Y-174084375I0J265625D01*
G01*
G37*
%TD*%
%TO.C,C10*%
G36*
G01*
X51481250Y-152900000D02*
X50918750Y-152900000D01*
G75*
G02*
X50675000Y-152656250I0J243750D01*
G01*
X50675000Y-152168750D01*
G75*
G02*
X50918750Y-151925000I243750J0D01*
G01*
X51481250Y-151925000D01*
G75*
G02*
X51725000Y-152168750I0J-243750D01*
G01*
X51725000Y-152656250D01*
G75*
G02*
X51481250Y-152900000I-243750J0D01*
G01*
G37*
G36*
G01*
X51481250Y-154475000D02*
X50918750Y-154475000D01*
G75*
G02*
X50675000Y-154231250I0J243750D01*
G01*
X50675000Y-153743750D01*
G75*
G02*
X50918750Y-153500000I243750J0D01*
G01*
X51481250Y-153500000D01*
G75*
G02*
X51725000Y-153743750I0J-243750D01*
G01*
X51725000Y-154231250D01*
G75*
G02*
X51481250Y-154475000I-243750J0D01*
G01*
G37*
%TD*%
%TO.C,C9*%
G36*
G01*
X56918750Y-153500000D02*
X57481250Y-153500000D01*
G75*
G02*
X57725000Y-153743750I0J-243750D01*
G01*
X57725000Y-154231250D01*
G75*
G02*
X57481250Y-154475000I-243750J0D01*
G01*
X56918750Y-154475000D01*
G75*
G02*
X56675000Y-154231250I0J243750D01*
G01*
X56675000Y-153743750D01*
G75*
G02*
X56918750Y-153500000I243750J0D01*
G01*
G37*
G36*
G01*
X56918750Y-151925000D02*
X57481250Y-151925000D01*
G75*
G02*
X57725000Y-152168750I0J-243750D01*
G01*
X57725000Y-152656250D01*
G75*
G02*
X57481250Y-152900000I-243750J0D01*
G01*
X56918750Y-152900000D01*
G75*
G02*
X56675000Y-152656250I0J243750D01*
G01*
X56675000Y-152168750D01*
G75*
G02*
X56918750Y-151925000I243750J0D01*
G01*
G37*
%TD*%
%TO.C,C5*%
G36*
G01*
X60090000Y-168147500D02*
X60090000Y-167752500D01*
G75*
G02*
X60262500Y-167580000I172500J0D01*
G01*
X60607500Y-167580000D01*
G75*
G02*
X60780000Y-167752500I0J-172500D01*
G01*
X60780000Y-168147500D01*
G75*
G02*
X60607500Y-168320000I-172500J0D01*
G01*
X60262500Y-168320000D01*
G75*
G02*
X60090000Y-168147500I0J172500D01*
G01*
G37*
G36*
G01*
X59120000Y-168147500D02*
X59120000Y-167752500D01*
G75*
G02*
X59292500Y-167580000I172500J0D01*
G01*
X59637500Y-167580000D01*
G75*
G02*
X59810000Y-167752500I0J-172500D01*
G01*
X59810000Y-168147500D01*
G75*
G02*
X59637500Y-168320000I-172500J0D01*
G01*
X59292500Y-168320000D01*
G75*
G02*
X59120000Y-168147500I0J172500D01*
G01*
G37*
%TD*%
%TO.C,C4*%
G36*
G01*
X29400000Y-147481250D02*
X29400000Y-146518750D01*
G75*
G02*
X29668750Y-146250000I268750J0D01*
G01*
X30206250Y-146250000D01*
G75*
G02*
X30475000Y-146518750I0J-268750D01*
G01*
X30475000Y-147481250D01*
G75*
G02*
X30206250Y-147750000I-268750J0D01*
G01*
X29668750Y-147750000D01*
G75*
G02*
X29400000Y-147481250I0J268750D01*
G01*
G37*
G36*
G01*
X27525000Y-147481250D02*
X27525000Y-146518750D01*
G75*
G02*
X27793750Y-146250000I268750J0D01*
G01*
X28331250Y-146250000D01*
G75*
G02*
X28600000Y-146518750I0J-268750D01*
G01*
X28600000Y-147481250D01*
G75*
G02*
X28331250Y-147750000I-268750J0D01*
G01*
X27793750Y-147750000D01*
G75*
G02*
X27525000Y-147481250I0J268750D01*
G01*
G37*
%TD*%
%TO.C,C3*%
G36*
G01*
X29200000Y-142584375D02*
X29200000Y-141415625D01*
G75*
G02*
X29465625Y-141150000I265625J0D01*
G01*
X32534375Y-141150000D01*
G75*
G02*
X32800000Y-141415625I0J-265625D01*
G01*
X32800000Y-142584375D01*
G75*
G02*
X32534375Y-142850000I-265625J0D01*
G01*
X29465625Y-142850000D01*
G75*
G02*
X29200000Y-142584375I0J265625D01*
G01*
G37*
G36*
G01*
X23800000Y-142584375D02*
X23800000Y-141415625D01*
G75*
G02*
X24065625Y-141150000I265625J0D01*
G01*
X27134375Y-141150000D01*
G75*
G02*
X27400000Y-141415625I0J-265625D01*
G01*
X27400000Y-142584375D01*
G75*
G02*
X27134375Y-142850000I-265625J0D01*
G01*
X24065625Y-142850000D01*
G75*
G02*
X23800000Y-142584375I0J265625D01*
G01*
G37*
%TD*%
%TO.C,C2*%
G36*
G01*
X29150000Y-122481250D02*
X29150000Y-121518750D01*
G75*
G02*
X29418750Y-121250000I268750J0D01*
G01*
X29956250Y-121250000D01*
G75*
G02*
X30225000Y-121518750I0J-268750D01*
G01*
X30225000Y-122481250D01*
G75*
G02*
X29956250Y-122750000I-268750J0D01*
G01*
X29418750Y-122750000D01*
G75*
G02*
X29150000Y-122481250I0J268750D01*
G01*
G37*
G36*
G01*
X27275000Y-122481250D02*
X27275000Y-121518750D01*
G75*
G02*
X27543750Y-121250000I268750J0D01*
G01*
X28081250Y-121250000D01*
G75*
G02*
X28350000Y-121518750I0J-268750D01*
G01*
X28350000Y-122481250D01*
G75*
G02*
X28081250Y-122750000I-268750J0D01*
G01*
X27543750Y-122750000D01*
G75*
G02*
X27275000Y-122481250I0J268750D01*
G01*
G37*
%TD*%
%TO.C,C1*%
G36*
G01*
X29200000Y-117584375D02*
X29200000Y-116415625D01*
G75*
G02*
X29465625Y-116150000I265625J0D01*
G01*
X32534375Y-116150000D01*
G75*
G02*
X32800000Y-116415625I0J-265625D01*
G01*
X32800000Y-117584375D01*
G75*
G02*
X32534375Y-117850000I-265625J0D01*
G01*
X29465625Y-117850000D01*
G75*
G02*
X29200000Y-117584375I0J265625D01*
G01*
G37*
G36*
G01*
X23800000Y-117584375D02*
X23800000Y-116415625D01*
G75*
G02*
X24065625Y-116150000I265625J0D01*
G01*
X27134375Y-116150000D01*
G75*
G02*
X27400000Y-116415625I0J-265625D01*
G01*
X27400000Y-117584375D01*
G75*
G02*
X27134375Y-117850000I-265625J0D01*
G01*
X24065625Y-117850000D01*
G75*
G02*
X23800000Y-117584375I0J265625D01*
G01*
G37*
%TD*%
M02*
