%TF.GenerationSoftware,KiCad,Pcbnew,(5.1.6)-1*%
%TF.CreationDate,2022-04-27T14:58:12+09:00*%
%TF.ProjectId,FP-2500 ICHIMASA,46502d32-3530-4302-9049-4348494d4153,rev?*%
%TF.SameCoordinates,Original*%
%TF.FileFunction,Legend,Bot*%
%TF.FilePolarity,Positive*%
%FSLAX46Y46*%
G04 Gerber Fmt 4.6, Leading zero omitted, Abs format (unit mm)*
G04 Created by KiCad (PCBNEW (5.1.6)-1) date 2022-04-27 14:58:12*
%MOMM*%
%LPD*%
G01*
G04 APERTURE LIST*
%ADD10C,0.200000*%
G04 APERTURE END LIST*
D10*
X62690475Y-187028571D02*
X62547618Y-187076190D01*
X62499999Y-187123809D01*
X62452380Y-187219047D01*
X62452380Y-187361904D01*
X62499999Y-187457142D01*
X62547618Y-187504761D01*
X62642856Y-187552380D01*
X63023809Y-187552380D01*
X63023809Y-186552380D01*
X62690475Y-186552380D01*
X62595237Y-186600000D01*
X62547618Y-186647619D01*
X62499999Y-186742857D01*
X62499999Y-186838095D01*
X62547618Y-186933333D01*
X62595237Y-186980952D01*
X62690475Y-187028571D01*
X63023809Y-187028571D01*
X62023809Y-186552380D02*
X62023809Y-187361904D01*
X61976190Y-187457142D01*
X61928571Y-187504761D01*
X61833333Y-187552380D01*
X61642856Y-187552380D01*
X61547618Y-187504761D01*
X61499999Y-187457142D01*
X61452380Y-187361904D01*
X61452380Y-186552380D01*
X61071428Y-186552380D02*
X60404761Y-186552380D01*
X61071428Y-187552380D01*
X60404761Y-187552380D01*
X60119047Y-186552380D02*
X59452380Y-186552380D01*
X60119047Y-187552380D01*
X59452380Y-187552380D01*
X59071428Y-187028571D02*
X58738094Y-187028571D01*
X58595237Y-187552380D02*
X59071428Y-187552380D01*
X59071428Y-186552380D01*
X58595237Y-186552380D01*
X57595237Y-187552380D02*
X57928571Y-187076190D01*
X58166666Y-187552380D02*
X58166666Y-186552380D01*
X57785713Y-186552380D01*
X57690475Y-186600000D01*
X57642856Y-186647619D01*
X57595237Y-186742857D01*
X57595237Y-186885714D01*
X57642856Y-186980952D01*
X57690475Y-187028571D01*
X57785713Y-187076190D01*
X58166666Y-187076190D01*
X59785714Y-184857142D02*
X59833333Y-184904761D01*
X59976190Y-184952380D01*
X60071428Y-184952380D01*
X60214285Y-184904761D01*
X60309523Y-184809523D01*
X60357142Y-184714285D01*
X60404761Y-184523809D01*
X60404761Y-184380952D01*
X60357142Y-184190476D01*
X60309523Y-184095238D01*
X60214285Y-184000000D01*
X60071428Y-183952380D01*
X59976190Y-183952380D01*
X59833333Y-184000000D01*
X59785714Y-184047619D01*
X59166666Y-183952380D02*
X58976190Y-183952380D01*
X58880952Y-184000000D01*
X58785714Y-184095238D01*
X58738095Y-184285714D01*
X58738095Y-184619047D01*
X58785714Y-184809523D01*
X58880952Y-184904761D01*
X58976190Y-184952380D01*
X59166666Y-184952380D01*
X59261904Y-184904761D01*
X59357142Y-184809523D01*
X59404761Y-184619047D01*
X59404761Y-184285714D01*
X59357142Y-184095238D01*
X59261904Y-184000000D01*
X59166666Y-183952380D01*
X58309523Y-184952380D02*
X58309523Y-183952380D01*
X57976190Y-184666666D01*
X57642857Y-183952380D01*
X57642857Y-184952380D01*
X51685714Y-184857142D02*
X51733333Y-184904761D01*
X51876190Y-184952380D01*
X51971428Y-184952380D01*
X52114285Y-184904761D01*
X52209523Y-184809523D01*
X52257142Y-184714285D01*
X52304761Y-184523809D01*
X52304761Y-184380952D01*
X52257142Y-184190476D01*
X52209523Y-184095238D01*
X52114285Y-184000000D01*
X51971428Y-183952380D01*
X51876190Y-183952380D01*
X51733333Y-184000000D01*
X51685714Y-184047619D01*
X51066666Y-183952380D02*
X50876190Y-183952380D01*
X50780952Y-184000000D01*
X50685714Y-184095238D01*
X50638095Y-184285714D01*
X50638095Y-184619047D01*
X50685714Y-184809523D01*
X50780952Y-184904761D01*
X50876190Y-184952380D01*
X51066666Y-184952380D01*
X51161904Y-184904761D01*
X51257142Y-184809523D01*
X51304761Y-184619047D01*
X51304761Y-184285714D01*
X51257142Y-184095238D01*
X51161904Y-184000000D01*
X51066666Y-183952380D01*
X50209523Y-184952380D02*
X50209523Y-183952380D01*
X49876190Y-184666666D01*
X49542857Y-183952380D01*
X49542857Y-184952380D01*
X52304761Y-187504761D02*
X52161904Y-187552380D01*
X51923809Y-187552380D01*
X51828571Y-187504761D01*
X51780952Y-187457142D01*
X51733333Y-187361904D01*
X51733333Y-187266666D01*
X51780952Y-187171428D01*
X51828571Y-187123809D01*
X51923809Y-187076190D01*
X52114285Y-187028571D01*
X52209523Y-186980952D01*
X52257142Y-186933333D01*
X52304761Y-186838095D01*
X52304761Y-186742857D01*
X52257142Y-186647619D01*
X52209523Y-186600000D01*
X52114285Y-186552380D01*
X51876190Y-186552380D01*
X51733333Y-186600000D01*
X51399999Y-186552380D02*
X51161904Y-187552380D01*
X50971428Y-186838095D01*
X50780952Y-187552380D01*
X50542857Y-186552380D01*
X59023809Y-181452380D02*
X58452381Y-181452380D01*
X58738095Y-182452380D02*
X58738095Y-181452380D01*
X58214285Y-181452380D02*
X57547619Y-182452380D01*
X57547619Y-181452380D02*
X58214285Y-182452380D01*
X51685713Y-182452380D02*
X52019047Y-181976190D01*
X52257142Y-182452380D02*
X52257142Y-181452380D01*
X51876189Y-181452380D01*
X51780951Y-181500000D01*
X51733332Y-181547619D01*
X51685713Y-181642857D01*
X51685713Y-181785714D01*
X51733332Y-181880952D01*
X51780951Y-181928571D01*
X51876189Y-181976190D01*
X52257142Y-181976190D01*
X51352380Y-181452380D02*
X50685713Y-182452380D01*
X50685713Y-181452380D02*
X51352380Y-182452380D01*
X26228571Y-156552380D02*
X25895238Y-157552380D01*
X25561904Y-156552380D01*
X24657142Y-157457142D02*
X24704761Y-157504761D01*
X24847618Y-157552380D01*
X24942857Y-157552380D01*
X25085714Y-157504761D01*
X25180952Y-157409523D01*
X25228571Y-157314285D01*
X25276190Y-157123809D01*
X25276190Y-156980952D01*
X25228571Y-156790476D01*
X25180952Y-156695238D01*
X25085714Y-156600000D01*
X24942857Y-156552380D01*
X24847618Y-156552380D01*
X24704761Y-156600000D01*
X24657142Y-156647619D01*
X23657142Y-157457142D02*
X23704761Y-157504761D01*
X23847618Y-157552380D01*
X23942857Y-157552380D01*
X24085714Y-157504761D01*
X24180952Y-157409523D01*
X24228571Y-157314285D01*
X24276190Y-157123809D01*
X24276190Y-156980952D01*
X24228571Y-156790476D01*
X24180952Y-156695238D01*
X24085714Y-156600000D01*
X23942857Y-156552380D01*
X23847618Y-156552380D01*
X23704761Y-156600000D01*
X23657142Y-156647619D01*
X26133333Y-154904761D02*
X25990476Y-154952380D01*
X25752381Y-154952380D01*
X25657143Y-154904761D01*
X25609524Y-154857142D01*
X25561904Y-154761904D01*
X25561904Y-154666666D01*
X25609524Y-154571428D01*
X25657143Y-154523809D01*
X25752381Y-154476190D01*
X25942857Y-154428571D01*
X26038095Y-154380952D01*
X26085714Y-154333333D01*
X26133333Y-154238095D01*
X26133333Y-154142857D01*
X26085714Y-154047619D01*
X26038095Y-154000000D01*
X25942857Y-153952380D01*
X25704762Y-153952380D01*
X25561904Y-154000000D01*
X25133333Y-154952380D02*
X25133333Y-153952380D01*
X24133333Y-154000000D02*
X24228571Y-153952380D01*
X24371428Y-153952380D01*
X24514285Y-154000000D01*
X24609524Y-154095238D01*
X24657143Y-154190476D01*
X24704762Y-154380952D01*
X24704762Y-154523809D01*
X24657143Y-154714285D01*
X24609524Y-154809523D01*
X24514285Y-154904761D01*
X24371428Y-154952380D01*
X24276190Y-154952380D01*
X24133333Y-154904761D01*
X24085714Y-154857142D01*
X24085714Y-154523809D01*
X24276190Y-154523809D01*
X25561904Y-151500000D02*
X25657142Y-151452380D01*
X25800000Y-151452380D01*
X25942857Y-151500000D01*
X26038095Y-151595238D01*
X26085714Y-151690476D01*
X26133333Y-151880952D01*
X26133333Y-152023809D01*
X26085714Y-152214285D01*
X26038095Y-152309523D01*
X25942857Y-152404761D01*
X25800000Y-152452380D01*
X25704761Y-152452380D01*
X25561904Y-152404761D01*
X25514285Y-152357142D01*
X25514285Y-152023809D01*
X25704761Y-152023809D01*
X25085714Y-152452380D02*
X25085714Y-151452380D01*
X24514285Y-152452380D01*
X24514285Y-151452380D01*
X24038095Y-152452380D02*
X24038095Y-151452380D01*
X23800000Y-151452380D01*
X23657142Y-151500000D01*
X23561904Y-151595238D01*
X23514285Y-151690476D01*
X23466666Y-151880952D01*
X23466666Y-152023809D01*
X23514285Y-152214285D01*
X23561904Y-152309523D01*
X23657142Y-152404761D01*
X23800000Y-152452380D01*
X24038095Y-152452380D01*
X25561904Y-164400000D02*
X25657142Y-164352380D01*
X25800000Y-164352380D01*
X25942857Y-164400000D01*
X26038095Y-164495238D01*
X26085714Y-164590476D01*
X26133333Y-164780952D01*
X26133333Y-164923809D01*
X26085714Y-165114285D01*
X26038095Y-165209523D01*
X25942857Y-165304761D01*
X25800000Y-165352380D01*
X25704761Y-165352380D01*
X25561904Y-165304761D01*
X25514285Y-165257142D01*
X25514285Y-164923809D01*
X25704761Y-164923809D01*
X25085714Y-165352380D02*
X25085714Y-164352380D01*
X24514285Y-165352380D01*
X24514285Y-164352380D01*
X24038095Y-165352380D02*
X24038095Y-164352380D01*
X23800000Y-164352380D01*
X23657142Y-164400000D01*
X23561904Y-164495238D01*
X23514285Y-164590476D01*
X23466666Y-164780952D01*
X23466666Y-164923809D01*
X23514285Y-165114285D01*
X23561904Y-165209523D01*
X23657142Y-165304761D01*
X23800000Y-165352380D01*
X24038095Y-165352380D01*
X26133333Y-167804761D02*
X25990476Y-167852380D01*
X25752381Y-167852380D01*
X25657143Y-167804761D01*
X25609524Y-167757142D01*
X25561904Y-167661904D01*
X25561904Y-167566666D01*
X25609524Y-167471428D01*
X25657143Y-167423809D01*
X25752381Y-167376190D01*
X25942857Y-167328571D01*
X26038095Y-167280952D01*
X26085714Y-167233333D01*
X26133333Y-167138095D01*
X26133333Y-167042857D01*
X26085714Y-166947619D01*
X26038095Y-166900000D01*
X25942857Y-166852380D01*
X25704762Y-166852380D01*
X25561904Y-166900000D01*
X25133333Y-167852380D02*
X25133333Y-166852380D01*
X24133333Y-166900000D02*
X24228571Y-166852380D01*
X24371428Y-166852380D01*
X24514285Y-166900000D01*
X24609524Y-166995238D01*
X24657143Y-167090476D01*
X24704762Y-167280952D01*
X24704762Y-167423809D01*
X24657143Y-167614285D01*
X24609524Y-167709523D01*
X24514285Y-167804761D01*
X24371428Y-167852380D01*
X24276190Y-167852380D01*
X24133333Y-167804761D01*
X24085714Y-167757142D01*
X24085714Y-167423809D01*
X24276190Y-167423809D01*
X26133333Y-178204761D02*
X25990476Y-178252380D01*
X25752381Y-178252380D01*
X25657143Y-178204761D01*
X25609524Y-178157142D01*
X25561904Y-178061904D01*
X25561904Y-177966666D01*
X25609524Y-177871428D01*
X25657143Y-177823809D01*
X25752381Y-177776190D01*
X25942857Y-177728571D01*
X26038095Y-177680952D01*
X26085714Y-177633333D01*
X26133333Y-177538095D01*
X26133333Y-177442857D01*
X26085714Y-177347619D01*
X26038095Y-177300000D01*
X25942857Y-177252380D01*
X25704762Y-177252380D01*
X25561904Y-177300000D01*
X25133333Y-178252380D02*
X25133333Y-177252380D01*
X24133333Y-177300000D02*
X24228571Y-177252380D01*
X24371428Y-177252380D01*
X24514285Y-177300000D01*
X24609524Y-177395238D01*
X24657143Y-177490476D01*
X24704762Y-177680952D01*
X24704762Y-177823809D01*
X24657143Y-178014285D01*
X24609524Y-178109523D01*
X24514285Y-178204761D01*
X24371428Y-178252380D01*
X24276190Y-178252380D01*
X24133333Y-178204761D01*
X24085714Y-178157142D01*
X24085714Y-177823809D01*
X24276190Y-177823809D01*
X25561904Y-174800000D02*
X25657142Y-174752380D01*
X25800000Y-174752380D01*
X25942857Y-174800000D01*
X26038095Y-174895238D01*
X26085714Y-174990476D01*
X26133333Y-175180952D01*
X26133333Y-175323809D01*
X26085714Y-175514285D01*
X26038095Y-175609523D01*
X25942857Y-175704761D01*
X25800000Y-175752380D01*
X25704761Y-175752380D01*
X25561904Y-175704761D01*
X25514285Y-175657142D01*
X25514285Y-175323809D01*
X25704761Y-175323809D01*
X25085714Y-175752380D02*
X25085714Y-174752380D01*
X24514285Y-175752380D01*
X24514285Y-174752380D01*
X24038095Y-175752380D02*
X24038095Y-174752380D01*
X23800000Y-174752380D01*
X23657142Y-174800000D01*
X23561904Y-174895238D01*
X23514285Y-174990476D01*
X23466666Y-175180952D01*
X23466666Y-175323809D01*
X23514285Y-175514285D01*
X23561904Y-175609523D01*
X23657142Y-175704761D01*
X23800000Y-175752380D01*
X24038095Y-175752380D01*
X33800000Y-186338095D02*
X33752380Y-186242857D01*
X33752380Y-186100000D01*
X33800000Y-185957142D01*
X33895238Y-185861904D01*
X33990476Y-185814285D01*
X34180952Y-185766666D01*
X34323809Y-185766666D01*
X34514285Y-185814285D01*
X34609523Y-185861904D01*
X34704761Y-185957142D01*
X34752380Y-186100000D01*
X34752380Y-186195238D01*
X34704761Y-186338095D01*
X34657142Y-186385714D01*
X34323809Y-186385714D01*
X34323809Y-186195238D01*
X34752380Y-186814285D02*
X33752380Y-186814285D01*
X34752380Y-187385714D01*
X33752380Y-187385714D01*
X34752380Y-187861904D02*
X33752380Y-187861904D01*
X33752380Y-188100000D01*
X33800000Y-188242857D01*
X33895238Y-188338095D01*
X33990476Y-188385714D01*
X34180952Y-188433333D01*
X34323809Y-188433333D01*
X34514285Y-188385714D01*
X34609523Y-188338095D01*
X34704761Y-188242857D01*
X34752380Y-188100000D01*
X34752380Y-187861904D01*
X37302380Y-185814285D02*
X36302380Y-185814285D01*
X37302380Y-186385714D01*
X36302380Y-186385714D01*
X37207142Y-187433333D02*
X37254761Y-187385714D01*
X37302380Y-187242857D01*
X37302380Y-187147619D01*
X37254761Y-187004761D01*
X37159523Y-186909523D01*
X37064285Y-186861904D01*
X36873809Y-186814285D01*
X36730952Y-186814285D01*
X36540476Y-186861904D01*
X36445238Y-186909523D01*
X36350000Y-187004761D01*
X36302380Y-187147619D01*
X36302380Y-187242857D01*
X36350000Y-187385714D01*
X36397619Y-187433333D01*
X38852380Y-185671428D02*
X39852380Y-186004762D01*
X38852380Y-186338095D01*
X39757142Y-187242857D02*
X39804761Y-187195238D01*
X39852380Y-187052381D01*
X39852380Y-186957142D01*
X39804761Y-186814285D01*
X39709523Y-186719047D01*
X39614285Y-186671428D01*
X39423809Y-186623809D01*
X39280952Y-186623809D01*
X39090476Y-186671428D01*
X38995238Y-186719047D01*
X38900000Y-186814285D01*
X38852380Y-186957142D01*
X38852380Y-187052381D01*
X38900000Y-187195238D01*
X38947619Y-187242857D01*
X39757142Y-188242857D02*
X39804761Y-188195238D01*
X39852380Y-188052381D01*
X39852380Y-187957142D01*
X39804761Y-187814285D01*
X39709523Y-187719047D01*
X39614285Y-187671428D01*
X39423809Y-187623809D01*
X39280952Y-187623809D01*
X39090476Y-187671428D01*
X38995238Y-187719047D01*
X38900000Y-187814285D01*
X38852380Y-187957142D01*
X38852380Y-188052381D01*
X38900000Y-188195238D01*
X38947619Y-188242857D01*
X41352380Y-185671428D02*
X41352380Y-186242856D01*
X42352380Y-185957142D02*
X41352380Y-185957142D01*
X41352380Y-186480952D02*
X42352380Y-187147618D01*
X41352380Y-187147618D02*
X42352380Y-186480952D01*
X44902380Y-186385714D02*
X44426190Y-186052381D01*
X44902380Y-185814285D02*
X43902380Y-185814285D01*
X43902380Y-186195238D01*
X43950000Y-186290476D01*
X43997619Y-186338095D01*
X44092857Y-186385714D01*
X44235714Y-186385714D01*
X44330952Y-186338095D01*
X44378571Y-186290476D01*
X44426190Y-186195238D01*
X44426190Y-185814285D01*
X43902380Y-186719047D02*
X44902380Y-187385714D01*
X43902380Y-187385714D02*
X44902380Y-186719047D01*
X47502380Y-185814285D02*
X46502380Y-185814285D01*
X47502380Y-186385714D01*
X46502380Y-186385714D01*
X47407142Y-187433333D02*
X47454761Y-187385714D01*
X47502380Y-187242857D01*
X47502380Y-187147619D01*
X47454761Y-187004761D01*
X47359523Y-186909523D01*
X47264285Y-186861904D01*
X47073809Y-186814285D01*
X46930952Y-186814285D01*
X46740476Y-186861904D01*
X46645238Y-186909523D01*
X46550000Y-187004761D01*
X46502380Y-187147619D01*
X46502380Y-187242857D01*
X46550000Y-187385714D01*
X46597619Y-187433333D01*
X65928571Y-178485713D02*
X65976190Y-178628570D01*
X66023809Y-178676189D01*
X66119047Y-178723808D01*
X66261904Y-178723808D01*
X66357142Y-178676189D01*
X66404761Y-178628570D01*
X66452380Y-178533332D01*
X66452380Y-178152380D01*
X65452380Y-178152380D01*
X65452380Y-178485713D01*
X65500000Y-178580951D01*
X65547619Y-178628570D01*
X65642857Y-178676189D01*
X65738095Y-178676189D01*
X65833333Y-178628570D01*
X65880952Y-178580951D01*
X65928571Y-178485713D01*
X65928571Y-178152380D01*
X66547619Y-178914285D02*
X66547619Y-179676189D01*
X65928571Y-179914285D02*
X65928571Y-180247618D01*
X66452380Y-180390475D02*
X66452380Y-179914285D01*
X65452380Y-179914285D01*
X65452380Y-180390475D01*
X66452380Y-180819047D02*
X65452380Y-180819047D01*
X66452380Y-181390475D01*
X65452380Y-181390475D01*
X69002380Y-180485714D02*
X68526190Y-180152381D01*
X69002380Y-179914285D02*
X68002380Y-179914285D01*
X68002380Y-180295238D01*
X68050000Y-180390476D01*
X68097619Y-180438095D01*
X68192857Y-180485714D01*
X68335714Y-180485714D01*
X68430952Y-180438095D01*
X68478571Y-180390476D01*
X68526190Y-180295238D01*
X68526190Y-179914285D01*
X68954761Y-180866666D02*
X69002380Y-181009523D01*
X69002380Y-181247619D01*
X68954761Y-181342857D01*
X68907142Y-181390476D01*
X68811904Y-181438095D01*
X68716666Y-181438095D01*
X68621428Y-181390476D01*
X68573809Y-181342857D01*
X68526190Y-181247619D01*
X68478571Y-181057142D01*
X68430952Y-180961904D01*
X68383333Y-180914285D01*
X68288095Y-180866666D01*
X68192857Y-180866666D01*
X68097619Y-180914285D01*
X68050000Y-180961904D01*
X68002380Y-181057142D01*
X68002380Y-181295238D01*
X68050000Y-181438095D01*
X71552380Y-179914285D02*
X70552380Y-179914285D01*
X70552380Y-180152381D01*
X70600000Y-180295238D01*
X70695238Y-180390476D01*
X70790476Y-180438095D01*
X70980952Y-180485714D01*
X71123809Y-180485714D01*
X71314285Y-180438095D01*
X71409523Y-180390476D01*
X71504761Y-180295238D01*
X71552380Y-180152381D01*
X71552380Y-179914285D01*
X70552380Y-181390476D02*
X70552380Y-180914285D01*
X71028571Y-180866666D01*
X70980952Y-180914285D01*
X70933333Y-181009523D01*
X70933333Y-181247619D01*
X70980952Y-181342857D01*
X71028571Y-181390476D01*
X71123809Y-181438095D01*
X71361904Y-181438095D01*
X71457142Y-181390476D01*
X71504761Y-181342857D01*
X71552380Y-181247619D01*
X71552380Y-181009523D01*
X71504761Y-180914285D01*
X71457142Y-180866666D01*
X74052380Y-179914285D02*
X73052380Y-179914285D01*
X73052380Y-180152381D01*
X73100000Y-180295238D01*
X73195238Y-180390476D01*
X73290476Y-180438095D01*
X73480952Y-180485714D01*
X73623809Y-180485714D01*
X73814285Y-180438095D01*
X73909523Y-180390476D01*
X74004761Y-180295238D01*
X74052380Y-180152381D01*
X74052380Y-179914285D01*
X73052380Y-180819047D02*
X73052380Y-181485714D01*
X74052380Y-181057142D01*
X75702380Y-178866666D02*
X76702380Y-179200000D01*
X75702380Y-179533333D01*
X76607142Y-180438095D02*
X76654761Y-180390476D01*
X76702380Y-180247619D01*
X76702380Y-180152380D01*
X76654761Y-180009523D01*
X76559523Y-179914285D01*
X76464285Y-179866666D01*
X76273809Y-179819047D01*
X76130952Y-179819047D01*
X75940476Y-179866666D01*
X75845238Y-179914285D01*
X75750000Y-180009523D01*
X75702380Y-180152380D01*
X75702380Y-180247619D01*
X75750000Y-180390476D01*
X75797619Y-180438095D01*
X76607142Y-181438095D02*
X76654761Y-181390476D01*
X76702380Y-181247619D01*
X76702380Y-181152380D01*
X76654761Y-181009523D01*
X76559523Y-180914285D01*
X76464285Y-180866666D01*
X76273809Y-180819047D01*
X76130952Y-180819047D01*
X75940476Y-180866666D01*
X75845238Y-180914285D01*
X75750000Y-181009523D01*
X75702380Y-181152380D01*
X75702380Y-181247619D01*
X75750000Y-181390476D01*
X75797619Y-181438095D01*
X65928571Y-187397619D02*
X65976190Y-187540476D01*
X66023809Y-187588095D01*
X66119047Y-187635714D01*
X66261904Y-187635714D01*
X66357142Y-187588095D01*
X66404761Y-187540476D01*
X66452380Y-187445238D01*
X66452380Y-187064285D01*
X65452380Y-187064285D01*
X65452380Y-187397619D01*
X65500000Y-187492857D01*
X65547619Y-187540476D01*
X65642857Y-187588095D01*
X65738095Y-187588095D01*
X65833333Y-187540476D01*
X65880952Y-187492857D01*
X65928571Y-187397619D01*
X65928571Y-187064285D01*
X65452380Y-188064285D02*
X66261904Y-188064285D01*
X66357142Y-188111904D01*
X66404761Y-188159523D01*
X66452380Y-188254761D01*
X66452380Y-188445238D01*
X66404761Y-188540476D01*
X66357142Y-188588095D01*
X66261904Y-188635714D01*
X65452380Y-188635714D01*
X68528571Y-187064285D02*
X68528571Y-187397619D01*
X69052380Y-187540476D02*
X69052380Y-187064285D01*
X68052380Y-187064285D01*
X68052380Y-187540476D01*
X69052380Y-187969047D02*
X68052380Y-187969047D01*
X69052380Y-188540476D01*
X68052380Y-188540476D01*
X71552380Y-187064285D02*
X70552380Y-187064285D01*
X70552380Y-187302381D01*
X70600000Y-187445238D01*
X70695238Y-187540476D01*
X70790476Y-187588095D01*
X70980952Y-187635714D01*
X71123809Y-187635714D01*
X71314285Y-187588095D01*
X71409523Y-187540476D01*
X71504761Y-187445238D01*
X71552380Y-187302381D01*
X71552380Y-187064285D01*
X70885714Y-188492857D02*
X71552380Y-188492857D01*
X70504761Y-188254761D02*
X71219047Y-188016666D01*
X71219047Y-188635714D01*
X74052380Y-187064285D02*
X73052380Y-187064285D01*
X73052380Y-187302381D01*
X73100000Y-187445238D01*
X73195238Y-187540476D01*
X73290476Y-187588095D01*
X73480952Y-187635714D01*
X73623809Y-187635714D01*
X73814285Y-187588095D01*
X73909523Y-187540476D01*
X74004761Y-187445238D01*
X74052380Y-187302381D01*
X74052380Y-187064285D01*
X73052380Y-188492857D02*
X73052380Y-188302381D01*
X73100000Y-188207142D01*
X73147619Y-188159523D01*
X73290476Y-188064285D01*
X73480952Y-188016666D01*
X73861904Y-188016666D01*
X73957142Y-188064285D01*
X74004761Y-188111904D01*
X74052380Y-188207142D01*
X74052380Y-188397619D01*
X74004761Y-188492857D01*
X73957142Y-188540476D01*
X73861904Y-188588095D01*
X73623809Y-188588095D01*
X73528571Y-188540476D01*
X73480952Y-188492857D01*
X73433333Y-188397619D01*
X73433333Y-188207142D01*
X73480952Y-188111904D01*
X73528571Y-188064285D01*
X73623809Y-188016666D01*
X75700000Y-187588095D02*
X75652380Y-187492857D01*
X75652380Y-187350000D01*
X75700000Y-187207142D01*
X75795238Y-187111904D01*
X75890476Y-187064285D01*
X76080952Y-187016666D01*
X76223809Y-187016666D01*
X76414285Y-187064285D01*
X76509523Y-187111904D01*
X76604761Y-187207142D01*
X76652380Y-187350000D01*
X76652380Y-187445238D01*
X76604761Y-187588095D01*
X76557142Y-187635714D01*
X76223809Y-187635714D01*
X76223809Y-187445238D01*
X76652380Y-188064285D02*
X75652380Y-188064285D01*
X76652380Y-188635714D01*
X75652380Y-188635714D01*
X76652380Y-189111904D02*
X75652380Y-189111904D01*
X75652380Y-189350000D01*
X75700000Y-189492857D01*
X75795238Y-189588095D01*
X75890476Y-189635714D01*
X76080952Y-189683333D01*
X76223809Y-189683333D01*
X76414285Y-189635714D01*
X76509523Y-189588095D01*
X76604761Y-189492857D01*
X76652380Y-189350000D01*
X76652380Y-189111904D01*
X97652380Y-179814285D02*
X96652380Y-179814285D01*
X97652380Y-180385714D01*
X96652380Y-180385714D01*
X97557142Y-181433333D02*
X97604761Y-181385714D01*
X97652380Y-181242857D01*
X97652380Y-181147619D01*
X97604761Y-181004761D01*
X97509523Y-180909523D01*
X97414285Y-180861904D01*
X97223809Y-180814285D01*
X97080952Y-180814285D01*
X96890476Y-180861904D01*
X96795238Y-180909523D01*
X96700000Y-181004761D01*
X96652380Y-181147619D01*
X96652380Y-181242857D01*
X96700000Y-181385714D01*
X96747619Y-181433333D01*
X94952380Y-179814285D02*
X93952380Y-179814285D01*
X94952380Y-180385714D01*
X93952380Y-180385714D01*
X94857142Y-181433333D02*
X94904761Y-181385714D01*
X94952380Y-181242857D01*
X94952380Y-181147619D01*
X94904761Y-181004761D01*
X94809523Y-180909523D01*
X94714285Y-180861904D01*
X94523809Y-180814285D01*
X94380952Y-180814285D01*
X94190476Y-180861904D01*
X94095238Y-180909523D01*
X94000000Y-181004761D01*
X93952380Y-181147619D01*
X93952380Y-181242857D01*
X94000000Y-181385714D01*
X94047619Y-181433333D01*
X92552380Y-179814285D02*
X91552380Y-179814285D01*
X92552380Y-180385714D01*
X91552380Y-180385714D01*
X92457142Y-181433333D02*
X92504761Y-181385714D01*
X92552380Y-181242857D01*
X92552380Y-181147619D01*
X92504761Y-181004761D01*
X92409523Y-180909523D01*
X92314285Y-180861904D01*
X92123809Y-180814285D01*
X91980952Y-180814285D01*
X91790476Y-180861904D01*
X91695238Y-180909523D01*
X91600000Y-181004761D01*
X91552380Y-181147619D01*
X91552380Y-181242857D01*
X91600000Y-181385714D01*
X91647619Y-181433333D01*
X89952380Y-179814285D02*
X88952380Y-179814285D01*
X89952380Y-180385714D01*
X88952380Y-180385714D01*
X89857142Y-181433333D02*
X89904761Y-181385714D01*
X89952380Y-181242857D01*
X89952380Y-181147619D01*
X89904761Y-181004761D01*
X89809523Y-180909523D01*
X89714285Y-180861904D01*
X89523809Y-180814285D01*
X89380952Y-180814285D01*
X89190476Y-180861904D01*
X89095238Y-180909523D01*
X89000000Y-181004761D01*
X88952380Y-181147619D01*
X88952380Y-181242857D01*
X89000000Y-181385714D01*
X89047619Y-181433333D01*
X87452380Y-179814285D02*
X86452380Y-179814285D01*
X87452380Y-180385714D01*
X86452380Y-180385714D01*
X87357142Y-181433333D02*
X87404761Y-181385714D01*
X87452380Y-181242857D01*
X87452380Y-181147619D01*
X87404761Y-181004761D01*
X87309523Y-180909523D01*
X87214285Y-180861904D01*
X87023809Y-180814285D01*
X86880952Y-180814285D01*
X86690476Y-180861904D01*
X86595238Y-180909523D01*
X86500000Y-181004761D01*
X86452380Y-181147619D01*
X86452380Y-181242857D01*
X86500000Y-181385714D01*
X86547619Y-181433333D01*
X96800000Y-187538095D02*
X96752380Y-187442857D01*
X96752380Y-187300000D01*
X96800000Y-187157142D01*
X96895238Y-187061904D01*
X96990476Y-187014285D01*
X97180952Y-186966666D01*
X97323809Y-186966666D01*
X97514285Y-187014285D01*
X97609523Y-187061904D01*
X97704761Y-187157142D01*
X97752380Y-187300000D01*
X97752380Y-187395238D01*
X97704761Y-187538095D01*
X97657142Y-187585714D01*
X97323809Y-187585714D01*
X97323809Y-187395238D01*
X97752380Y-188014285D02*
X96752380Y-188014285D01*
X97752380Y-188585714D01*
X96752380Y-188585714D01*
X97752380Y-189061904D02*
X96752380Y-189061904D01*
X96752380Y-189300000D01*
X96800000Y-189442857D01*
X96895238Y-189538095D01*
X96990476Y-189585714D01*
X97180952Y-189633333D01*
X97323809Y-189633333D01*
X97514285Y-189585714D01*
X97609523Y-189538095D01*
X97704761Y-189442857D01*
X97752380Y-189300000D01*
X97752380Y-189061904D01*
X95152380Y-187014285D02*
X94152380Y-187014285D01*
X95152380Y-187585714D01*
X94152380Y-187585714D01*
X95057142Y-188633333D02*
X95104761Y-188585714D01*
X95152380Y-188442857D01*
X95152380Y-188347619D01*
X95104761Y-188204761D01*
X95009523Y-188109523D01*
X94914285Y-188061904D01*
X94723809Y-188014285D01*
X94580952Y-188014285D01*
X94390476Y-188061904D01*
X94295238Y-188109523D01*
X94200000Y-188204761D01*
X94152380Y-188347619D01*
X94152380Y-188442857D01*
X94200000Y-188585714D01*
X94247619Y-188633333D01*
X92128571Y-187014285D02*
X92128571Y-187347618D01*
X92652380Y-187490475D02*
X92652380Y-187014285D01*
X91652380Y-187014285D01*
X91652380Y-187490475D01*
X92652380Y-187919047D02*
X91652380Y-187919047D01*
X92652380Y-188490475D01*
X91652380Y-188490475D01*
X91747619Y-188919047D02*
X91700000Y-188966666D01*
X91652380Y-189061904D01*
X91652380Y-189299999D01*
X91700000Y-189395237D01*
X91747619Y-189442856D01*
X91842857Y-189490475D01*
X91938095Y-189490475D01*
X92080952Y-189442856D01*
X92652380Y-188871428D01*
X92652380Y-189490475D01*
X89528571Y-187014285D02*
X89528571Y-187347618D01*
X90052380Y-187490475D02*
X90052380Y-187014285D01*
X89052380Y-187014285D01*
X89052380Y-187490475D01*
X90052380Y-187919047D02*
X89052380Y-187919047D01*
X90052380Y-188490475D01*
X89052380Y-188490475D01*
X90052380Y-189490475D02*
X90052380Y-188919047D01*
X90052380Y-189204761D02*
X89052380Y-189204761D01*
X89195238Y-189109523D01*
X89290476Y-189014285D01*
X89338095Y-188919047D01*
X87552380Y-187014285D02*
X86552380Y-187014285D01*
X87552380Y-187585714D01*
X86552380Y-187585714D01*
X87457142Y-188633333D02*
X87504761Y-188585714D01*
X87552380Y-188442857D01*
X87552380Y-188347619D01*
X87504761Y-188204761D01*
X87409523Y-188109523D01*
X87314285Y-188061904D01*
X87123809Y-188014285D01*
X86980952Y-188014285D01*
X86790476Y-188061904D01*
X86695238Y-188109523D01*
X86600000Y-188204761D01*
X86552380Y-188347619D01*
X86552380Y-188442857D01*
X86600000Y-188585714D01*
X86647619Y-188633333D01*
X108971428Y-162052380D02*
X108780952Y-162052380D01*
X108685714Y-162100000D01*
X108590476Y-162195238D01*
X108542857Y-162385714D01*
X108542857Y-162719047D01*
X108590476Y-162909523D01*
X108685714Y-163004761D01*
X108780952Y-163052380D01*
X108971428Y-163052380D01*
X109066666Y-163004761D01*
X109161904Y-162909523D01*
X109209523Y-162719047D01*
X109209523Y-162385714D01*
X109161904Y-162195238D01*
X109066666Y-162100000D01*
X108971428Y-162052380D01*
X107685714Y-162385714D02*
X107685714Y-163052380D01*
X107923809Y-162004761D02*
X108161904Y-162719047D01*
X107542857Y-162719047D01*
X108971428Y-159452380D02*
X108780952Y-159452380D01*
X108685714Y-159500000D01*
X108590476Y-159595238D01*
X108542857Y-159785714D01*
X108542857Y-160119047D01*
X108590476Y-160309523D01*
X108685714Y-160404761D01*
X108780952Y-160452380D01*
X108971428Y-160452380D01*
X109066666Y-160404761D01*
X109161904Y-160309523D01*
X109209523Y-160119047D01*
X109209523Y-159785714D01*
X109161904Y-159595238D01*
X109066666Y-159500000D01*
X108971428Y-159452380D01*
X108209523Y-159452380D02*
X107590476Y-159452380D01*
X107923809Y-159833333D01*
X107780952Y-159833333D01*
X107685714Y-159880952D01*
X107638095Y-159928571D01*
X107590476Y-160023809D01*
X107590476Y-160261904D01*
X107638095Y-160357142D01*
X107685714Y-160404761D01*
X107780952Y-160452380D01*
X108066666Y-160452380D01*
X108161904Y-160404761D01*
X108209523Y-160357142D01*
X108971428Y-151352380D02*
X108780952Y-151352380D01*
X108685714Y-151400000D01*
X108590476Y-151495238D01*
X108542857Y-151685714D01*
X108542857Y-152019047D01*
X108590476Y-152209523D01*
X108685714Y-152304761D01*
X108780952Y-152352380D01*
X108971428Y-152352380D01*
X109066666Y-152304761D01*
X109161904Y-152209523D01*
X109209523Y-152019047D01*
X109209523Y-151685714D01*
X109161904Y-151495238D01*
X109066666Y-151400000D01*
X108971428Y-151352380D01*
X108161904Y-151447619D02*
X108114285Y-151400000D01*
X108019047Y-151352380D01*
X107780952Y-151352380D01*
X107685714Y-151400000D01*
X107638095Y-151447619D01*
X107590476Y-151542857D01*
X107590476Y-151638095D01*
X107638095Y-151780952D01*
X108209523Y-152352380D01*
X107590476Y-152352380D01*
X108971428Y-148752380D02*
X108780952Y-148752380D01*
X108685714Y-148800000D01*
X108590476Y-148895238D01*
X108542857Y-149085714D01*
X108542857Y-149419047D01*
X108590476Y-149609523D01*
X108685714Y-149704761D01*
X108780952Y-149752380D01*
X108971428Y-149752380D01*
X109066666Y-149704761D01*
X109161904Y-149609523D01*
X109209523Y-149419047D01*
X109209523Y-149085714D01*
X109161904Y-148895238D01*
X109066666Y-148800000D01*
X108971428Y-148752380D01*
X107590476Y-149752380D02*
X108161904Y-149752380D01*
X107876190Y-149752380D02*
X107876190Y-148752380D01*
X107971428Y-148895238D01*
X108066666Y-148990476D01*
X108161904Y-149038095D01*
X45771428Y-153752380D02*
X45771428Y-152752380D01*
X45438095Y-153466666D01*
X45104761Y-152752380D01*
X45104761Y-153752380D01*
X44438095Y-152752380D02*
X44247619Y-152752380D01*
X44152380Y-152800000D01*
X44057142Y-152895238D01*
X44009523Y-153085714D01*
X44009523Y-153419047D01*
X44057142Y-153609523D01*
X44152380Y-153704761D01*
X44247619Y-153752380D01*
X44438095Y-153752380D01*
X44533333Y-153704761D01*
X44628571Y-153609523D01*
X44676190Y-153419047D01*
X44676190Y-153085714D01*
X44628571Y-152895238D01*
X44533333Y-152800000D01*
X44438095Y-152752380D01*
X43628571Y-153704761D02*
X43485714Y-153752380D01*
X43247619Y-153752380D01*
X43152380Y-153704761D01*
X43104761Y-153657142D01*
X43057142Y-153561904D01*
X43057142Y-153466666D01*
X43104761Y-153371428D01*
X43152380Y-153323809D01*
X43247619Y-153276190D01*
X43438095Y-153228571D01*
X43533333Y-153180952D01*
X43580952Y-153133333D01*
X43628571Y-153038095D01*
X43628571Y-152942857D01*
X43580952Y-152847619D01*
X43533333Y-152800000D01*
X43438095Y-152752380D01*
X43200000Y-152752380D01*
X43057142Y-152800000D01*
X42628571Y-153752380D02*
X42628571Y-152752380D01*
X44199999Y-151152380D02*
X44199999Y-150152380D01*
X43628570Y-151152380D01*
X43628570Y-150152380D01*
X42580951Y-151057142D02*
X42628570Y-151104761D01*
X42771427Y-151152380D01*
X42866665Y-151152380D01*
X43009523Y-151104761D01*
X43104761Y-151009523D01*
X43152380Y-150914285D01*
X43199999Y-150723809D01*
X43199999Y-150580952D01*
X43152380Y-150390476D01*
X43104761Y-150295238D01*
X43009523Y-150200000D01*
X42866665Y-150152380D01*
X42771427Y-150152380D01*
X42628570Y-150200000D01*
X42580951Y-150247619D01*
X44295238Y-148652380D02*
X44628571Y-148176190D01*
X44866666Y-148652380D02*
X44866666Y-147652380D01*
X44485714Y-147652380D01*
X44390476Y-147700000D01*
X44342857Y-147747619D01*
X44295238Y-147842857D01*
X44295238Y-147985714D01*
X44342857Y-148080952D01*
X44390476Y-148128571D01*
X44485714Y-148176190D01*
X44866666Y-148176190D01*
X43914285Y-148604761D02*
X43771428Y-148652380D01*
X43533333Y-148652380D01*
X43438095Y-148604761D01*
X43390476Y-148557142D01*
X43342857Y-148461904D01*
X43342857Y-148366666D01*
X43390476Y-148271428D01*
X43438095Y-148223809D01*
X43533333Y-148176190D01*
X43723809Y-148128571D01*
X43819047Y-148080952D01*
X43866666Y-148033333D01*
X43914285Y-147938095D01*
X43914285Y-147842857D01*
X43866666Y-147747619D01*
X43819047Y-147700000D01*
X43723809Y-147652380D01*
X43485714Y-147652380D01*
X43342857Y-147700000D01*
X43057142Y-147652380D02*
X42485714Y-147652380D01*
X42771428Y-148652380D02*
X42771428Y-147652380D01*
X45152380Y-146004761D02*
X45009523Y-146052380D01*
X44771427Y-146052380D01*
X44676189Y-146004761D01*
X44628570Y-145957142D01*
X44580951Y-145861904D01*
X44580951Y-145766666D01*
X44628570Y-145671428D01*
X44676189Y-145623809D01*
X44771427Y-145576190D01*
X44961904Y-145528571D01*
X45057142Y-145480952D01*
X45104761Y-145433333D01*
X45152380Y-145338095D01*
X45152380Y-145242857D01*
X45104761Y-145147619D01*
X45057142Y-145100000D01*
X44961904Y-145052380D01*
X44723808Y-145052380D01*
X44580951Y-145100000D01*
X43580951Y-145957142D02*
X43628570Y-146004761D01*
X43771427Y-146052380D01*
X43866666Y-146052380D01*
X44009523Y-146004761D01*
X44104761Y-145909523D01*
X44152380Y-145814285D01*
X44199999Y-145623809D01*
X44199999Y-145480952D01*
X44152380Y-145290476D01*
X44104761Y-145195238D01*
X44009523Y-145100000D01*
X43866666Y-145052380D01*
X43771427Y-145052380D01*
X43628570Y-145100000D01*
X43580951Y-145147619D01*
X43152380Y-146052380D02*
X43152380Y-145052380D01*
X42580951Y-146052380D02*
X43009523Y-145480952D01*
X42580951Y-145052380D02*
X43152380Y-145623809D01*
X45771428Y-143452380D02*
X45771428Y-142452380D01*
X45438095Y-143166666D01*
X45104761Y-142452380D01*
X45104761Y-143452380D01*
X44628571Y-143452380D02*
X44628571Y-142452380D01*
X44200000Y-143404761D02*
X44057142Y-143452380D01*
X43819047Y-143452380D01*
X43723809Y-143404761D01*
X43676190Y-143357142D01*
X43628571Y-143261904D01*
X43628571Y-143166666D01*
X43676190Y-143071428D01*
X43723809Y-143023809D01*
X43819047Y-142976190D01*
X44009523Y-142928571D01*
X44104761Y-142880952D01*
X44152380Y-142833333D01*
X44200000Y-142738095D01*
X44200000Y-142642857D01*
X44152380Y-142547619D01*
X44104761Y-142500000D01*
X44009523Y-142452380D01*
X43771428Y-142452380D01*
X43628571Y-142500000D01*
X43009523Y-142452380D02*
X42819047Y-142452380D01*
X42723809Y-142500000D01*
X42628571Y-142595238D01*
X42580952Y-142785714D01*
X42580952Y-143119047D01*
X42628571Y-143309523D01*
X42723809Y-143404761D01*
X42819047Y-143452380D01*
X43009523Y-143452380D01*
X43104761Y-143404761D01*
X43200000Y-143309523D01*
X43247619Y-143119047D01*
X43247619Y-142785714D01*
X43200000Y-142595238D01*
X43104761Y-142500000D01*
X43009523Y-142452380D01*
X36933333Y-152652380D02*
X36600000Y-153652380D01*
X36266666Y-152652380D01*
X35361904Y-153557142D02*
X35409523Y-153604761D01*
X35552380Y-153652380D01*
X35647619Y-153652380D01*
X35790476Y-153604761D01*
X35885714Y-153509523D01*
X35933333Y-153414285D01*
X35980952Y-153223809D01*
X35980952Y-153080952D01*
X35933333Y-152890476D01*
X35885714Y-152795238D01*
X35790476Y-152700000D01*
X35647619Y-152652380D01*
X35552380Y-152652380D01*
X35409523Y-152700000D01*
X35361904Y-152747619D01*
X34361904Y-153557142D02*
X34409523Y-153604761D01*
X34552380Y-153652380D01*
X34647619Y-153652380D01*
X34790476Y-153604761D01*
X34885714Y-153509523D01*
X34933333Y-153414285D01*
X34980952Y-153223809D01*
X34980952Y-153080952D01*
X34933333Y-152890476D01*
X34885714Y-152795238D01*
X34790476Y-152700000D01*
X34647619Y-152652380D01*
X34552380Y-152652380D01*
X34409523Y-152700000D01*
X34361904Y-152747619D01*
X36361904Y-150300000D02*
X36457142Y-150252380D01*
X36600000Y-150252380D01*
X36742857Y-150300000D01*
X36838095Y-150395238D01*
X36885714Y-150490476D01*
X36933333Y-150680952D01*
X36933333Y-150823809D01*
X36885714Y-151014285D01*
X36838095Y-151109523D01*
X36742857Y-151204761D01*
X36600000Y-151252380D01*
X36504761Y-151252380D01*
X36361904Y-151204761D01*
X36314285Y-151157142D01*
X36314285Y-150823809D01*
X36504761Y-150823809D01*
X35885714Y-151252380D02*
X35885714Y-150252380D01*
X35314285Y-151252380D01*
X35314285Y-150252380D01*
X34838095Y-151252380D02*
X34838095Y-150252380D01*
X34600000Y-150252380D01*
X34457142Y-150300000D01*
X34361904Y-150395238D01*
X34314285Y-150490476D01*
X34266666Y-150680952D01*
X34266666Y-150823809D01*
X34314285Y-151014285D01*
X34361904Y-151109523D01*
X34457142Y-151204761D01*
X34600000Y-151252380D01*
X34838095Y-151252380D01*
X36361904Y-147700000D02*
X36457142Y-147652380D01*
X36600000Y-147652380D01*
X36742857Y-147700000D01*
X36838095Y-147795238D01*
X36885714Y-147890476D01*
X36933333Y-148080952D01*
X36933333Y-148223809D01*
X36885714Y-148414285D01*
X36838095Y-148509523D01*
X36742857Y-148604761D01*
X36600000Y-148652380D01*
X36504761Y-148652380D01*
X36361904Y-148604761D01*
X36314285Y-148557142D01*
X36314285Y-148223809D01*
X36504761Y-148223809D01*
X35885714Y-148652380D02*
X35885714Y-147652380D01*
X35314285Y-148652380D01*
X35314285Y-147652380D01*
X34838095Y-148652380D02*
X34838095Y-147652380D01*
X34600000Y-147652380D01*
X34457142Y-147700000D01*
X34361904Y-147795238D01*
X34314285Y-147890476D01*
X34266666Y-148080952D01*
X34266666Y-148223809D01*
X34314285Y-148414285D01*
X34361904Y-148509523D01*
X34457142Y-148604761D01*
X34600000Y-148652380D01*
X34838095Y-148652380D01*
X36361904Y-145100000D02*
X36457142Y-145052380D01*
X36600000Y-145052380D01*
X36742857Y-145100000D01*
X36838095Y-145195238D01*
X36885714Y-145290476D01*
X36933333Y-145480952D01*
X36933333Y-145623809D01*
X36885714Y-145814285D01*
X36838095Y-145909523D01*
X36742857Y-146004761D01*
X36600000Y-146052380D01*
X36504761Y-146052380D01*
X36361904Y-146004761D01*
X36314285Y-145957142D01*
X36314285Y-145623809D01*
X36504761Y-145623809D01*
X35885714Y-146052380D02*
X35885714Y-145052380D01*
X35314285Y-146052380D01*
X35314285Y-145052380D01*
X34838095Y-146052380D02*
X34838095Y-145052380D01*
X34600000Y-145052380D01*
X34457142Y-145100000D01*
X34361904Y-145195238D01*
X34314285Y-145290476D01*
X34266666Y-145480952D01*
X34266666Y-145623809D01*
X34314285Y-145814285D01*
X34361904Y-145909523D01*
X34457142Y-146004761D01*
X34600000Y-146052380D01*
X34838095Y-146052380D01*
X36361904Y-142500000D02*
X36457142Y-142452380D01*
X36600000Y-142452380D01*
X36742857Y-142500000D01*
X36838095Y-142595238D01*
X36885714Y-142690476D01*
X36933333Y-142880952D01*
X36933333Y-143023809D01*
X36885714Y-143214285D01*
X36838095Y-143309523D01*
X36742857Y-143404761D01*
X36600000Y-143452380D01*
X36504761Y-143452380D01*
X36361904Y-143404761D01*
X36314285Y-143357142D01*
X36314285Y-143023809D01*
X36504761Y-143023809D01*
X35885714Y-143452380D02*
X35885714Y-142452380D01*
X35314285Y-143452380D01*
X35314285Y-142452380D01*
X34838095Y-143452380D02*
X34838095Y-142452380D01*
X34600000Y-142452380D01*
X34457142Y-142500000D01*
X34361904Y-142595238D01*
X34314285Y-142690476D01*
X34266666Y-142880952D01*
X34266666Y-143023809D01*
X34314285Y-143214285D01*
X34361904Y-143309523D01*
X34457142Y-143404761D01*
X34600000Y-143452380D01*
X34838095Y-143452380D01*
X82214285Y-92167857D02*
X82166666Y-92120238D01*
X82023809Y-92072619D01*
X81928571Y-92072619D01*
X81785714Y-92120238D01*
X81690476Y-92215476D01*
X81642857Y-92310714D01*
X81595238Y-92501190D01*
X81595238Y-92644047D01*
X81642857Y-92834523D01*
X81690476Y-92929761D01*
X81785714Y-93025000D01*
X81928571Y-93072619D01*
X82023809Y-93072619D01*
X82166666Y-93025000D01*
X82214285Y-92977380D01*
X82833333Y-93072619D02*
X83023809Y-93072619D01*
X83119047Y-93025000D01*
X83214285Y-92929761D01*
X83261904Y-92739285D01*
X83261904Y-92405952D01*
X83214285Y-92215476D01*
X83119047Y-92120238D01*
X83023809Y-92072619D01*
X82833333Y-92072619D01*
X82738095Y-92120238D01*
X82642857Y-92215476D01*
X82595238Y-92405952D01*
X82595238Y-92739285D01*
X82642857Y-92929761D01*
X82738095Y-93025000D01*
X82833333Y-93072619D01*
X83690476Y-92072619D02*
X83690476Y-93072619D01*
X84023809Y-92358333D01*
X84357142Y-93072619D01*
X84357142Y-92072619D01*
X77190476Y-92072619D02*
X77190476Y-93072619D01*
X77761904Y-92072619D01*
X77761904Y-93072619D01*
X78428571Y-93072619D02*
X78619047Y-93072619D01*
X78714285Y-93025000D01*
X78809523Y-92929761D01*
X78857142Y-92739285D01*
X78857142Y-92405952D01*
X78809523Y-92215476D01*
X78714285Y-92120238D01*
X78619047Y-92072619D01*
X78428571Y-92072619D01*
X78333333Y-92120238D01*
X78238095Y-92215476D01*
X78190476Y-92405952D01*
X78190476Y-92739285D01*
X78238095Y-92929761D01*
X78333333Y-93025000D01*
X78428571Y-93072619D01*
X66214285Y-92167857D02*
X66166666Y-92120238D01*
X66023809Y-92072619D01*
X65928571Y-92072619D01*
X65785714Y-92120238D01*
X65690476Y-92215476D01*
X65642857Y-92310714D01*
X65595238Y-92501190D01*
X65595238Y-92644047D01*
X65642857Y-92834523D01*
X65690476Y-92929761D01*
X65785714Y-93025000D01*
X65928571Y-93072619D01*
X66023809Y-93072619D01*
X66166666Y-93025000D01*
X66214285Y-92977380D01*
X66833333Y-93072619D02*
X67023809Y-93072619D01*
X67119047Y-93025000D01*
X67214285Y-92929761D01*
X67261904Y-92739285D01*
X67261904Y-92405952D01*
X67214285Y-92215476D01*
X67119047Y-92120238D01*
X67023809Y-92072619D01*
X66833333Y-92072619D01*
X66738095Y-92120238D01*
X66642857Y-92215476D01*
X66595238Y-92405952D01*
X66595238Y-92739285D01*
X66642857Y-92929761D01*
X66738095Y-93025000D01*
X66833333Y-93072619D01*
X67690476Y-92072619D02*
X67690476Y-93072619D01*
X68023809Y-92358333D01*
X68357142Y-93072619D01*
X68357142Y-92072619D01*
X61090476Y-92072619D02*
X61090476Y-93072619D01*
X61661904Y-92072619D01*
X61661904Y-93072619D01*
X62328571Y-93072619D02*
X62519047Y-93072619D01*
X62614285Y-93025000D01*
X62709523Y-92929761D01*
X62757142Y-92739285D01*
X62757142Y-92405952D01*
X62709523Y-92215476D01*
X62614285Y-92120238D01*
X62519047Y-92072619D01*
X62328571Y-92072619D01*
X62233333Y-92120238D01*
X62138095Y-92215476D01*
X62090476Y-92405952D01*
X62090476Y-92739285D01*
X62138095Y-92929761D01*
X62233333Y-93025000D01*
X62328571Y-93072619D01*
X38785714Y-92714285D02*
X39700000Y-92714285D01*
X39242857Y-92257142D02*
X39242857Y-93171428D01*
X40900000Y-92257142D02*
X40214285Y-92257142D01*
X40557142Y-92257142D02*
X40557142Y-93457142D01*
X40442857Y-93285714D01*
X40328571Y-93171428D01*
X40214285Y-93114285D01*
X41357142Y-93342857D02*
X41414285Y-93400000D01*
X41528571Y-93457142D01*
X41814285Y-93457142D01*
X41928571Y-93400000D01*
X41985714Y-93342857D01*
X42042857Y-93228571D01*
X42042857Y-93114285D01*
X41985714Y-92942857D01*
X41300000Y-92257142D01*
X42042857Y-92257142D01*
X42385714Y-93457142D02*
X42785714Y-92257142D01*
X43185714Y-93457142D01*
M02*
